<svg width="363" height="259" viewBox="0 0 363 259" fill="none" xmlns="http://www.w3.org/2000/svg">
<g filter="url(#filter0_d_2237_19)">
<rect x="10" y="10" width="343" height="239" rx="6" fill="white"/>
</g>
<path d="M147.35 74.123L84.8398 193H66.6831L138.226 61.4766H149.879L147.35 74.123ZM162.345 193L140.575 72.1357L142.291 61.4766H153.131L179.056 193H162.345ZM168.397 144.311L165.868 158.583H94.0537L96.583 144.311H168.397ZM253.038 176.289L261.168 125.793C261.59 122.059 261.228 118.777 260.084 115.947C259 113.116 257.163 110.918 254.574 109.353C252.044 107.787 248.853 106.944 244.999 106.823C241.626 106.763 238.314 107.305 235.062 108.449C231.87 109.593 229.1 111.31 226.751 113.598C224.403 115.887 222.867 118.777 222.145 122.27L205.885 122.36C206.306 117.482 207.842 113.237 210.492 109.624C213.141 105.95 216.454 102.909 220.428 100.5C224.403 98.0309 228.679 96.2243 233.255 95.0801C237.832 93.8757 242.289 93.3035 246.625 93.3638C253.189 93.4842 258.88 94.8994 263.697 97.6094C268.575 100.259 272.249 103.993 274.718 108.811C277.187 113.628 278.09 119.41 277.428 126.154L269.93 171.682C269.388 174.994 269.057 178.336 268.937 181.708C268.876 185.021 269.268 188.273 270.111 191.464L269.93 193L253.399 193.09C252.737 190.32 252.406 187.52 252.406 184.689C252.466 181.859 252.677 179.059 253.038 176.289ZM263.065 133.742L261.168 145.485L245.721 145.395C242.469 145.395 239.037 145.636 235.423 146.118C231.81 146.599 228.377 147.503 225.125 148.828C221.874 150.153 219.133 152.08 216.905 154.609C214.677 157.078 213.322 160.3 212.84 164.274C212.479 167.526 212.87 170.357 214.015 172.766C215.219 175.114 217.026 176.951 219.435 178.276C221.843 179.601 224.644 180.293 227.835 180.354C231.991 180.414 236.086 179.601 240.121 177.915C244.155 176.228 247.678 173.819 250.689 170.688C253.701 167.556 255.778 163.943 256.922 159.848L262.884 167.888C261.74 171.862 259.873 175.536 257.284 178.908C254.694 182.22 251.623 185.081 248.07 187.49C244.577 189.899 240.813 191.765 236.778 193.09C232.743 194.415 228.709 195.048 224.674 194.987C219.194 194.867 214.225 193.632 209.769 191.284C205.373 188.935 201.88 185.653 199.291 181.438C196.761 177.162 195.677 172.194 196.039 166.533C196.4 160.33 198.026 155.121 200.917 150.905C203.807 146.69 207.511 143.317 212.027 140.788C216.604 138.259 221.603 136.452 227.022 135.368C232.442 134.224 237.802 133.652 243.102 133.652L263.065 133.742Z" fill="black"/>
<defs>
<filter id="filter0_d_2237_19" x="0" y="0" width="363" height="259" filterUnits="userSpaceOnUse" color-interpolation-filters="sRGB">
<feFlood flood-opacity="0" result="BackgroundImageFix"/>
<feColorMatrix in="SourceAlpha" type="matrix" values="0 0 0 0 0 0 0 0 0 0 0 0 0 0 0 0 0 0 127 0" result="hardAlpha"/>
<feOffset/>
<feGaussianBlur stdDeviation="5"/>
<feComposite in2="hardAlpha" operator="out"/>
<feColorMatrix type="matrix" values="0 0 0 0 0.953831 0 0 0 0 0.926389 0 0 0 0 0.958333 0 0 0 1 0"/>
<feBlend mode="normal" in2="BackgroundImageFix" result="effect1_dropShadow_2237_19"/>
<feBlend mode="normal" in="SourceGraphic" in2="effect1_dropShadow_2237_19" result="shape"/>
</filter>
</defs>
</svg>
