<svg width="156" height="27" viewBox="0 0 156 27" fill="none" xmlns="http://www.w3.org/2000/svg">
<g clip-path="url(#clip0_54543_47752)">
<path d="M44.1525 1.39197C49.63 1.39197 53.2312 3.14851 53.2312 8.17143C53.2312 11.6146 51.1369 13.7393 49.0427 14.5458C50.1064 14.9472 50.4758 15.5732 51.1 16.9284L55.1038 25.759H49.4453L46.0657 17.919C45.5856 16.8547 44.9613 16.2324 43.7868 16.2324H40.9576V25.759H35.7017V1.39197H44.1525ZM47.8275 8.72012C47.8275 5.97298 46.2467 5.53108 43.2697 5.53108H40.9539V12.4947H44.0786C46.3944 12.4947 47.8275 11.1395 47.8275 8.72012Z" fill="#0A1F44"/>
<path d="M55.9976 17.2966C55.9976 10.8449 59.307 6.63214 65.7374 6.63214C66.9858 6.63214 69.7412 6.95988 72.5003 7.9873V22.0581L72.8659 25.759H68.4928L68.201 23.8883L68.0532 23.8514C67.0597 25.3171 65.4789 26.3408 63.1999 26.3408C57.6153 26.3408 55.9976 22.0544 55.9976 17.2929V17.2966ZM67.4253 19.8965V10.6976C66.9119 10.4767 66.0661 10.2962 65.1095 10.2962C62.0956 10.2962 61.0651 13.4116 61.0651 17.002C61.0651 19.9333 61.7262 22.6068 64.3708 22.6068C66.3173 22.6068 67.4216 21.2479 67.4216 19.8965H67.4253Z" fill="#0A1F44"/>
<path d="M75.2261 24.367L76.6222 20.7397C77.9076 21.5462 80.1865 22.5699 82.0628 22.5699C83.3112 22.5699 84.3417 21.9476 84.3417 20.6293C84.3417 19.2005 83.0933 18.7623 81.5494 18.2835C78.831 17.4771 75.7801 16.5638 75.7801 12.7156C75.7801 8.86741 79.0526 6.63214 82.7646 6.63214C85.5938 6.63214 88.0943 7.72952 89.749 9.30563L87.3593 12.2737C85.8524 11.0659 84.3454 10.333 82.9862 10.333C81.771 10.333 80.7811 10.9554 80.7811 12.2037C80.7811 13.5589 82.0296 14.0708 83.7212 14.6195C86.4027 15.4996 89.4166 16.4902 89.4166 20.2647C89.4166 24.0393 86.5135 26.3077 82.2512 26.3077C78.9787 26.3077 76.2603 25.1366 75.2335 24.367H75.2261Z" fill="#0A1F44"/>
<path d="M90.8904 24.367L92.2865 20.7397C93.5719 21.5462 95.8508 22.5699 97.7271 22.5699C98.9755 22.5699 100.006 21.9476 100.006 20.6293C100.006 19.2005 98.7539 18.7623 97.2137 18.2835C94.4953 17.4771 91.4444 16.5638 91.4444 12.7156C91.4444 8.86741 94.7169 6.63214 98.4289 6.63214C101.258 6.63214 103.759 7.72952 105.413 9.30563L103.024 12.2737C101.517 11.0659 100.01 10.333 98.6505 10.333C97.4353 10.333 96.4455 10.9554 96.4455 12.2037C96.4455 13.5589 97.6939 14.0708 99.3855 14.6195C102.067 15.4996 105.081 16.4902 105.081 20.2647C105.081 24.0393 102.178 26.3077 97.9155 26.3077C94.643 26.3077 91.9246 25.1366 90.8978 24.367H90.8904Z" fill="#0A1F44"/>
<path d="M107.216 17.2966C107.216 10.8449 110.525 6.63214 116.956 6.63214C118.204 6.63214 120.963 6.95988 123.719 7.9873V22.0581L124.084 25.759H119.711L119.419 23.8883L119.272 23.8514C118.278 25.3171 116.697 26.3408 114.418 26.3408C108.834 26.3408 107.216 22.0544 107.216 17.2929V17.2966ZM118.644 19.8965V10.6976C118.13 10.4767 117.284 10.2962 116.328 10.2962C113.314 10.2962 112.283 13.4116 112.283 17.002C112.283 19.9333 112.944 22.6068 115.589 22.6068C117.536 22.6068 118.64 21.2479 118.64 19.8965H118.644Z" fill="#0A1F44"/>
<path d="M127.992 19.4951V0.290894H133.1V19.4546C133.1 21.4726 133.577 22.3122 134.936 22.3122C135.597 22.3122 136.369 22.0544 137.178 21.6898L138.282 25.0961C137.145 25.9357 135.194 26.304 133.577 26.304C128.284 26.304 127.992 22.8977 127.992 19.4914V19.4951Z" fill="#0A1F44"/>
<path d="M139.132 17.2966C139.132 10.8449 142.441 6.63214 148.871 6.63214C150.12 6.63214 152.875 6.95988 155.634 7.9873V22.0581L156 25.759H151.627L151.335 23.8883L151.187 23.8514C150.194 25.3171 148.613 26.3408 146.334 26.3408C140.749 26.3408 139.132 22.0544 139.132 17.2929V17.2966ZM150.559 19.8965V10.6976C150.046 10.4767 149.2 10.2962 148.244 10.2962C145.23 10.2962 144.199 13.4116 144.199 17.002C144.199 19.9333 144.86 22.6068 147.505 22.6068C149.451 22.6068 150.556 21.2479 150.556 19.8965H150.559Z" fill="#0A1F44"/>
<path d="M25.212 0H1.86523C0.834738 0 0 0.832242 0 1.85966V25.1367C0 26.1678 0.834738 27 1.86523 27H25.212C26.2425 27 27.081 26.1678 27.081 25.1367V1.85966C27.081 0.832242 26.2425 0 25.212 0ZM13.5405 21.642C9.03069 21.642 5.37409 17.9963 5.37409 13.5C5.37409 9.00368 9.03069 5.35802 13.5405 5.35802C18.0503 5.35802 21.7069 9.00368 21.7069 13.5C21.7069 17.9963 18.0503 21.642 13.5405 21.642Z" fill="#205DDF"/>
</g>
<defs>
<clipPath id="clip0_54543_47752">
<rect width="156" height="27" fill="white"/>
</clipPath>
</defs>
</svg>
