<svg width="363" height="259" viewBox="0 0 363 259" fill="none" xmlns="http://www.w3.org/2000/svg">
<g filter="url(#filter0_d_2115_28)">
<rect x="10" y="10" width="343" height="239" rx="6" fill="white"/>
</g>
<path d="M82.925 187L117.89 58.425H139.72L174.685 187H158.775L148.97 148.52L156.74 152.96H101.24L108.64 148.52L98.835 187H82.925ZM109.01 146.485L103.83 139.27H153.78L148.6 146.485L127.695 65.27L136.39 72.115H121.22L129.915 65.27L109.01 146.485ZM214.619 189.405C208.946 189.405 203.889 188.11 199.449 185.52C195.132 182.807 191.741 178.922 189.274 173.865C186.807 168.685 185.574 162.457 185.574 155.18C185.574 146.423 187.301 139.578 190.754 134.645C194.331 129.588 199.326 126.012 205.739 123.915C212.152 121.818 219.614 120.77 228.124 120.77H247.734C247.734 114.603 247.549 109.238 247.179 104.675C246.932 99.9883 245.946 96.535 244.219 94.315C242.986 92.5883 241.259 91.4783 239.039 90.985C236.942 90.4917 234.722 90.245 232.379 90.245C227.569 90.245 222.821 90.7383 218.134 91.725C213.571 92.5883 209.377 93.6367 205.554 94.87C201.854 96.1033 198.894 97.2133 196.674 98.2C194.454 99.0633 193.344 99.495 193.344 99.495L187.979 87.47C187.979 87.47 189.151 86.9767 191.494 85.99C193.837 84.88 196.982 83.6467 200.929 82.29C204.876 80.81 209.254 79.5767 214.064 78.59C218.997 77.48 224.054 76.925 229.234 76.925C237.621 76.925 244.281 78.59 249.214 81.92C254.147 85.1267 257.662 89.69 259.759 95.61C261.979 101.407 263.089 108.252 263.089 116.145V187H253.099L250.879 175.715H249.769C248.536 176.578 246.747 177.812 244.404 179.415C242.184 180.895 239.532 182.437 236.449 184.04C233.489 185.52 230.159 186.753 226.459 187.74C222.759 188.85 218.812 189.405 214.619 189.405ZM217.209 175.9C221.649 175.9 225.842 175.283 229.789 174.05C233.859 172.693 237.436 171.213 240.519 169.61C243.726 168.007 246.131 166.712 247.734 165.725V135.015C246.131 134.768 243.726 134.522 240.519 134.275C237.312 133.905 233.119 133.72 227.939 133.72C216.469 133.72 209.377 134.892 206.664 137.235C205.061 138.468 203.827 140.688 202.964 143.895C202.101 146.978 201.669 150.74 201.669 155.18C201.669 162.457 202.841 167.76 205.184 171.09C207.651 174.297 211.659 175.9 217.209 175.9Z" fill="black"/>
<defs>
<filter id="filter0_d_2115_28" x="0" y="0" width="363" height="259" filterUnits="userSpaceOnUse" color-interpolation-filters="sRGB">
<feFlood flood-opacity="0" result="BackgroundImageFix"/>
<feColorMatrix in="SourceAlpha" type="matrix" values="0 0 0 0 0 0 0 0 0 0 0 0 0 0 0 0 0 0 127 0" result="hardAlpha"/>
<feOffset/>
<feGaussianBlur stdDeviation="5"/>
<feComposite in2="hardAlpha" operator="out"/>
<feColorMatrix type="matrix" values="0 0 0 0 0.953831 0 0 0 0 0.926389 0 0 0 0 0.958333 0 0 0 1 0"/>
<feBlend mode="normal" in2="BackgroundImageFix" result="effect1_dropShadow_2115_28"/>
<feBlend mode="normal" in="SourceGraphic" in2="effect1_dropShadow_2115_28" result="shape"/>
</filter>
</defs>
</svg>
