<svg width="363" height="259" viewBox="0 0 363 259" fill="none" xmlns="http://www.w3.org/2000/svg">
<g filter="url(#filter0_d_2227_23)">
<rect x="10" y="10" width="343" height="239" rx="6" fill="white"/>
</g>
<path d="M83.555 187L124.625 65.64H142.015L183.085 187H166.805L145.53 119.105C143.31 112.322 141.213 105.6 139.24 98.94C137.267 92.1567 135.293 85.25 133.32 78.22H132.58C130.73 85.25 128.818 92.1567 126.845 98.94C124.872 105.6 122.775 112.322 120.555 119.105L99.095 187H83.555ZM105.015 150V137.79H161.07V150H105.015ZM223.494 189.22C218.561 189.22 214.059 188.233 209.989 186.26C206.043 184.163 202.898 181.265 200.554 177.565C198.211 173.742 197.039 169.117 197.039 163.69C197.039 153.577 201.479 145.93 210.359 140.75C219.239 135.57 233.299 131.932 252.539 129.835C252.416 126.135 251.799 122.558 250.689 119.105C249.703 115.652 247.853 112.877 245.139 110.78C242.426 108.683 238.664 107.635 233.854 107.635C228.674 107.635 223.803 108.622 219.239 110.595C214.676 112.445 210.606 114.542 207.029 116.885L201.109 106.525C203.823 104.675 207.029 102.887 210.729 101.16C214.429 99.31 218.438 97.83 222.754 96.72C227.071 95.4867 231.634 94.87 236.444 94.87C243.721 94.87 249.641 96.4117 254.204 99.495C258.891 102.455 262.283 106.71 264.379 112.26C266.599 117.81 267.709 124.347 267.709 131.87V187H255.129L253.834 176.27H253.279C248.963 179.847 244.338 182.93 239.404 185.52C234.471 187.987 229.168 189.22 223.494 189.22ZM227.749 176.64C232.189 176.64 236.321 175.653 240.144 173.68C244.091 171.707 248.223 168.808 252.539 164.985V140.75C242.426 141.983 234.409 143.587 228.489 145.56C222.693 147.41 218.499 149.753 215.909 152.59C213.319 155.427 212.024 158.818 212.024 162.765C212.024 167.698 213.566 171.275 216.649 173.495C219.733 175.592 223.433 176.64 227.749 176.64Z" fill="black"/>
<defs>
<filter id="filter0_d_2227_23" x="0" y="0" width="363" height="259" filterUnits="userSpaceOnUse" color-interpolation-filters="sRGB">
<feFlood flood-opacity="0" result="BackgroundImageFix"/>
<feColorMatrix in="SourceAlpha" type="matrix" values="0 0 0 0 0 0 0 0 0 0 0 0 0 0 0 0 0 0 127 0" result="hardAlpha"/>
<feOffset/>
<feGaussianBlur stdDeviation="5"/>
<feComposite in2="hardAlpha" operator="out"/>
<feColorMatrix type="matrix" values="0 0 0 0 0.953831 0 0 0 0 0.926389 0 0 0 0 0.958333 0 0 0 1 0"/>
<feBlend mode="normal" in2="BackgroundImageFix" result="effect1_dropShadow_2227_23"/>
<feBlend mode="normal" in="SourceGraphic" in2="effect1_dropShadow_2227_23" result="shape"/>
</filter>
</defs>
</svg>
