<svg width="146" height="58" viewBox="0 0 146 58" fill="none" xmlns="http://www.w3.org/2000/svg">
    <path
        d="M7.29094 58C10.8786 58 13.787 55.0958 13.787 51.5132C13.787 47.9306 10.8786 45.0264 7.29094 45.0264C3.70329 45.0264 0.794922 47.9306 0.794922 51.5132C0.794922 55.0958 3.70329 58 7.29094 58Z"
        fill="#AB2BC0" />
    <path
        d="M0.0303161 5.34207C0.282515 2.98391 0.794554 1.52628 2.32303 0.76312C3.24776 0.297593 6.22064 -1.0303 12.2581 1.52628C25.831 7.27286 49.7058 30.3584 46.6488 48.8421C46.3126 50.9026 45.556 55.4968 42.0634 57.2368C39.2052 58.6639 34.9636 57.9542 33.6568 55.7105C32.0213 52.9097 35.4069 49.7121 36.7137 45.7894C45.1204 20.6052 -1.37588 18.6058 0.0303161 5.34207Z"
        fill="#AB2BC0" />
    <path
        d="M31.3643 5.34207C31.6165 2.98391 32.1285 1.52628 33.657 0.76312C34.5817 0.297593 37.5546 -1.0303 43.5921 1.52628C57.165 7.27286 81.0398 30.3584 77.9828 48.8421C77.6465 50.9026 76.8899 55.4968 73.3974 57.2368C70.5391 58.6639 66.2976 57.9542 64.9908 55.7105C63.3553 52.9097 66.7409 49.7121 68.0477 45.7894C76.4543 20.6052 29.9581 18.6058 31.3643 5.34207Z"
        fill="#AB2BC0" />
    <path
        d="M131.028 21.5745C129.783 18.5218 137.433 14.271 136.141 10.7223C134.849 7.17366 126.053 7.50183 125.281 7.53235C108.98 8.17341 93.5347 23.4823 95.8733 28.5955C98.4794 34.2581 121.139 23.345 129.752 33.701C133.757 38.5165 133.374 46.3084 130.394 50.9331C122.56 63.0521 94.8645 56.2752 93.9627 50.9331C93.7029 49.4068 95.43 47.415 97.1572 47.1173C99.7862 46.6366 101.246 50.3684 104.8 52.2229C110.845 55.3518 121.376 52.3297 122.698 47.1173C123.76 42.9429 118.976 37.1505 113.749 35.6318C109.721 34.4566 107.979 36.5705 101.605 36.9063C100.291 36.975 88.7048 37.5855 86.2668 33.0905C83.2099 27.4126 94.4748 13.2484 108.002 6.28076C112.778 3.81576 125.916 -2.97634 136.118 3.09077C143.264 7.34156 148.071 17.3542 145.067 21.605C142.263 25.581 132.297 24.6882 131.028 21.5745Z"
        fill="#1E73E4" />
</svg>