<svg width="454" height="146" viewBox="0 0 454 146" fill="none" xmlns="http://www.w3.org/2000/svg">
    <g opacity="0.7">
        <path
            d="M17.2343 141.12C17.1276 141.147 17.021 141.16 16.9143 141.16C15.9543 141.16 15.4743 140.653 15.4743 139.64C15.4743 138.573 15.9676 138.04 16.9543 138.04C18.181 138.04 18.7943 138.933 18.7943 140.72C18.7943 142.667 18.0343 144.48 16.5143 146.16H15.7543L15.1543 145.68C15.821 144.933 16.3676 144.053 16.7943 143.04C17.0876 142.24 17.2343 141.6 17.2343 141.12ZM16.9543 133.52C16.5276 133.52 16.1676 133.373 15.8743 133.08C15.581 132.76 15.4343 132.4 15.4343 132C15.4343 131.573 15.581 131.227 15.8743 130.96C16.1676 130.667 16.5276 130.52 16.9543 130.52C17.3543 130.52 17.701 130.667 17.9943 130.96C18.2876 131.227 18.4343 131.573 18.4343 132C18.4343 132.427 18.2876 132.787 17.9943 133.08C17.701 133.373 17.3543 133.52 16.9543 133.52Z"
            fill="#2E272E" />
        <path
            d="M0 112.96L0.72 112.04C0.88 112.013 1.16 112 1.56 112C3.66667 112.053 5.29333 112.467 6.44 113.24C7.53333 113.96 8.08 115.267 8.08 117.16V123.84C8.05333 123.92 8.04 123.987 8.04 124.04C8.04 126.093 9.61333 127.12 12.76 127.12V129.88C9.64 129.88 8.08 130.973 8.08 133.16V139.8C8.08 141.693 7.53333 143 6.44 143.72C5.29333 144.493 3.66667 144.907 1.56 144.96C1.16 144.96 0.88 144.947 0.72 144.92L0 144V143.24C0.213333 143.267 0.453333 143.28 0.72 143.28C4.21333 143.28 5.96 142.44 5.96 140.76V132.68C6.01333 130.387 7.45333 129.027 10.28 128.6V128.36C7.4 127.933 5.96 126.6 5.96 124.36V116.2C5.96 114.52 4.21333 113.68 0.72 113.68C0.48 113.68 0.24 113.68 0 113.68V112.96Z"
            fill="#2E272E" />
        <path
            d="M451.57 85.12C451.464 85.1467 451.357 85.16 451.25 85.16C450.29 85.16 449.81 84.6533 449.81 83.64C449.81 82.5733 450.304 82.04 451.29 82.04C452.517 82.04 453.13 82.9333 453.13 84.72C453.13 86.6667 452.37 88.48 450.85 90.16H450.09L449.49 89.68C450.157 88.9333 450.704 88.0533 451.13 87.04C451.424 86.24 451.57 85.6 451.57 85.12ZM451.29 77.52C450.864 77.52 450.504 77.3733 450.21 77.08C449.917 76.76 449.77 76.4 449.77 76C449.77 75.5733 449.917 75.2267 450.21 74.96C450.504 74.6667 450.864 74.52 451.29 74.52C451.69 74.52 452.037 74.6667 452.33 74.96C452.624 75.2267 452.77 75.5733 452.77 76C452.77 76.4267 452.624 76.7867 452.33 77.08C452.037 77.3733 451.69 77.52 451.29 77.52Z"
            fill="#2E272E" />
        <path
            d="M438.374 56.16H439.294C441.134 58.3733 442.534 60.9467 443.494 63.88C444.374 66.6533 444.814 69.6133 444.814 72.76C444.814 75.8533 444.374 78.7733 443.494 81.52C442.534 84.4 441.134 86.9067 439.294 89.04H438.374L437.734 88.6C439.308 86.36 440.521 83.9333 441.374 81.32C442.254 78.5467 442.694 75.68 442.694 72.72C442.694 69.92 442.348 67.2933 441.654 64.84C440.721 61.5333 439.414 58.8 437.734 56.64L438.374 56.16Z"
            fill="#2E272E" />
        <path
            d="M427.123 59.28C427.016 59.28 426.91 59.28 426.803 59.28C426.376 59.28 426.016 59.1333 425.723 58.84C425.456 58.5467 425.323 58.1867 425.323 57.76C425.323 57.3333 425.47 56.96 425.763 56.64C426.056 56.32 426.416 56.16 426.843 56.16C428.07 56.16 428.683 57.0533 428.683 58.84C428.683 60.8133 427.923 62.6267 426.403 64.28H425.643L425.043 63.8C425.71 63.0533 426.256 62.1733 426.683 61.16C426.976 60.3867 427.123 59.76 427.123 59.28ZM432.323 59.28C432.19 59.28 432.07 59.28 431.963 59.28C431.563 59.28 431.216 59.1333 430.923 58.84C430.63 58.5467 430.483 58.1867 430.483 57.76C430.483 57.3333 430.63 56.96 430.923 56.64C431.216 56.32 431.576 56.16 432.003 56.16C433.256 56.16 433.883 57.0533 433.883 58.84C433.883 60.8133 433.11 62.6267 431.563 64.28H430.803L430.203 63.8C430.896 63.0533 431.443 62.1733 431.843 61.16C432.163 60.3867 432.323 59.76 432.323 59.28Z"
            fill="#2E272E" />
        <path
            d="M419.849 56.16V84.8H417.249V81.8C415.543 84.1733 413.316 85.36 410.569 85.36C407.636 85.36 405.329 84.2267 403.649 81.96C402.183 79.9867 401.449 77.4667 401.449 74.4C401.449 70.9333 402.396 68.1733 404.289 66.12C405.943 64.36 408.036 63.48 410.569 63.48C413.316 63.48 415.543 64.6933 417.249 67.12V56.16H419.849ZM410.649 65.76C408.463 65.76 406.769 66.64 405.569 68.4C404.529 69.92 404.009 71.9333 404.009 74.44C404.009 77.32 404.676 79.5333 406.009 81.08C407.183 82.4133 408.729 83.08 410.649 83.08C412.729 83.08 414.343 82.32 415.489 80.8C416.663 79.2533 417.249 77.12 417.249 74.4C417.249 71.5467 416.583 69.3467 415.249 67.8C414.103 66.44 412.569 65.76 410.649 65.76Z"
            fill="#2E272E" />
        <path d="M396.384 56.16V84.8H393.664V56.16H396.384Z" fill="#2E272E" />
        <path
            d="M380.266 64.04H382.826L382.706 67.76C383.746 65.0933 385.719 63.76 388.626 63.76C388.839 63.76 389.186 63.7733 389.666 63.8L389.626 66.44C389.226 66.36 388.946 66.32 388.786 66.32C386.786 66.3467 385.239 67.12 384.146 68.64C383.266 69.8667 382.826 71.6133 382.826 73.88V84.8H380.266V64.04Z"
            fill="#2E272E" />
        <path
            d="M365.54 63.48C368.607 63.48 371.02 64.6133 372.78 66.88C374.327 68.8533 375.1 71.3733 375.1 74.44C375.1 77.9333 374.114 80.6933 372.14 82.72C370.407 84.48 368.207 85.36 365.54 85.36C362.474 85.36 360.06 84.2267 358.3 81.96C356.754 79.9867 355.98 77.48 355.98 74.44C355.98 70.92 356.967 68.1467 358.94 66.12C360.674 64.36 362.874 63.48 365.54 63.48ZM365.54 65.76C363.327 65.76 361.594 66.6533 360.34 68.44C359.247 69.9867 358.7 71.9867 358.7 74.44C358.7 77.24 359.407 79.44 360.82 81.04C362.02 82.4 363.594 83.08 365.54 83.08C367.754 83.08 369.487 82.1867 370.74 80.4C371.834 78.8533 372.38 76.8667 372.38 74.44C372.38 71.64 371.674 69.44 370.26 67.84C369.034 66.4533 367.46 65.76 365.54 65.76Z"
            fill="#2E272E" />
        <path
            d="M334.94 84.8H332.34L325.9 64.04H328.74L332.86 78.08C333.127 78.9867 333.394 80.12 333.66 81.48C333.9 80.1733 334.154 79.04 334.42 78.08L338.46 64.04H341.1L344.94 78.08C345.234 79.2 345.487 80.3333 345.7 81.48C345.994 80.0133 346.26 78.88 346.5 78.08L350.82 64.04H353.7L346.78 84.8H344.3L340.62 71.44C340.3 70.2933 339.994 68.9733 339.7 67.48C339.354 69.0267 339.02 70.3467 338.7 71.44L334.94 84.8Z"
            fill="#2E272E" />
        <path
            d="M306.712 63.48C309.779 63.48 312.192 64.6133 313.952 66.88C315.499 68.8533 316.272 71.3733 316.272 74.44C316.272 77.9333 315.286 80.6933 313.312 82.72C311.579 84.48 309.379 85.36 306.712 85.36C303.646 85.36 301.232 84.2267 299.472 81.96C297.926 79.9867 297.152 77.48 297.152 74.44C297.152 70.92 298.139 68.1467 300.112 66.12C301.846 64.36 304.046 63.48 306.712 63.48ZM306.712 65.76C304.499 65.76 302.766 66.6533 301.512 68.44C300.419 69.9867 299.872 71.9867 299.872 74.44C299.872 77.24 300.579 79.44 301.992 81.04C303.192 82.4 304.766 83.08 306.712 83.08C308.926 83.08 310.659 82.1867 311.912 80.4C313.006 78.8533 313.552 76.8667 313.552 74.44C313.552 71.64 312.846 69.44 311.432 67.84C310.206 66.4533 308.632 65.76 306.712 65.76Z"
            fill="#2E272E" />
        <path d="M292.087 56.16V84.8H289.367V56.16H292.087Z" fill="#2E272E" />
        <path d="M283.103 56.16V84.8H280.383V56.16H283.103Z" fill="#2E272E" />
        <path
            d="M275.233 74.84H259.713C259.793 77.6133 260.513 79.72 261.873 81.16C263.047 82.44 264.593 83.08 266.513 83.08C269.527 83.08 271.567 81.48 272.633 78.28H275.233C273.767 83 270.833 85.36 266.433 85.36C263.367 85.36 260.993 84.2667 259.313 82.08C257.847 80.1333 257.113 77.6133 257.113 74.52C257.113 70.9733 258.073 68.1733 259.993 66.12C261.673 64.36 263.807 63.48 266.393 63.48C269.3 63.48 271.553 64.5333 273.153 66.64C274.567 68.48 275.273 70.8933 275.273 73.88C275.273 74.0667 275.26 74.3867 275.233 74.84ZM272.593 72.76C272.487 70.5733 271.887 68.8667 270.793 67.64C269.7 66.3867 268.247 65.76 266.433 65.76C264.62 65.76 263.14 66.3733 261.993 67.6C260.847 68.8 260.127 70.52 259.833 72.76H272.593Z"
            fill="#2E272E" />
        <path d="M248.871 70.84H233.151V84.8H230.311V56.16H233.151V68.4H248.871V56.16H251.711V84.8H248.871V70.84Z"
            fill="#2E272E" />
        <path
            d="M218.749 56.16L219.349 56.64C218.682 57.4133 218.136 58.2933 217.709 59.28C217.416 60.08 217.269 60.72 217.269 61.2C217.376 61.1733 217.482 61.16 217.589 61.16C218.016 61.16 218.362 61.3067 218.629 61.6C218.922 61.8933 219.069 62.2533 219.069 62.68C219.069 63.1333 218.922 63.52 218.629 63.84C218.336 64.1333 217.989 64.28 217.589 64.28C216.336 64.28 215.709 63.3867 215.709 61.6C215.709 59.6533 216.482 57.84 218.029 56.16H218.749ZM224.309 56.16L224.909 56.64C224.216 57.4133 223.669 58.2933 223.269 59.28C222.949 60.08 222.789 60.72 222.789 61.2C222.922 61.1733 223.042 61.16 223.149 61.16C223.549 61.16 223.896 61.3067 224.189 61.6C224.482 61.8933 224.629 62.2533 224.629 62.68C224.629 63.1333 224.482 63.52 224.189 63.84C223.896 64.1333 223.536 64.28 223.109 64.28C221.882 64.28 221.269 63.3867 221.269 61.6C221.269 59.6533 222.029 57.84 223.549 56.16H224.309Z"
            fill="#2E272E" />
        <path
            d="M211.155 56.16L211.795 56.64C210.115 58.8267 208.822 61.56 207.915 64.84C207.195 67.2933 206.835 69.92 206.835 72.72C206.835 75.68 207.288 78.5467 208.195 81.32C209.022 83.9333 210.221 86.36 211.795 88.6L211.155 89.04H210.275C208.408 86.9067 207.008 84.4 206.075 81.52C205.168 78.7733 204.715 75.8533 204.715 72.76C204.715 69.64 205.168 66.68 206.075 63.88C207.008 60.9467 208.408 58.3733 210.275 56.16H211.155Z"
            fill="#2E272E" />
        <path
            d="M196.161 64.04H198.601V82.48C198.601 85.7067 197.921 88.0133 196.561 89.4C194.881 91.1067 192.494 91.96 189.401 91.96C186.921 91.96 184.961 91.4 183.521 90.28C182.241 89.2933 181.521 88 181.361 86.4H184.121C184.334 88.56 186.108 89.64 189.441 89.64C193.921 89.64 196.161 87.3733 196.161 82.84V80.96C194.268 83.3067 191.974 84.48 189.281 84.48C186.401 84.48 184.094 83.3867 182.361 81.2C180.868 79.28 180.121 76.9067 180.121 74.08C180.121 70.7733 181.108 68.1067 183.081 66.08C184.788 64.3467 186.894 63.48 189.401 63.48C192.254 63.48 194.508 64.68 196.161 67.08V64.04ZM189.521 65.76C187.574 65.76 185.948 66.52 184.641 68.04C183.441 69.48 182.841 71.4533 182.841 73.96C182.841 76.6 183.534 78.68 184.921 80.2C186.121 81.5067 187.654 82.16 189.521 82.16C191.654 82.16 193.334 81.32 194.561 79.64C195.628 78.1467 196.161 76.2533 196.161 73.96C196.161 71.4267 195.561 69.4533 194.361 68.04C193.054 66.52 191.441 65.76 189.521 65.76Z"
            fill="#2E272E" />
        <path
            d="M166.595 63.48C169.662 63.48 172.075 64.6133 173.835 66.88C175.382 68.8533 176.155 71.3733 176.155 74.44C176.155 77.9333 175.168 80.6933 173.195 82.72C171.462 84.48 169.262 85.36 166.595 85.36C163.528 85.36 161.115 84.2267 159.355 81.96C157.808 79.9867 157.035 77.48 157.035 74.44C157.035 70.92 158.022 68.1467 159.995 66.12C161.728 64.36 163.928 63.48 166.595 63.48ZM166.595 65.76C164.382 65.76 162.648 66.6533 161.395 68.44C160.302 69.9867 159.755 71.9867 159.755 74.44C159.755 77.24 160.462 79.44 161.875 81.04C163.075 82.4 164.648 83.08 166.595 83.08C168.808 83.08 170.542 82.1867 171.795 80.4C172.888 78.8533 173.435 76.8667 173.435 74.44C173.435 71.64 172.728 69.44 171.315 67.84C170.088 66.4533 168.515 65.76 166.595 65.76Z"
            fill="#2E272E" />
        <path d="M151.97 56.16V84.8H149.25V56.16H151.97Z" fill="#2E272E" />
        <path
            d="M142.618 82C143.018 82 143.364 82.1467 143.658 82.44C143.951 82.7333 144.098 83.08 144.098 83.48C144.098 83.9067 143.951 84.2667 143.658 84.56C143.364 84.8533 143.018 85 142.618 85C142.191 85 141.831 84.8533 141.538 84.56C141.244 84.2667 141.098 83.9067 141.098 83.48C141.098 83.08 141.244 82.7333 141.538 82.44C141.831 82.1467 142.191 82 142.618 82Z"
            fill="#2E272E" />
        <path
            d="M137.069 74.84H121.549C121.629 77.6133 122.349 79.72 123.709 81.16C124.883 82.44 126.429 83.08 128.349 83.08C131.363 83.08 133.403 81.48 134.469 78.28H137.069C135.603 83 132.669 85.36 128.269 85.36C125.203 85.36 122.829 84.2667 121.149 82.08C119.683 80.1333 118.949 77.6133 118.949 74.52C118.949 70.9733 119.909 68.1733 121.829 66.12C123.509 64.36 125.643 63.48 128.229 63.48C131.136 63.48 133.389 64.5333 134.989 66.64C136.403 68.48 137.109 70.8933 137.109 73.88C137.109 74.0667 137.096 74.3867 137.069 74.84ZM134.429 72.76C134.323 70.5733 133.723 68.8667 132.629 67.64C131.536 66.3867 130.083 65.76 128.269 65.76C126.456 65.76 124.976 66.3733 123.829 67.6C122.683 68.8 121.963 70.52 121.669 72.76H134.429Z"
            fill="#2E272E" />
        <path d="M113.884 56.16V84.8H111.164V56.16H113.884Z" fill="#2E272E" />
        <path
            d="M96.4389 63.48C99.5056 63.48 101.919 64.6133 103.679 66.88C105.226 68.8533 105.999 71.3733 105.999 74.44C105.999 77.9333 105.012 80.6933 103.039 82.72C101.306 84.48 99.1056 85.36 96.4389 85.36C93.3722 85.36 90.9589 84.2267 89.1989 81.96C87.6522 79.9867 86.8789 77.48 86.8789 74.44C86.8789 70.92 87.8656 68.1467 89.8389 66.12C91.5722 64.36 93.7722 63.48 96.4389 63.48ZM96.4389 65.76C94.2256 65.76 92.4922 66.6533 91.2389 68.44C90.1456 69.9867 89.5989 71.9867 89.5989 74.44C89.5989 77.24 90.3056 79.44 91.7189 81.04C92.9189 82.4 94.4922 83.08 96.4389 83.08C98.6522 83.08 100.386 82.1867 101.639 80.4C102.732 78.8533 103.279 76.8667 103.279 74.44C103.279 71.64 102.572 69.44 101.159 67.84C99.9322 66.4533 98.3589 65.76 96.4389 65.76Z"
            fill="#2E272E" />
        <path
            d="M82.8844 70.04H80.0444C79.5644 67.1867 77.8177 65.76 74.8044 65.76C71.551 65.76 69.9244 66.96 69.9244 69.36C69.9244 70.88 70.951 71.88 73.0044 72.36L78.1244 73.6C81.4044 74.3733 83.0444 76.0933 83.0444 78.76C83.0444 80.92 82.2177 82.6 80.5644 83.8C79.1244 84.84 77.271 85.36 75.0044 85.36C71.8844 85.36 69.5777 84.4667 68.0844 82.68C67.471 81.9333 67.0577 81.3067 66.8444 80.8C66.631 80.2667 66.511 79.5333 66.4844 78.6H69.4044C69.511 80.2 70.0044 81.3467 70.8844 82.04C71.7644 82.7333 73.1777 83.08 75.1244 83.08C76.7244 83.08 77.991 82.72 78.9244 82C79.8577 81.28 80.3244 80.3067 80.3244 79.08C80.3244 77.48 79.2177 76.4267 77.0044 75.92L71.9644 74.72C68.791 73.9733 67.2044 72.2133 67.2044 69.44C67.2044 67.6 67.8844 66.1467 69.2444 65.08C70.631 64.0133 72.511 63.48 74.8844 63.48C77.391 63.48 79.3777 64.1733 80.8444 65.56C82.071 66.7333 82.751 68.2267 82.8844 70.04Z"
            fill="#2E272E" />
        <path
            d="M45.6953 64.04H48.2553V67C49.8553 64.6533 52.0153 63.48 54.7353 63.48C57.1353 63.48 58.9486 64.2 60.1753 65.64C61.1086 66.7333 61.5753 68.4 61.5753 70.64V84.8H59.0153V71.2C59.0153 69.28 58.682 67.9467 58.0153 67.2C57.2153 66.24 56.0153 65.76 54.4153 65.76C52.6286 65.76 51.1353 66.3733 49.9353 67.6C48.8153 68.72 48.2553 70.3867 48.2553 72.6V84.8H45.6953V64.04Z"
            fill="#2E272E" />
        <path
            d="M30.9702 63.48C34.0368 63.48 36.4502 64.6133 38.2102 66.88C39.7568 68.8533 40.5302 71.3733 40.5302 74.44C40.5302 77.9333 39.5435 80.6933 37.5702 82.72C35.8368 84.48 33.6368 85.36 30.9702 85.36C27.9035 85.36 25.4902 84.2267 23.7302 81.96C22.1835 79.9867 21.4102 77.48 21.4102 74.44C21.4102 70.92 22.3968 68.1467 24.3702 66.12C26.1035 64.36 28.3035 63.48 30.9702 63.48ZM30.9702 65.76C28.7568 65.76 27.0235 66.6533 25.7702 68.44C24.6768 69.9867 24.1302 71.9867 24.1302 74.44C24.1302 77.24 24.8368 79.44 26.2502 81.04C27.4502 82.4 29.0235 83.08 30.9702 83.08C33.1835 83.08 34.9168 82.1867 36.1702 80.4C37.2635 78.8533 37.8102 76.8667 37.8102 74.44C37.8102 71.64 37.1035 69.44 35.6902 67.84C34.4635 66.4533 32.8902 65.76 30.9702 65.76Z"
            fill="#2E272E" />
        <path
            d="M17.8411 70.48H15.2411C14.9744 68.9867 14.3344 67.8267 13.3211 67C12.3078 66.1733 11.0278 65.76 9.48109 65.76C7.24109 65.76 5.50776 66.6267 4.28109 68.36C3.21443 69.88 2.68109 71.8533 2.68109 74.28C2.68109 77.16 3.38776 79.4 4.80109 81C6.02776 82.3867 7.61443 83.08 9.5611 83.08C12.8678 83.08 14.8411 81.2267 15.4811 77.52H17.9611C17.5344 80.1867 16.4944 82.2133 14.8411 83.6C13.3744 84.7733 11.5744 85.36 9.44109 85.36C6.40109 85.36 4.02776 84.2533 2.32109 82.04C0.854427 80.0933 0.121094 77.5733 0.121094 74.48C0.121094 70.9333 1.10776 68.1467 3.08109 66.12C4.78776 64.36 6.96109 63.48 9.60109 63.48C12.0011 63.48 13.9611 64.1867 15.4811 65.6C16.7878 66.8533 17.5744 68.48 17.8411 70.48Z"
            fill="#2E272E" />
        <path
            d="M373.85 0.039999L374.53 0.959999V1.68C374.29 1.68 374.063 1.68 373.85 1.68C370.33 1.68 368.57 2.52 368.57 4.2V12.36C368.57 14.6 367.143 15.9333 364.29 16.36V16.6C367.116 17.0267 368.543 18.3867 368.57 20.68V28.76C368.57 30.44 370.33 31.28 373.85 31.28C374.116 31.28 374.343 31.2667 374.53 31.24V32L373.85 32.92C373.663 32.9467 373.383 32.96 373.01 32.96C370.903 32.9067 369.263 32.4933 368.09 31.72C367.023 31 366.49 29.6933 366.49 27.8V21.16C366.49 18.9733 364.916 17.88 361.77 17.88V15.12C364.916 15.12 366.49 14.0933 366.49 12.04C366.49 11.9867 366.49 11.92 366.49 11.84V5.16C366.49 3.26667 367.023 1.96 368.09 1.24C369.236 0.466666 370.876 0.0533326 373.01 0C373.383 0 373.663 0.0133327 373.85 0.039999Z"
            fill="#2E272E" />
        <path d="M335.348 6.2L352.108 14.92V16.4L335.348 24.08V21.72L349.508 15.56L335.348 8.52V6.2Z" fill="#2E272E" />
        <path d="M331.877 15.04V17.16H315.117V15.04H331.877ZM331.877 22.76V24.92H315.117V22.76H331.877Z"
            fill="#2E272E" />
        <path
            d="M303.882 0.160004H304.802C306.642 2.37334 308.042 4.94667 309.002 7.88C309.882 10.6533 310.322 13.6133 310.322 16.76C310.322 19.8533 309.882 22.7733 309.002 25.52C308.042 28.4 306.642 30.9067 304.802 33.04H303.882L303.242 32.6C304.816 30.36 306.029 27.9333 306.882 25.32C307.762 22.5467 308.202 19.68 308.202 16.72C308.202 13.92 307.856 11.2933 307.162 8.84C306.229 5.53334 304.922 2.8 303.242 0.640003L303.882 0.160004Z"
            fill="#2E272E" />
        <path
            d="M298.928 0.160004L299.568 0.640003C297.888 2.82667 296.595 5.56 295.688 8.84C294.968 11.2933 294.608 13.92 294.608 16.72C294.608 19.68 295.062 22.5467 295.968 25.32C296.795 27.9333 297.995 30.36 299.568 32.6L298.928 33.04H298.048C296.182 30.9067 294.782 28.4 293.848 25.52C292.942 22.7733 292.488 19.8533 292.488 16.76C292.488 13.64 292.942 10.68 293.848 7.88C294.782 4.94667 296.182 2.37334 298.048 0.160004H298.928Z"
            fill="#2E272E" />
        <path d="M280.354 15.04V17.16H263.594V15.04H280.354ZM280.354 22.76V24.92H263.594V22.76H280.354Z"
            fill="#2E272E" />
        <path
            d="M243.375 7.8C246.468 7.8 248.828 8.88 250.455 11.04C251.895 12.9067 252.615 15.44 252.615 18.64C252.615 22.2133 251.681 24.9333 249.815 26.8C248.215 28.4267 246.055 29.24 243.335 29.24C240.188 29.24 237.788 28.1867 236.135 26.08C234.695 24.24 233.975 21.76 233.975 18.64C233.975 15.0133 234.921 12.2267 236.815 10.28C238.441 8.62667 240.628 7.8 243.375 7.8ZM243.375 10.8C241.508 10.8 240.041 11.5067 238.975 12.92C237.908 14.3067 237.375 16.2133 237.375 18.64C237.375 21.1733 237.975 23.1067 239.175 24.44C240.215 25.6133 241.601 26.2 243.335 26.2C245.175 26.2 246.601 25.5333 247.615 24.2C248.655 22.8667 249.175 21.0133 249.175 18.64C249.175 16.0267 248.588 14.0267 247.415 12.64C246.401 11.4133 245.055 10.8 243.375 10.8Z"
            fill="#2E272E" />
        <path d="M229.823 0.160004V28.8H226.543V0.160004H229.823Z" fill="#2E272E" />
        <path d="M221.112 0.160004V28.8H217.832V0.160004H221.112Z" fill="#2E272E" />
        <path
            d="M213.437 19.48H198.277C198.304 21.24 198.677 22.64 199.397 23.68C200.544 25.36 202.197 26.2 204.357 26.2C207.024 26.2 208.824 24.9333 209.757 22.4H213.037C212.61 24.56 211.624 26.24 210.077 27.44C208.53 28.64 206.584 29.24 204.237 29.24C201.117 29.24 198.73 28.1733 197.077 26.04C195.61 24.1733 194.877 21.7067 194.877 18.64C194.877 15.0933 195.837 12.3333 197.757 10.36C199.437 8.65334 201.61 7.8 204.277 7.8C206.224 7.8 207.93 8.26667 209.397 9.2C210.89 10.1333 211.957 11.4133 212.597 13.04C213.157 14.4267 213.437 16.5333 213.437 19.36V19.48ZM209.917 16.8C209.917 15.0133 209.384 13.5733 208.317 12.48C207.277 11.36 205.93 10.8 204.277 10.8C202.597 10.8 201.224 11.3467 200.157 12.44C199.117 13.5067 198.53 14.96 198.397 16.8H209.917Z"
            fill="#2E272E" />
        <path
            d="M186.597 15.76H171.837V28.8H168.197V0.160004H171.837V12.52H186.597V0.160004H190.237V28.8H186.597V15.76Z"
            fill="#2E272E" />
        <path
            d="M160.589 8.24001H164.109L154.949 33.12C153.883 35.9467 152.109 37.36 149.629 37.36C148.456 37.36 147.429 37.0933 146.549 36.56L147.189 33.72C147.856 33.9867 148.509 34.12 149.149 34.12C150.429 34.12 151.323 33.4533 151.829 32.12L153.069 28.84L146.109 8.24001H149.629L154.869 24.24L160.589 8.24001Z"
            fill="#2E272E" />
        <path
            d="M144.473 26.04V28.68C143.567 29 142.86 29.16 142.353 29.16C140.22 29.16 139.06 28.1867 138.873 26.24C137.407 28.24 135.073 29.24 131.873 29.24C129.66 29.24 127.94 28.6267 126.713 27.4C125.647 26.3333 125.113 24.96 125.113 23.28C125.113 21.36 125.793 19.88 127.153 18.84C127.927 18.2533 129.54 17.68 131.993 17.12L138.713 15.6L138.753 13.88C138.753 11.8267 137.207 10.8 134.113 10.8C131.153 10.8 129.567 12 129.353 14.4H126.033C126.113 12.5867 126.567 11.2 127.393 10.24C128.807 8.61334 131.1 7.8 134.273 7.8C139.42 7.8 141.993 9.66667 141.993 13.4V24.88C141.993 25.8933 142.433 26.4 143.313 26.4C143.42 26.4 143.7 26.32 144.153 26.16C144.313 26.1067 144.42 26.0667 144.473 26.04ZM138.753 18.28L133.473 19.64C131.58 20.12 130.273 20.6133 129.553 21.12C128.86 21.6267 128.513 22.3333 128.513 23.24C128.513 25.3467 129.873 26.4 132.593 26.4C134.513 26.4 136.14 25.7733 137.473 24.52C138.327 23.7467 138.753 22.8667 138.753 21.88V18.28Z"
            fill="#2E272E" />
        <path
            d="M121.184 13.88H117.584C117.478 11.8267 116.104 10.8 113.464 10.8C112.104 10.8 111.024 11.0667 110.224 11.6C109.451 12.1067 109.064 12.8 109.064 13.68C109.064 15.0133 110.331 15.9733 112.864 16.56L116.024 17.28C118.078 17.76 119.558 18.44 120.464 19.32C121.371 20.2 121.824 21.4 121.824 22.92C121.824 24.8667 121.064 26.4133 119.544 27.56C118.024 28.68 115.971 29.24 113.384 29.24C110.558 29.24 108.411 28.5733 106.944 27.24C105.718 26.1467 105.064 24.6933 104.984 22.88H108.704C108.918 23.8133 109.211 24.4933 109.584 24.92C110.304 25.7733 111.651 26.2 113.624 26.2C115.091 26.2 116.251 25.9333 117.104 25.4C117.984 24.84 118.424 24.1067 118.424 23.2C118.424 21.84 117.371 20.9067 115.264 20.4L112.184 19.68C109.838 19.12 108.198 18.4533 107.264 17.68C106.198 16.8 105.664 15.5333 105.664 13.88C105.664 12.0133 106.371 10.5333 107.784 9.44C109.224 8.34667 111.144 7.8 113.544 7.8C116.051 7.8 117.998 8.42667 119.384 9.68C120.584 10.7733 121.184 12.1733 121.184 13.88Z"
            fill="#2E272E" />
        <path
            d="M95.2778 8.04V10.12H91.4378V24.76C91.4378 25.4533 91.5445 25.9333 91.7578 26.2C91.9978 26.44 92.4112 26.56 92.9978 26.56C93.6645 26.56 94.3978 26.4267 95.1978 26.16L95.6378 28.56C94.1978 28.9067 93.0245 29.08 92.1178 29.08C90.8645 29.08 89.9845 28.7733 89.4778 28.16C88.9711 27.5467 88.7178 26.4933 88.7178 25V10.12H85.7578V8.04H88.7178V3.76L91.4378 2V8.04H95.2778Z"
            fill="#2E272E" />
        <path
            d="M82.8844 14.04H80.0444C79.5644 11.1867 77.8177 9.76 74.8044 9.76C71.551 9.76 69.9244 10.96 69.9244 13.36C69.9244 14.88 70.951 15.88 73.0044 16.36L78.1244 17.6C81.4044 18.3733 83.0444 20.0933 83.0444 22.76C83.0444 24.92 82.2177 26.6 80.5644 27.8C79.1244 28.84 77.271 29.36 75.0044 29.36C71.8844 29.36 69.5777 28.4667 68.0844 26.68C67.471 25.9333 67.0577 25.3067 66.8444 24.8C66.631 24.2667 66.511 23.5333 66.4844 22.6H69.4044C69.511 24.2 70.0044 25.3467 70.8844 26.04C71.7644 26.7333 73.1777 27.08 75.1244 27.08C76.7244 27.08 77.991 26.72 78.9244 26C79.8577 25.28 80.3244 24.3067 80.3244 23.08C80.3244 21.48 79.2177 20.4267 77.0044 19.92L71.9644 18.72C68.791 17.9733 67.2044 16.2133 67.2044 13.44C67.2044 11.6 67.8844 10.1467 69.2444 9.08C70.631 8.01334 72.511 7.48 74.8844 7.48C77.391 7.48 79.3777 8.17334 80.8444 9.56C82.071 10.7333 82.751 12.2267 82.8844 14.04Z"
            fill="#2E272E" />
        <path
            d="M45.6953 8.04H48.2553V11C49.8553 8.65334 52.0153 7.48 54.7353 7.48C57.1353 7.48 58.9486 8.2 60.1753 9.64C61.1086 10.7333 61.5753 12.4 61.5753 14.64V28.8H59.0153V15.2C59.0153 13.28 58.682 11.9467 58.0153 11.2C57.2153 10.24 56.0153 9.76 54.4153 9.76C52.6286 9.76 51.1353 10.3733 49.9353 11.6C48.8153 12.72 48.2553 14.3867 48.2553 16.6V28.8H45.6953V8.04Z"
            fill="#2E272E" />
        <path
            d="M30.9702 7.48C34.0368 7.48 36.4502 8.61334 38.2102 10.88C39.7568 12.8533 40.5302 15.3733 40.5302 18.44C40.5302 21.9333 39.5435 24.6933 37.5702 26.72C35.8368 28.48 33.6368 29.36 30.9702 29.36C27.9035 29.36 25.4902 28.2267 23.7302 25.96C22.1835 23.9867 21.4102 21.48 21.4102 18.44C21.4102 14.92 22.3968 12.1467 24.3702 10.12C26.1035 8.36 28.3035 7.48 30.9702 7.48ZM30.9702 9.76C28.7568 9.76 27.0235 10.6533 25.7702 12.44C24.6768 13.9867 24.1302 15.9867 24.1302 18.44C24.1302 21.24 24.8368 23.44 26.2502 25.04C27.4502 26.4 29.0235 27.08 30.9702 27.08C33.1835 27.08 34.9168 26.1867 36.1702 24.4C37.2635 22.8533 37.8102 20.8667 37.8102 18.44C37.8102 15.64 37.1035 13.44 35.6902 11.84C34.4635 10.4533 32.8902 9.76 30.9702 9.76Z"
            fill="#2E272E" />
        <path
            d="M17.8411 14.48H15.2411C14.9744 12.9867 14.3344 11.8267 13.3211 11C12.3078 10.1733 11.0278 9.76 9.48109 9.76C7.24109 9.76 5.50776 10.6267 4.28109 12.36C3.21443 13.88 2.68109 15.8533 2.68109 18.28C2.68109 21.16 3.38776 23.4 4.80109 25C6.02776 26.3867 7.61443 27.08 9.5611 27.08C12.8678 27.08 14.8411 25.2267 15.4811 21.52H17.9611C17.5344 24.1867 16.4944 26.2133 14.8411 27.6C13.3744 28.7733 11.5744 29.36 9.44109 29.36C6.40109 29.36 4.02776 28.2533 2.32109 26.04C0.854427 24.0933 0.121094 21.5733 0.121094 18.48C0.121094 14.9333 1.10776 12.1467 3.08109 10.12C4.78776 8.36 6.96109 7.48 9.60109 7.48C12.0011 7.48 13.9611 8.18667 15.4811 9.6C16.7878 10.8533 17.5744 12.48 17.8411 14.48Z"
            fill="#2E272E" />
    </g>
</svg>