<?xml version="1.0" encoding="utf-8"?>
<svg xmlns="http://www.w3.org/2000/svg">
<symbol id="arrow-scroll" viewBox="0 0 34 81">
    <path d="M3.5 2C3.5 1.17157 2.82843 0.5 2 0.5C1.17157 0.5 0.5 1.17157 0.5 2H3.5ZM21.0063 79.7872C21.5921 80.373 22.5418 80.373 23.1276 79.7872L32.6735 70.2413C33.2593 69.6555 33.2593 68.7057 32.6735 68.12C32.0878 67.5342 31.138 67.5342 30.5522 68.12L22.0669 76.6052L13.5817 68.12C12.9959 67.5342 12.0461 67.5342 11.4603 68.12C10.8746 68.7057 10.8746 69.6555 11.4603 70.2413L21.0063 79.7872ZM0.5 2C0.5 6.68099 2.93414 12.8834 6.47724 17.8707C9.98187 22.8039 14.9798 27.1082 20.4275 27.1082V24.1082C16.5054 24.1082 12.2896 20.8722 8.9229 16.1333C5.5947 11.4485 3.5 5.84681 3.5 2H0.5ZM20.4275 27.1082C23.5332 27.1082 25.8479 25.8849 27.2291 23.8758C28.5687 21.9271 28.8929 19.4409 28.5025 17.0987C27.7307 12.4682 23.9712 7.58245 17.9355 7.58245V10.5825C22.0925 10.5825 24.9379 13.9596 25.5433 17.5919C25.8415 19.3811 25.5474 21.0264 24.7569 22.1763C24.0079 23.2658 22.6806 24.1082 20.4275 24.1082V27.1082ZM17.9355 7.58245C15.5979 7.58245 14.1792 9.24665 13.3979 11.2365C12.6231 13.2094 12.2832 15.8929 12.2047 18.9306C12.0465 25.0467 12.9422 33.1988 14.1828 41.4738C15.4266 49.7692 17.0321 58.281 18.3216 65.1371C18.9676 68.5717 19.5327 71.582 19.9366 73.9544C20.3493 76.379 20.5669 77.9949 20.5669 78.7266H23.5669C23.5669 77.6895 23.2943 75.8024 22.894 73.451C22.4849 71.0475 21.9144 68.0088 21.2699 64.5826C19.9786 57.7172 18.3838 49.2601 17.1497 41.0289C15.9125 32.7772 15.0527 24.8449 15.2037 19.0082C15.2797 16.0695 15.6105 13.8095 16.1903 12.3331C16.7634 10.8735 17.3831 10.5825 17.9355 10.5825V7.58245Z" fill="currentColor"/>

</symbol>
<symbol id="arrow" viewBox="0 0 34 113">
    <path d="M13.5838 3.1094C14.1965 2.55184 14.2412 1.60314 13.6836 0.990434C13.1261 0.377727 12.1774 0.333028 11.5647 0.890596L13.5838 3.1094ZM12.4009 42.786L11.42 43.9209L12.4009 42.786ZM32.3262 35.386L30.8869 34.9636L32.3262 35.386ZM26.9333 29.5444L27.6465 30.8639L26.9333 29.5444ZM2.41877 68.2684L0.932743 68.0641L2.41877 68.2684ZM30.3803 101.562C30.922 100.936 30.8531 99.9883 30.2263 99.4466L20.0127 90.6187C19.386 90.0769 18.4387 90.1459 17.897 90.7726C17.3553 91.3994 17.4242 92.3466 18.051 92.8884L27.1297 100.735L19.2827 109.814C18.741 110.441 18.8099 111.388 19.4367 111.93C20.0634 112.472 21.0107 112.403 21.5524 111.776L30.3803 101.562ZM11.5647 0.890596C6.08491 5.8772 3.18984 14.1354 3.03402 22.2607C2.87814 30.3894 5.45895 38.7686 11.42 43.9209L13.3818 41.6512C8.30916 37.2668 5.8884 29.8833 6.03347 22.3183C6.17861 14.75 8.88704 7.38348 13.5838 3.1094L11.5647 0.890596ZM11.42 43.9209C15.3715 47.3363 20.3912 47.4754 24.6213 45.7271C28.8219 43.991 32.4384 40.33 33.7655 35.8084L30.8869 34.9636C29.8425 38.522 26.9285 41.5275 23.4754 42.9546C20.0518 44.3696 16.2945 44.1688 13.3818 41.6512L11.42 43.9209ZM33.7655 35.8084C34.3657 33.7632 33.7033 31.345 32.4406 29.7205C31.7895 28.8829 30.9008 28.1517 29.7987 27.8134C28.6591 27.4636 27.4204 27.576 26.2201 28.2248L27.6465 30.8639C28.1754 30.5781 28.5853 30.5791 28.9183 30.6813C29.289 30.7951 29.6972 31.0796 30.072 31.5617C30.8608 32.5765 31.1657 34.0137 30.8869 34.9636L33.7655 35.8084ZM26.2201 28.2248C20.3721 31.3854 14.4646 38.4991 9.86713 46.0724C5.25546 53.6692 1.75662 62.0701 0.932743 68.0641L3.9048 68.4726C4.64951 63.0546 7.9214 55.0588 12.4316 47.6292C16.956 40.1762 22.5214 33.6339 27.6465 30.8639L26.2201 28.2248ZM0.932743 68.0641C-0.0656299 75.3277 2.51989 84.101 7.50987 90.8865C12.5159 97.6938 20.1387 102.748 29.3543 102.077L29.1366 99.0854C21.2537 99.659 14.5273 95.3653 9.92671 89.1092C5.31007 82.8314 3.03152 74.8261 3.9048 68.4726L0.932743 68.0641Z" fill="currentColor"/>

</symbol>
<symbol id="circle" viewBox="0 0 33 33">
    <circle cx="16.5" cy="16.5" r="16.5" fill="currentColor"/>

</symbol>
<symbol id="emoticon-happy" viewBox="0 0 163 163">
    <path d="M120.047 65.7417C115.878 55.5072 107.815 47.3476 97.6313 43.0581C87.4472 38.7685 75.9761 38.7002 65.7416 42.8683C55.5071 47.0364 47.3476 55.0994 43.058 65.2835C38.7684 75.4677 38.7001 86.9388 42.8682 97.1733C47.0363 107.408 55.0993 115.567 65.2835 119.857C75.4676 124.146 86.9387 124.215 97.1732 120.047C107.408 115.879 115.567 107.816 119.857 97.6314C124.146 87.4472 124.215 75.9762 120.047 65.7417ZM129.694 61.8127C134.904 74.6058 134.819 88.9447 129.457 101.675C124.095 114.405 113.895 124.484 101.102 129.694C94.7676 132.274 87.987 133.581 81.1475 133.54C74.3079 133.499 67.5433 132.112 61.24 129.457C48.5098 124.095 38.431 113.895 33.2209 101.102C28.0108 88.3091 28.0961 73.9702 33.4581 61.2401C38.8201 48.5099 49.0195 38.4311 61.8127 33.221C68.1472 30.6412 74.9278 29.3344 81.7673 29.3751C88.6069 29.4158 95.3715 30.8032 101.675 33.4582C107.978 36.1132 113.697 39.9837 118.504 44.8488C123.312 49.7139 127.114 55.4782 129.694 61.8127ZM66.8989 73.3273C68.4705 77.1862 66.4691 81.9379 62.6101 83.5095C58.7512 85.0811 53.9995 83.0796 52.428 79.2207C50.8564 75.3618 52.8578 70.6101 56.7167 69.0385C60.5756 67.467 65.3273 69.4684 66.8989 73.3273ZM100.664 59.576C102.236 63.4349 100.235 68.1866 96.3757 69.7582C92.5168 71.3297 87.7651 69.3283 86.1935 65.4694C84.6219 61.6105 86.6233 56.8588 90.4823 55.2872C94.3412 53.7156 99.0929 55.7171 100.664 59.576ZM91.7316 106.685C83.2902 110.123 74.4277 109.627 67.9648 106.185L72.0248 96.5464C75.6099 99.1354 81.7731 99.4934 87.8026 97.0378C93.8322 94.5823 97.9916 90.0202 98.7478 85.6632L108.387 89.7232C106.167 96.7008 100.173 103.247 91.7316 106.685Z" fill="currentColor"/>

</symbol>
<symbol id="figma-logo" viewBox="0 0 77 88">
    <path d="M39.835 44.6662C41.1155 42.1049 43.3611 40.1571 46.0777 39.2514C48.7942 38.3457 51.7594 38.5562 54.3207 39.8367C56.8821 41.1172 58.8299 43.3628 59.7356 46.0794C60.6413 48.796 60.4307 51.7611 59.1502 54.3224C57.8697 56.8838 55.6242 58.8316 52.9076 59.7373C50.191 60.643 47.2259 60.4324 44.6645 59.1519C42.1032 57.8715 40.1554 55.6259 39.2497 52.9093C38.344 50.1927 38.5545 47.2276 39.835 44.6662Z" stroke="currentColor" stroke-width="3"/>
    <path d="M6.83893 55.6671C8.11942 53.1057 10.365 51.158 13.0816 50.2523C15.7982 49.3465 18.7633 49.5571 21.3246 50.8376L30.9822 55.6657L26.1541 65.3233C24.8736 67.8846 22.6281 69.8324 19.9115 70.7381C17.1949 71.6438 14.2298 71.4333 11.6684 70.1528C9.10708 68.8723 7.15931 66.6268 6.2536 63.9102C5.34789 61.1936 5.55844 58.2285 6.83893 55.6671Z" stroke="currentColor" stroke-width="3"/>
    <path d="M55.6626 37.1534L46.005 32.3253L55.6612 13.0101L65.3188 17.8382C67.8801 19.1187 69.8279 21.3642 70.7336 24.0808C71.6393 26.7974 71.4288 29.7625 70.1483 32.3239C68.8678 34.8853 66.6222 36.833 63.9057 37.7387C61.1891 38.6444 58.2239 38.4339 55.6626 37.1534Z" stroke="currentColor" stroke-width="3"/>
    <path d="M28.2497 19.9131C27.344 17.1965 27.5545 14.2314 28.835 11.67C30.1155 9.10867 32.3611 7.16089 35.0777 6.25519C37.7942 5.34948 40.7594 5.56003 43.3207 6.84052L52.9783 11.6686L43.3221 30.9838L33.6645 26.1557C31.1032 24.8752 29.1554 22.6297 28.2497 19.9131Z" stroke="currentColor" stroke-width="3"/>
    <path d="M17.2516 41.9116C16.3459 39.195 16.5565 36.2299 17.837 33.6686C19.1175 31.1072 21.363 29.1594 24.0796 28.2537C26.7962 27.348 29.7613 27.5586 32.3227 28.8391L41.9803 33.6672L32.3241 52.9824L22.6665 48.1543C20.1051 46.8738 18.1574 44.6282 17.2516 41.9116Z" stroke="currentColor" stroke-width="3"/>

</symbol>
<symbol id="rectangle-rounded" viewBox="0 0 73 69">
    <rect x="56.0781" y="-7" width="36.1831" height="84.4273" rx="18.0916" transform="rotate(48.3427 56.0781 -7)" fill="currentColor"/>

</symbol>
<symbol id="star" viewBox="0 0 47 45">
    <path d="M23.5 3.23607L28.0495 17.2381L28.274 17.9291H29.0006L43.7232 17.9291L31.8124 26.5828L31.2246 27.0099L31.4491 27.7008L35.9986 41.7029L24.0878 33.0492L23.5 32.6221L22.9122 33.0492L11.0014 41.7029L15.5509 27.7008L15.7754 27.0099L15.1876 26.5828L3.2768 17.9291L17.9994 17.9291H18.726L18.9505 17.2381L23.5 3.23607Z" stroke="currentColor" stroke-width="2"/>

</symbol>
<symbol id="text-highlight" viewBox="0 0 391 19">
    <path d="M390.766 8.4735C390.509 8.91812 384.817 8.99716 374.836 8.76003C372.347 8.70075 369.573 8.62171 366.541 8.53278C363.51 8.46362 360.221 8.38458 356.703 8.29565C349.638 8.12769 341.659 7.82139 332.793 7.67319C328.36 7.5645 323.726 7.45582 318.921 7.34713C314.088 7.22857 309.054 7.19893 303.849 7.10012C293.467 6.88275 282.341 6.85311 270.644 6.75431C247.277 6.70491 221.594 6.88276 194.68 7.5151C167.796 8.20673 142.313 9.29357 119.175 10.499C107.649 11.1708 96.6661 11.7439 86.4556 12.4751C81.3361 12.8209 76.3882 13.1074 71.6405 13.4532C66.9214 13.799 62.3739 14.135 58.0266 14.461C49.3034 15.044 41.5241 15.7356 34.6027 16.2494C31.142 16.5063 27.9102 16.7434 24.9643 16.9706C22.0184 17.2176 19.3014 17.4251 16.8703 17.603C7.08893 18.3243 1.426 18.5219 0.996996 18.097C0.567986 17.6721 5.40149 16.6643 14.5823 15.1922C16.8703 14.8266 19.4444 14.4314 22.2759 14.0065C25.1073 13.6014 28.2534 13.1963 31.5997 12.7616C38.3208 11.902 45.9858 10.8942 54.6231 10.005C58.9418 9.55046 63.4607 9.06632 68.1798 8.5723C72.8989 8.08816 77.9041 7.67319 83.0522 7.19893C93.3198 6.23065 104.445 5.44022 116.172 4.5905C139.681 3.0294 165.765 1.73507 193.336 1.02368C220.907 0.371575 247.277 0.371575 271.187 0.75691C283.142 1.02368 294.468 1.26081 305.05 1.71531C310.341 1.93268 315.432 2.09076 320.323 2.33777C325.185 2.60454 329.875 2.85155 334.337 3.08868C343.261 3.54318 351.269 4.16565 358.276 4.68931C361.765 4.95608 365.026 5.20309 368 5.45998C370.975 5.73663 373.663 6.0034 376.094 6.26029C385.79 7.26809 390.995 8.02888 390.738 8.46362L390.766 8.4735Z" fill="currentColor"/>

</symbol>
<symbol id="triangle" viewBox="0 0 40 33">
    <path d="M2.67949 32L20 2L37.3205 32H2.67949Z" stroke="currentColor" stroke-width="2"/>

</symbol></svg>