<?xml version="1.0" encoding="utf-8"?>
<svg xmlns="http://www.w3.org/2000/svg">
<symbol id="figma-logo" viewBox="0 0 77 88">
    <path d="M39.835 44.6662C41.1155 42.1049 43.3611 40.1571 46.0777 39.2514C48.7942 38.3457 51.7594 38.5562 54.3207 39.8367C56.8821 41.1172 58.8299 43.3628 59.7356 46.0794C60.6413 48.796 60.4307 51.7611 59.1502 54.3224C57.8697 56.8838 55.6242 58.8316 52.9076 59.7373C50.191 60.643 47.2259 60.4324 44.6645 59.1519C42.1032 57.8715 40.1554 55.6259 39.2497 52.9093C38.344 50.1927 38.5545 47.2276 39.835 44.6662Z" stroke="currentColor" stroke-width="3"/>
    <path d="M6.83893 55.6671C8.11942 53.1057 10.365 51.158 13.0816 50.2523C15.7982 49.3465 18.7633 49.5571 21.3246 50.8376L30.9822 55.6657L26.1541 65.3233C24.8736 67.8846 22.6281 69.8324 19.9115 70.7381C17.1949 71.6438 14.2298 71.4333 11.6684 70.1528C9.10708 68.8723 7.15931 66.6268 6.2536 63.9102C5.34789 61.1936 5.55844 58.2285 6.83893 55.6671Z" stroke="currentColor" stroke-width="3"/>
    <path d="M55.6626 37.1534L46.005 32.3253L55.6612 13.0101L65.3188 17.8382C67.8801 19.1187 69.8279 21.3642 70.7336 24.0808C71.6393 26.7974 71.4288 29.7625 70.1483 32.3239C68.8678 34.8853 66.6222 36.833 63.9057 37.7387C61.1891 38.6444 58.2239 38.4339 55.6626 37.1534Z" stroke="currentColor" stroke-width="3"/>
    <path d="M28.2497 19.9131C27.344 17.1965 27.5545 14.2314 28.835 11.67C30.1155 9.10867 32.3611 7.16089 35.0777 6.25519C37.7942 5.34948 40.7594 5.56003 43.3207 6.84052L52.9783 11.6686L43.3221 30.9838L33.6645 26.1557C31.1032 24.8752 29.1554 22.6297 28.2497 19.9131Z" stroke="currentColor" stroke-width="3"/>
    <path d="M17.2516 41.9116C16.3459 39.195 16.5565 36.2299 17.837 33.6686C19.1175 31.1072 21.363 29.1594 24.0796 28.2537C26.7962 27.348 29.7613 27.5586 32.3227 28.8391L41.9803 33.6672L32.3241 52.9824L22.6665 48.1543C20.1051 46.8738 18.1574 44.6282 17.2516 41.9116Z" stroke="currentColor" stroke-width="3"/>

</symbol>
<symbol id="text-highlight" viewBox="0 0 391 19">
    <path d="M390.766 8.4735C390.509 8.91812 384.817 8.99716 374.836 8.76003C372.347 8.70075 369.573 8.62171 366.541 8.53278C363.51 8.46362 360.221 8.38458 356.703 8.29565C349.638 8.12769 341.659 7.82139 332.793 7.67319C328.36 7.5645 323.726 7.45582 318.921 7.34713C314.088 7.22857 309.054 7.19893 303.849 7.10012C293.467 6.88275 282.341 6.85311 270.644 6.75431C247.277 6.70491 221.594 6.88276 194.68 7.5151C167.796 8.20673 142.313 9.29357 119.175 10.499C107.649 11.1708 96.6661 11.7439 86.4556 12.4751C81.3361 12.8209 76.3882 13.1074 71.6405 13.4532C66.9214 13.799 62.3739 14.135 58.0266 14.461C49.3034 15.044 41.5241 15.7356 34.6027 16.2494C31.142 16.5063 27.9102 16.7434 24.9643 16.9706C22.0184 17.2176 19.3014 17.4251 16.8703 17.603C7.08893 18.3243 1.426 18.5219 0.996996 18.097C0.567986 17.6721 5.40149 16.6643 14.5823 15.1922C16.8703 14.8266 19.4444 14.4314 22.2759 14.0065C25.1073 13.6014 28.2534 13.1963 31.5997 12.7616C38.3208 11.902 45.9858 10.8942 54.6231 10.005C58.9418 9.55046 63.4607 9.06632 68.1798 8.5723C72.8989 8.08816 77.9041 7.67319 83.0522 7.19893C93.3198 6.23065 104.445 5.44022 116.172 4.5905C139.681 3.0294 165.765 1.73507 193.336 1.02368C220.907 0.371575 247.277 0.371575 271.187 0.75691C283.142 1.02368 294.468 1.26081 305.05 1.71531C310.341 1.93268 315.432 2.09076 320.323 2.33777C325.185 2.60454 329.875 2.85155 334.337 3.08868C343.261 3.54318 351.269 4.16565 358.276 4.68931C361.765 4.95608 365.026 5.20309 368 5.45998C370.975 5.73663 373.663 6.0034 376.094 6.26029C385.79 7.26809 390.995 8.02888 390.738 8.46362L390.766 8.4735Z" fill="currentColor"/>

</symbol></svg>