<?xml version="1.0" encoding="utf-8"?>
<svg xmlns="http://www.w3.org/2000/svg">
<symbol id="arrow-scroll" viewBox="0 0 34 81">
    <path d="M3.5 2C3.5 1.17157 2.82843 0.5 2 0.5C1.17157 0.5 0.5 1.17157 0.5 2H3.5ZM21.0063 79.7872C21.5921 80.373 22.5418 80.373 23.1276 79.7872L32.6735 70.2413C33.2593 69.6555 33.2593 68.7057 32.6735 68.12C32.0878 67.5342 31.138 67.5342 30.5522 68.12L22.0669 76.6052L13.5817 68.12C12.9959 67.5342 12.0461 67.5342 11.4603 68.12C10.8746 68.7057 10.8746 69.6555 11.4603 70.2413L21.0063 79.7872ZM0.5 2C0.5 6.68099 2.93414 12.8834 6.47724 17.8707C9.98187 22.8039 14.9798 27.1082 20.4275 27.1082V24.1082C16.5054 24.1082 12.2896 20.8722 8.9229 16.1333C5.5947 11.4485 3.5 5.84681 3.5 2H0.5ZM20.4275 27.1082C23.5332 27.1082 25.8479 25.8849 27.2291 23.8758C28.5687 21.9271 28.8929 19.4409 28.5025 17.0987C27.7307 12.4682 23.9712 7.58245 17.9355 7.58245V10.5825C22.0925 10.5825 24.9379 13.9596 25.5433 17.5919C25.8415 19.3811 25.5474 21.0264 24.7569 22.1763C24.0079 23.2658 22.6806 24.1082 20.4275 24.1082V27.1082ZM17.9355 7.58245C15.5979 7.58245 14.1792 9.24665 13.3979 11.2365C12.6231 13.2094 12.2832 15.8929 12.2047 18.9306C12.0465 25.0467 12.9422 33.1988 14.1828 41.4738C15.4266 49.7692 17.0321 58.281 18.3216 65.1371C18.9676 68.5717 19.5327 71.582 19.9366 73.9544C20.3493 76.379 20.5669 77.9949 20.5669 78.7266H23.5669C23.5669 77.6895 23.2943 75.8024 22.894 73.451C22.4849 71.0475 21.9144 68.0088 21.2699 64.5826C19.9786 57.7172 18.3838 49.2601 17.1497 41.0289C15.9125 32.7772 15.0527 24.8449 15.2037 19.0082C15.2797 16.0695 15.6105 13.8095 16.1903 12.3331C16.7634 10.8735 17.3831 10.5825 17.9355 10.5825V7.58245Z" fill="currentColor"/>

</symbol>
<symbol id="circle" viewBox="0 0 33 33">
    <circle cx="16.5" cy="16.5" r="16.5" fill="currentColor"/>

</symbol>
<symbol id="decoration-arrow" viewBox="0 0 34 113">
    <path d="M13.5835 3.1094C14.1962 2.55184 14.2409 1.60314 13.6833 0.990434C13.1258 0.377727 12.1771 0.333028 11.5644 0.890596L13.5835 3.1094ZM12.4006 42.786L11.4197 43.9209L11.4197 43.9209L12.4006 42.786ZM32.3259 35.386L33.7652 35.8084L33.7652 35.8084L32.3259 35.386ZM26.933 29.5444L26.2198 28.2248L26.2198 28.2248L26.933 29.5444ZM2.41849 68.2684L3.90452 68.4726L3.90452 68.4726L2.41849 68.2684ZM30.38 101.562C30.9218 100.936 30.8528 99.9883 30.2261 99.4466L20.0125 90.6187C19.3857 90.0769 18.4385 90.1459 17.8967 90.7726C17.355 91.3994 17.4239 92.3466 18.0507 92.8884L27.1295 100.735L19.2824 109.814C18.7407 110.441 18.8096 111.388 19.4364 111.93C20.0631 112.472 21.0104 112.403 21.5521 111.776L30.38 101.562ZM11.5644 0.890596C6.08463 5.8772 3.18956 14.1354 3.03374 22.2607C2.87786 30.3894 5.45867 38.7686 11.4197 43.9209L13.3815 41.6512C8.30887 37.2668 5.88811 29.8833 6.03319 22.3183C6.17833 14.75 8.88676 7.38348 13.5835 3.1094L11.5644 0.890596ZM11.4197 43.9209C11.7529 44.2089 12.0953 44.4746 12.4458 44.7186L14.1595 42.2563C13.8959 42.0728 13.6363 41.8714 13.3815 41.6512L11.4197 43.9209ZM12.4458 44.7186C16.4093 47.4773 21.1821 47.3147 25.1613 45.4918C29.1247 43.6762 32.4944 40.1384 33.7652 35.8084L30.8866 34.9636C29.8876 38.3675 27.177 41.2686 23.9118 42.7644C20.6625 44.2529 17.0586 44.274 14.1595 42.2563L12.4458 44.7186ZM33.7652 35.8084C34.3655 33.7632 33.703 31.345 32.4403 29.7205C31.7892 28.8829 30.9005 28.1517 29.7984 27.8134C28.6588 27.4636 27.4201 27.576 26.2198 28.2248L27.6462 30.8639C28.1751 30.5781 28.585 30.5791 28.9181 30.6813C29.2887 30.7951 29.697 31.0796 30.0717 31.5617C30.8605 32.5765 31.1654 34.0137 30.8866 34.9636L33.7652 35.8084ZM26.2198 28.2248C21.2451 30.9134 16.2465 36.4494 12.0597 42.6478L14.5456 44.3271C18.6455 38.2575 23.3137 33.2055 27.6462 30.8639L26.2198 28.2248ZM12.0597 42.6478C6.36648 51.0761 1.87933 61.1753 0.932462 68.0641L3.90452 68.4726C4.76437 62.2169 8.98555 52.5584 14.5456 44.3271L12.0597 42.6478ZM0.932462 68.0641C-0.065912 75.3277 2.51961 84.101 7.50959 90.8865C12.5156 97.6938 20.1384 102.748 29.3541 102.077L29.1363 99.0854C21.2534 99.659 14.5271 95.3653 9.92644 89.1092C5.30979 82.8314 3.03124 74.8261 3.90452 68.4726L0.932462 68.0641Z" fill="currentColor"/>

</symbol>
<symbol id="emoticon-happy" viewBox="0 0 126 126">
    <path d="M105.123 63.4574C105.123 52.4067 100.733 41.8086 92.9192 33.9946C85.1052 26.1806 74.5071 21.7907 63.4564 21.7907C52.4057 21.7907 41.8076 26.1806 33.9936 33.9946C26.1796 41.8086 21.7897 52.4067 21.7897 63.4574C21.7897 74.508 26.1796 85.1061 33.9936 92.9201C41.8076 100.734 52.4057 105.124 63.4564 105.124C74.5071 105.124 85.1052 100.734 92.9192 92.9201C100.733 85.1061 105.123 74.508 105.123 63.4574ZM115.54 63.4574C115.54 77.2707 110.052 90.5183 100.285 100.286C90.5173 110.053 77.2697 115.541 63.4564 115.541C56.6167 115.541 49.844 114.194 43.525 111.576C37.2059 108.959 31.4643 105.122 26.6279 100.286C16.8604 90.5183 11.373 77.2707 11.373 63.4574C11.373 49.644 16.8604 36.3964 26.6279 26.6289C36.3954 16.8614 49.643 11.374 63.4564 11.374C70.2961 11.374 77.0688 12.7212 83.3878 15.3386C89.7069 17.9561 95.4485 21.7925 100.285 26.6289C105.121 31.4653 108.958 37.2069 111.575 43.5259C114.193 49.845 115.54 56.6177 115.54 63.4574ZM53.0397 50.4365C53.0397 54.6032 49.3939 58.249 45.2272 58.249C41.0605 58.249 37.4147 54.6032 37.4147 50.4365C37.4147 46.2699 41.0605 42.624 45.2272 42.624C49.3939 42.624 53.0397 46.2699 53.0397 50.4365ZM89.498 50.4365C89.498 54.6032 85.8522 58.249 81.6855 58.249C77.5189 58.249 73.873 54.6032 73.873 50.4365C73.873 46.2699 77.5189 42.624 81.6855 42.624C85.8522 42.624 89.498 46.2699 89.498 50.4365ZM63.4564 90.6969C54.3418 90.6969 46.321 86.8949 41.6335 81.2699L49.0293 73.874C51.373 77.624 56.946 80.2803 63.4564 80.2803C69.9668 80.2803 75.5397 77.624 77.8835 73.874L85.2793 81.2699C80.5918 86.8949 72.571 90.6969 63.4564 90.6969Z" fill="currentColor"/>

</symbol>
<symbol id="figma-logo" viewBox="0 0 51 74">
    <path d="M26.9941 36.9959C26.9941 34.1323 28.1317 31.386 30.1566 29.3612C32.1814 27.3363 34.9278 26.1987 37.7914 26.1987C40.655 26.1987 43.4013 27.3363 45.4261 29.3612C47.451 31.386 48.5886 34.1323 48.5886 36.9959C48.5886 39.8595 47.451 42.6059 45.4261 44.6307C43.4013 46.6556 40.655 47.7932 37.7914 47.7932C34.9278 47.7932 32.1814 46.6556 30.1566 44.6307C28.1317 42.6059 26.9941 39.8595 26.9941 36.9959Z" stroke="currentColor" stroke-width="3"/>
    <path d="M2.40039 61.5902C2.40039 58.7266 3.53795 55.9803 5.56282 53.9554C7.58769 51.9305 10.334 50.793 13.1976 50.793H23.9948V61.5902C23.9948 64.4538 22.8573 67.2001 20.8324 69.225C18.8075 71.2498 16.0612 72.3874 13.1976 72.3874C10.334 72.3874 7.58769 71.2498 5.56282 69.225C3.53795 67.2001 2.40039 64.4538 2.40039 61.5902Z" stroke="currentColor" stroke-width="3"/>
    <path d="M37.7914 23.1984H26.9941V1.604H37.7914C40.655 1.604 43.4013 2.74156 45.4261 4.76643C47.451 6.7913 48.5886 9.53762 48.5886 12.4012C48.5886 15.2648 47.451 18.0111 45.4261 20.036C43.4013 22.0609 40.655 23.1984 37.7914 23.1984Z" stroke="currentColor" stroke-width="3"/>
    <path d="M5.56282 20.0358C3.53795 18.0109 2.40039 15.2646 2.40039 12.401C2.40039 9.53737 3.53795 6.79106 5.56282 4.76619C7.58769 2.74132 10.334 1.60376 13.1976 1.60376H23.9948V23.1982H13.1976C10.334 23.1982 7.58769 22.0606 5.56282 20.0358Z" stroke="currentColor" stroke-width="3"/>
    <path d="M5.56282 44.6302C3.53795 42.6054 2.40039 39.8591 2.40039 36.9955C2.40039 34.1319 3.53795 31.3855 5.56282 29.3607C7.58769 27.3358 10.334 26.1982 13.1976 26.1982H23.9948V47.7927H13.1976C10.334 47.7927 7.58769 46.6551 5.56282 44.6302Z" stroke="currentColor" stroke-width="3"/>

</symbol>
<symbol id="pill" viewBox="0 0 45 105">
    <rect x="0.214844" y="0.38208" width="44.5193" height="103.878" rx="22.2596" fill="currentColor"/>

</symbol>
<symbol id="star" viewBox="0 0 47 45">
    <path d="M23.5005 3.23608L28.05 17.2381L28.2745 17.9291H29.0011H43.7237L31.8129 26.5828L31.2251 27.0099L31.4496 27.7008L35.9991 41.7029L24.0883 33.0492L23.5005 32.6221L22.9127 33.0492L11.0019 41.7029L15.5514 27.7008L15.7759 27.0099L15.1881 26.5828L3.27734 17.9291H17.9999H18.7265L18.951 17.2381L23.5005 3.23608Z" stroke="currentColor" stroke-width="2"/>

</symbol>
<symbol id="text-highlight" viewBox="0 0 391 19">
    <path d="M390.766 8.4735C390.509 8.91812 384.817 8.99716 374.836 8.76003C372.347 8.70075 369.573 8.62171 366.541 8.53278C363.51 8.46362 360.221 8.38458 356.703 8.29565C349.638 8.12769 341.659 7.82139 332.793 7.67319C328.36 7.5645 323.726 7.45582 318.921 7.34713C314.088 7.22857 309.054 7.19893 303.849 7.10012C293.467 6.88275 282.341 6.85311 270.644 6.75431C247.277 6.70491 221.594 6.88276 194.68 7.5151C167.796 8.20673 142.313 9.29357 119.175 10.499C107.649 11.1708 96.6661 11.7439 86.4556 12.4751C81.3361 12.8209 76.3882 13.1074 71.6405 13.4532C66.9214 13.799 62.3739 14.135 58.0266 14.461C49.3034 15.044 41.5241 15.7356 34.6027 16.2494C31.142 16.5063 27.9102 16.7434 24.9643 16.9706C22.0184 17.2176 19.3014 17.4251 16.8703 17.603C7.08893 18.3243 1.426 18.5219 0.996996 18.097C0.567986 17.6721 5.40149 16.6643 14.5823 15.1922C16.8703 14.8266 19.4444 14.4314 22.2759 14.0065C25.1073 13.6014 28.2534 13.1963 31.5997 12.7616C38.3208 11.902 45.9858 10.8942 54.6231 10.005C58.9418 9.55046 63.4607 9.06632 68.1798 8.5723C72.8989 8.08816 77.9041 7.67319 83.0522 7.19893C93.3198 6.23065 104.445 5.44022 116.172 4.5905C139.681 3.0294 165.765 1.73507 193.336 1.02368C220.907 0.371575 247.277 0.371575 271.187 0.75691C283.142 1.02368 294.468 1.26081 305.05 1.71531C310.341 1.93268 315.432 2.09076 320.323 2.33777C325.185 2.60454 329.875 2.85155 334.337 3.08868C343.261 3.54318 351.269 4.16565 358.276 4.68931C361.765 4.95608 365.026 5.20309 368 5.45998C370.975 5.73663 373.663 6.0034 376.094 6.26029C385.79 7.26809 390.995 8.02888 390.738 8.46362L390.766 8.4735Z" fill="currentColor"/>

</symbol>
<symbol id="triangle" viewBox="0 0 40 33">
    <path d="M2.67969 32L20.0002 2L37.3207 32H2.67969Z" stroke="currentColor" stroke-width="2"/>

</symbol></svg>