<svg width="34" height="81" viewBox="0 0 34 81" fill="none" xmlns="http://www.w3.org/2000/svg">
    <path
        d="M3.5 2C3.5 1.17157 2.82843 0.5 2 0.5C1.17157 0.5 0.5 1.17157 0.5 2H3.5ZM21.0063 79.7872C21.5921 80.373 22.5418 80.373 23.1276 79.7872L32.6735 70.2413C33.2593 69.6555 33.2593 68.7057 32.6735 68.12C32.0878 67.5342 31.138 67.5342 30.5522 68.12L22.0669 76.6052L13.5817 68.12C12.9959 67.5342 12.0461 67.5342 11.4603 68.12C10.8746 68.7057 10.8746 69.6555 11.4603 70.2413L21.0063 79.7872ZM0.5 2C0.5 6.68099 2.93414 12.8834 6.47724 17.8707C9.98187 22.8039 14.9798 27.1082 20.4275 27.1082V24.1082C16.5054 24.1082 12.2896 20.8722 8.9229 16.1333C5.5947 11.4485 3.5 5.84681 3.5 2H0.5ZM20.4275 27.1082C23.5332 27.1082 25.8479 25.8849 27.2291 23.8758C28.5687 21.9271 28.8929 19.4409 28.5025 17.0987C27.7307 12.4682 23.9712 7.58245 17.9355 7.58245V10.5825C22.0925 10.5825 24.9379 13.9596 25.5433 17.5919C25.8415 19.3811 25.5474 21.0264 24.7569 22.1763C24.0079 23.2658 22.6806 24.1082 20.4275 24.1082V27.1082ZM17.9355 7.58245C15.5979 7.58245 14.1792 9.24665 13.3979 11.2365C12.6231 13.2094 12.2832 15.8929 12.2047 18.9306C12.0465 25.0467 12.9422 33.1988 14.1828 41.4738C15.4266 49.7692 17.0321 58.281 18.3216 65.1371C18.9676 68.5717 19.5327 71.582 19.9366 73.9544C20.3493 76.379 20.5669 77.9949 20.5669 78.7266H23.5669C23.5669 77.6895 23.2943 75.8024 22.894 73.451C22.4849 71.0475 21.9144 68.0088 21.2699 64.5826C19.9786 57.7172 18.3838 49.2601 17.1497 41.0289C15.9125 32.7772 15.0527 24.8449 15.2037 19.0082C15.2797 16.0695 15.6105 13.8095 16.1903 12.3331C16.7634 10.8735 17.3831 10.5825 17.9355 10.5825V7.58245Z"
        fill="currentColor" />
</svg>