<svg width="34" height="113" viewBox="0 0 34 113" fill="none" xmlns="http://www.w3.org/2000/svg">
    <path
        d="M13.5838 3.1094C14.1965 2.55184 14.2412 1.60314 13.6836 0.990434C13.1261 0.377727 12.1774 0.333028 11.5647 0.890596L13.5838 3.1094ZM12.4009 42.786L11.42 43.9209L12.4009 42.786ZM32.3262 35.386L30.8869 34.9636L32.3262 35.386ZM26.9333 29.5444L27.6465 30.8639L26.9333 29.5444ZM2.41877 68.2684L0.932743 68.0641L2.41877 68.2684ZM30.3803 101.562C30.922 100.936 30.8531 99.9883 30.2263 99.4466L20.0127 90.6187C19.386 90.0769 18.4387 90.1459 17.897 90.7726C17.3553 91.3994 17.4242 92.3466 18.051 92.8884L27.1297 100.735L19.2827 109.814C18.741 110.441 18.8099 111.388 19.4367 111.93C20.0634 112.472 21.0107 112.403 21.5524 111.776L30.3803 101.562ZM11.5647 0.890596C6.08491 5.8772 3.18984 14.1354 3.03402 22.2607C2.87814 30.3894 5.45895 38.7686 11.42 43.9209L13.3818 41.6512C8.30916 37.2668 5.8884 29.8833 6.03347 22.3183C6.17861 14.75 8.88704 7.38348 13.5838 3.1094L11.5647 0.890596ZM11.42 43.9209C15.3715 47.3363 20.3912 47.4754 24.6213 45.7271C28.8219 43.991 32.4384 40.33 33.7655 35.8084L30.8869 34.9636C29.8425 38.522 26.9285 41.5275 23.4754 42.9546C20.0518 44.3696 16.2945 44.1688 13.3818 41.6512L11.42 43.9209ZM33.7655 35.8084C34.3657 33.7632 33.7033 31.345 32.4406 29.7205C31.7895 28.8829 30.9008 28.1517 29.7987 27.8134C28.6591 27.4636 27.4204 27.576 26.2201 28.2248L27.6465 30.8639C28.1754 30.5781 28.5853 30.5791 28.9183 30.6813C29.289 30.7951 29.6972 31.0796 30.072 31.5617C30.8608 32.5765 31.1657 34.0137 30.8869 34.9636L33.7655 35.8084ZM26.2201 28.2248C20.3721 31.3854 14.4646 38.4991 9.86713 46.0724C5.25546 53.6692 1.75662 62.0701 0.932743 68.0641L3.9048 68.4726C4.64951 63.0546 7.9214 55.0588 12.4316 47.6292C16.956 40.1762 22.5214 33.6339 27.6465 30.8639L26.2201 28.2248ZM0.932743 68.0641C-0.0656299 75.3277 2.51989 84.101 7.50987 90.8865C12.5159 97.6938 20.1387 102.748 29.3543 102.077L29.1366 99.0854C21.2537 99.659 14.5273 95.3653 9.92671 89.1092C5.31007 82.8314 3.03152 74.8261 3.9048 68.4726L0.932743 68.0641Z"
        fill="currentColor" />
</svg>