<svg width="34" height="113" viewBox="0 0 34 113" fill="none" xmlns="http://www.w3.org/2000/svg">
    <path
        d="M13.5835 3.1094C14.1962 2.55184 14.2409 1.60314 13.6833 0.990434C13.1258 0.377727 12.1771 0.333028 11.5644 0.890596L13.5835 3.1094ZM12.4006 42.786L11.4197 43.9209L11.4197 43.9209L12.4006 42.786ZM32.3259 35.386L33.7652 35.8084L33.7652 35.8084L32.3259 35.386ZM26.933 29.5444L26.2198 28.2248L26.2198 28.2248L26.933 29.5444ZM2.41849 68.2684L3.90452 68.4726L3.90452 68.4726L2.41849 68.2684ZM30.38 101.562C30.9218 100.936 30.8528 99.9883 30.2261 99.4466L20.0125 90.6187C19.3857 90.0769 18.4385 90.1459 17.8967 90.7726C17.355 91.3994 17.4239 92.3466 18.0507 92.8884L27.1295 100.735L19.2824 109.814C18.7407 110.441 18.8096 111.388 19.4364 111.93C20.0631 112.472 21.0104 112.403 21.5521 111.776L30.38 101.562ZM11.5644 0.890596C6.08463 5.8772 3.18956 14.1354 3.03374 22.2607C2.87786 30.3894 5.45867 38.7686 11.4197 43.9209L13.3815 41.6512C8.30887 37.2668 5.88811 29.8833 6.03319 22.3183C6.17833 14.75 8.88676 7.38348 13.5835 3.1094L11.5644 0.890596ZM11.4197 43.9209C11.7529 44.2089 12.0953 44.4746 12.4458 44.7186L14.1595 42.2563C13.8959 42.0728 13.6363 41.8714 13.3815 41.6512L11.4197 43.9209ZM12.4458 44.7186C16.4093 47.4773 21.1821 47.3147 25.1613 45.4918C29.1247 43.6762 32.4944 40.1384 33.7652 35.8084L30.8866 34.9636C29.8876 38.3675 27.177 41.2686 23.9118 42.7644C20.6625 44.2529 17.0586 44.274 14.1595 42.2563L12.4458 44.7186ZM33.7652 35.8084C34.3655 33.7632 33.703 31.345 32.4403 29.7205C31.7892 28.8829 30.9005 28.1517 29.7984 27.8134C28.6588 27.4636 27.4201 27.576 26.2198 28.2248L27.6462 30.8639C28.1751 30.5781 28.585 30.5791 28.9181 30.6813C29.2887 30.7951 29.697 31.0796 30.0717 31.5617C30.8605 32.5765 31.1654 34.0137 30.8866 34.9636L33.7652 35.8084ZM26.2198 28.2248C21.2451 30.9134 16.2465 36.4494 12.0597 42.6478L14.5456 44.3271C18.6455 38.2575 23.3137 33.2055 27.6462 30.8639L26.2198 28.2248ZM12.0597 42.6478C6.36648 51.0761 1.87933 61.1753 0.932462 68.0641L3.90452 68.4726C4.76437 62.2169 8.98555 52.5584 14.5456 44.3271L12.0597 42.6478ZM0.932462 68.0641C-0.065912 75.3277 2.51961 84.101 7.50959 90.8865C12.5156 97.6938 20.1384 102.748 29.3541 102.077L29.1363 99.0854C21.2534 99.659 14.5271 95.3653 9.92644 89.1092C5.30979 82.8314 3.03124 74.8261 3.90452 68.4726L0.932462 68.0641Z"
        fill="currentColor" />
</svg>