<svg width="163" height="163" viewBox="0 0 163 163" fill="none" xmlns="http://www.w3.org/2000/svg">
    <path
        d="M120.047 65.7417C115.878 55.5072 107.815 47.3476 97.6313 43.0581C87.4472 38.7685 75.9761 38.7002 65.7416 42.8683C55.5071 47.0364 47.3476 55.0994 43.058 65.2835C38.7684 75.4677 38.7001 86.9388 42.8682 97.1733C47.0363 107.408 55.0993 115.567 65.2835 119.857C75.4676 124.146 86.9387 124.215 97.1732 120.047C107.408 115.879 115.567 107.816 119.857 97.6314C124.146 87.4472 124.215 75.9762 120.047 65.7417ZM129.694 61.8127C134.904 74.6058 134.819 88.9447 129.457 101.675C124.095 114.405 113.895 124.484 101.102 129.694C94.7676 132.274 87.987 133.581 81.1475 133.54C74.3079 133.499 67.5433 132.112 61.24 129.457C48.5098 124.095 38.431 113.895 33.2209 101.102C28.0108 88.3091 28.0961 73.9702 33.4581 61.2401C38.8201 48.5099 49.0195 38.4311 61.8127 33.221C68.1472 30.6412 74.9278 29.3344 81.7673 29.3751C88.6069 29.4158 95.3715 30.8032 101.675 33.4582C107.978 36.1132 113.697 39.9837 118.504 44.8488C123.312 49.7139 127.114 55.4782 129.694 61.8127ZM66.8989 73.3273C68.4705 77.1862 66.4691 81.9379 62.6101 83.5095C58.7512 85.0811 53.9995 83.0796 52.428 79.2207C50.8564 75.3618 52.8578 70.6101 56.7167 69.0385C60.5756 67.467 65.3273 69.4684 66.8989 73.3273ZM100.664 59.576C102.236 63.4349 100.235 68.1866 96.3757 69.7582C92.5168 71.3297 87.7651 69.3283 86.1935 65.4694C84.6219 61.6105 86.6233 56.8588 90.4823 55.2872C94.3412 53.7156 99.0929 55.7171 100.664 59.576ZM91.7316 106.685C83.2902 110.123 74.4277 109.627 67.9648 106.185L72.0248 96.5464C75.6099 99.1354 81.7731 99.4934 87.8026 97.0378C93.8322 94.5823 97.9916 90.0202 98.7478 85.6632L108.387 89.7232C106.167 96.7008 100.173 103.247 91.7316 106.685Z"
        fill="currentColor" />
</svg>