<svg width="126" height="126" viewBox="0 0 126 126" fill="none" xmlns="http://www.w3.org/2000/svg">
    <path
        d="M105.123 63.4574C105.123 52.4067 100.733 41.8086 92.9192 33.9946C85.1052 26.1806 74.5071 21.7907 63.4564 21.7907C52.4057 21.7907 41.8076 26.1806 33.9936 33.9946C26.1796 41.8086 21.7897 52.4067 21.7897 63.4574C21.7897 74.508 26.1796 85.1061 33.9936 92.9201C41.8076 100.734 52.4057 105.124 63.4564 105.124C74.5071 105.124 85.1052 100.734 92.9192 92.9201C100.733 85.1061 105.123 74.508 105.123 63.4574ZM115.54 63.4574C115.54 77.2707 110.052 90.5183 100.285 100.286C90.5173 110.053 77.2697 115.541 63.4564 115.541C56.6167 115.541 49.844 114.194 43.525 111.576C37.2059 108.959 31.4643 105.122 26.6279 100.286C16.8604 90.5183 11.373 77.2707 11.373 63.4574C11.373 49.644 16.8604 36.3964 26.6279 26.6289C36.3954 16.8614 49.643 11.374 63.4564 11.374C70.2961 11.374 77.0688 12.7212 83.3878 15.3386C89.7069 17.9561 95.4485 21.7925 100.285 26.6289C105.121 31.4653 108.958 37.2069 111.575 43.5259C114.193 49.845 115.54 56.6177 115.54 63.4574ZM53.0397 50.4365C53.0397 54.6032 49.3939 58.249 45.2272 58.249C41.0605 58.249 37.4147 54.6032 37.4147 50.4365C37.4147 46.2699 41.0605 42.624 45.2272 42.624C49.3939 42.624 53.0397 46.2699 53.0397 50.4365ZM89.498 50.4365C89.498 54.6032 85.8522 58.249 81.6855 58.249C77.5189 58.249 73.873 54.6032 73.873 50.4365C73.873 46.2699 77.5189 42.624 81.6855 42.624C85.8522 42.624 89.498 46.2699 89.498 50.4365ZM63.4564 90.6969C54.3418 90.6969 46.321 86.8949 41.6335 81.2699L49.0293 73.874C51.373 77.624 56.946 80.2803 63.4564 80.2803C69.9668 80.2803 75.5397 77.624 77.8835 73.874L85.2793 81.2699C80.5918 86.8949 72.571 90.6969 63.4564 90.6969Z"
        fill="currentColor" />
</svg>