<svg width="77" height="88" viewBox="0 0 77 88" fill="none" xmlns="http://www.w3.org/2000/svg">
    <path
        d="M39.835 44.6662C41.1155 42.1049 43.3611 40.1571 46.0777 39.2514C48.7942 38.3457 51.7594 38.5562 54.3207 39.8367C56.8821 41.1172 58.8299 43.3628 59.7356 46.0794C60.6413 48.796 60.4307 51.7611 59.1502 54.3224C57.8697 56.8838 55.6242 58.8316 52.9076 59.7373C50.191 60.643 47.2259 60.4324 44.6645 59.1519C42.1032 57.8715 40.1554 55.6259 39.2497 52.9093C38.344 50.1927 38.5545 47.2276 39.835 44.6662Z"
        stroke="currentColor" stroke-width="3" />
    <path
        d="M6.83893 55.6671C8.11942 53.1057 10.365 51.158 13.0816 50.2523C15.7982 49.3465 18.7633 49.5571 21.3246 50.8376L30.9822 55.6657L26.1541 65.3233C24.8736 67.8846 22.6281 69.8324 19.9115 70.7381C17.1949 71.6438 14.2298 71.4333 11.6684 70.1528C9.10708 68.8723 7.15931 66.6268 6.2536 63.9102C5.34789 61.1936 5.55844 58.2285 6.83893 55.6671Z"
        stroke="currentColor" stroke-width="3" />
    <path
        d="M55.6626 37.1534L46.005 32.3253L55.6612 13.0101L65.3188 17.8382C67.8801 19.1187 69.8279 21.3642 70.7336 24.0808C71.6393 26.7974 71.4288 29.7625 70.1483 32.3239C68.8678 34.8853 66.6222 36.833 63.9057 37.7387C61.1891 38.6444 58.2239 38.4339 55.6626 37.1534Z"
        stroke="currentColor" stroke-width="3" />
    <path
        d="M28.2497 19.9131C27.344 17.1965 27.5545 14.2314 28.835 11.67C30.1155 9.10867 32.3611 7.16089 35.0777 6.25519C37.7942 5.34948 40.7594 5.56003 43.3207 6.84052L52.9783 11.6686L43.3221 30.9838L33.6645 26.1557C31.1032 24.8752 29.1554 22.6297 28.2497 19.9131Z"
        stroke="currentColor" stroke-width="3" />
    <path
        d="M17.2516 41.9116C16.3459 39.195 16.5565 36.2299 17.837 33.6686C19.1175 31.1072 21.363 29.1594 24.0796 28.2537C26.7962 27.348 29.7613 27.5586 32.3227 28.8391L41.9803 33.6672L32.3241 52.9824L22.6665 48.1543C20.1051 46.8738 18.1574 44.6282 17.2516 41.9116Z"
        stroke="currentColor" stroke-width="3" />
</svg>