<svg width="51" height="74" viewBox="0 0 51 74" fill="none" xmlns="http://www.w3.org/2000/svg">
    <path fill-rule="evenodd" clip-rule="evenodd"
        d="M31.2178 30.4218C29.4743 32.1653 28.4947 34.5301 28.4947 36.9959C28.4947 39.4616 29.4743 41.8264 31.2178 43.57C32.9614 45.3136 35.3262 46.2931 37.792 46.2931C40.2577 46.2931 42.6225 45.3136 44.3661 43.57C46.1096 41.8264 47.0892 39.4616 47.0892 36.9959C47.0892 34.5301 46.1096 32.1653 44.3661 30.4218C42.6225 28.6782 40.2577 27.6987 37.792 27.6987C35.3262 27.6987 32.9614 28.6782 31.2178 30.4218ZM29.0965 28.3004C26.7903 30.6066 25.4947 33.7345 25.4947 36.9959C25.4947 40.2573 26.7903 43.3851 29.0965 45.6913C31.4027 47.9975 34.5305 49.2931 37.792 49.2931C41.0534 49.2931 44.1812 47.9975 46.4874 45.6913C48.7936 43.3851 50.0892 40.2573 50.0892 36.9959C50.0892 33.7345 48.7936 30.6066 46.4874 28.3004C44.1812 25.9943 41.0534 24.6987 37.792 24.6987C34.5305 24.6987 31.4027 25.9943 29.0965 28.3004Z"
        fill="currentColor" />
    <path fill-rule="evenodd" clip-rule="evenodd"
        d="M6.62348 55.016C4.87992 56.7595 3.90039 59.1243 3.90039 61.5901C3.90039 64.0559 4.87992 66.4207 6.62348 68.1642C8.36705 69.9078 10.7318 70.8873 13.1976 70.8873C15.6634 70.8873 18.0282 69.9078 19.7717 68.1642C21.5153 66.4207 22.4948 64.0559 22.4948 61.5901V52.2929H13.1976C10.7318 52.2929 8.36705 53.2724 6.62348 55.016ZM4.50216 52.8947C2.19599 55.2008 0.900391 58.3287 0.900391 61.5901C0.900391 64.8515 2.19599 67.9794 4.50216 70.2855C6.80834 72.5917 9.93618 73.8873 13.1976 73.8873C16.459 73.8873 19.5869 72.5917 21.893 70.2855C24.1992 67.9794 25.4948 64.8515 25.4948 61.5901V49.2929H13.1976C9.93618 49.2929 6.80834 50.5885 4.50216 52.8947Z"
        fill="currentColor" />
    <path fill-rule="evenodd" clip-rule="evenodd"
        d="M25.4951 24.6985V0.104099H37.7923C41.0537 0.104099 44.1816 1.39969 46.4877 3.70587C48.7939 6.01204 50.0895 9.13989 50.0895 12.4013C50.0895 15.6627 48.7939 18.7906 46.4877 21.0968C44.1816 23.4029 41.0534 24.6987 37.792 24.6987L25.4951 24.6985ZM28.4951 3.1041V21.6985H37.7923C40.2581 21.6985 42.6229 20.719 44.3664 18.9754C46.11 17.2319 47.0895 14.8671 47.0895 12.4013C47.0895 9.93554 46.11 7.57076 44.3664 5.82719C42.6229 4.08362 40.2581 3.1041 37.7923 3.1041H28.4951Z"
        fill="currentColor" />
    <path fill-rule="evenodd" clip-rule="evenodd"
        d="M3.90107 12.401C3.90107 14.8667 4.88059 17.2315 6.62416 18.9751C8.36773 20.7187 10.7325 21.6982 13.1983 21.6982H22.4955V3.10376H13.1983C10.7325 3.10376 8.36773 4.08328 6.62416 5.82685C4.88059 7.57042 3.90107 9.9352 3.90107 12.401ZM13.1983 0.10376C9.93686 0.10376 6.80901 1.39936 4.50284 3.70553C2.19666 6.0117 0.901069 9.13955 0.901069 12.401C0.901069 15.6624 2.19666 18.7902 4.50284 21.0964C6.80901 23.4026 9.93686 24.6982 13.1983 24.6982L25.4951 24.6985V0.104099L13.1983 0.10376Z"
        fill="currentColor" />
    <path fill-rule="evenodd" clip-rule="evenodd"
        d="M3.90073 36.9955C3.90073 39.4613 4.88025 41.8261 6.62382 43.5697C8.36739 45.3132 10.7322 46.2928 13.1979 46.2928H22.4952V27.6983H13.1979C10.7322 27.6983 8.36739 28.6778 6.62382 30.4214C4.88025 32.165 3.90073 34.5298 3.90073 36.9955ZM13.1983 24.6982C9.93686 24.6982 6.80868 25.9939 4.5025 28.3001C2.19633 30.6063 0.90073 33.7341 0.90073 36.9955C0.90073 40.257 2.19633 43.3848 4.5025 45.691C6.80868 47.9972 9.93618 49.2929 13.1976 49.2929H25.4948L25.4951 24.6985L13.1983 24.6982Z"
        fill="currentColor" />
</svg>