<svg width="51" height="74" viewBox="0 0 51 74" fill="none" xmlns="http://www.w3.org/2000/svg">
    <path
        d="M26.9941 36.9959C26.9941 34.1323 28.1317 31.386 30.1566 29.3612C32.1814 27.3363 34.9278 26.1987 37.7914 26.1987C40.655 26.1987 43.4013 27.3363 45.4261 29.3612C47.451 31.386 48.5886 34.1323 48.5886 36.9959C48.5886 39.8595 47.451 42.6059 45.4261 44.6307C43.4013 46.6556 40.655 47.7932 37.7914 47.7932C34.9278 47.7932 32.1814 46.6556 30.1566 44.6307C28.1317 42.6059 26.9941 39.8595 26.9941 36.9959Z"
        stroke="currentColor" stroke-width="3" />
    <path
        d="M2.40039 61.5902C2.40039 58.7266 3.53795 55.9803 5.56282 53.9554C7.58769 51.9305 10.334 50.793 13.1976 50.793H23.9948V61.5902C23.9948 64.4538 22.8573 67.2001 20.8324 69.225C18.8075 71.2498 16.0612 72.3874 13.1976 72.3874C10.334 72.3874 7.58769 71.2498 5.56282 69.225C3.53795 67.2001 2.40039 64.4538 2.40039 61.5902Z"
        stroke="currentColor" stroke-width="3" />
    <path
        d="M37.7914 23.1984H26.9941V1.604H37.7914C40.655 1.604 43.4013 2.74156 45.4261 4.76643C47.451 6.7913 48.5886 9.53762 48.5886 12.4012C48.5886 15.2648 47.451 18.0111 45.4261 20.036C43.4013 22.0609 40.655 23.1984 37.7914 23.1984Z"
        stroke="currentColor" stroke-width="3" />
    <path
        d="M5.56282 20.0358C3.53795 18.0109 2.40039 15.2646 2.40039 12.401C2.40039 9.53737 3.53795 6.79106 5.56282 4.76619C7.58769 2.74132 10.334 1.60376 13.1976 1.60376H23.9948V23.1982H13.1976C10.334 23.1982 7.58769 22.0606 5.56282 20.0358Z"
        stroke="currentColor" stroke-width="3" />
    <path
        d="M5.56282 44.6302C3.53795 42.6054 2.40039 39.8591 2.40039 36.9955C2.40039 34.1319 3.53795 31.3855 5.56282 29.3607C7.58769 27.3358 10.334 26.1982 13.1976 26.1982H23.9948V47.7927H13.1976C10.334 47.7927 7.58769 46.6551 5.56282 44.6302Z"
        stroke="currentColor" stroke-width="3" />
</svg>