<svg width="24" height="24" viewBox="0 0 24 24" fill="none" xmlns="http://www.w3.org/2000/svg">
    <path
        d="M12.0005 2C11.5005 2 11.0005 2.19 10.5905 2.59L7.29055 5.88L12.0005 10.58L16.7105 5.88L13.4105 2.59C13.0005 2.19 12.5005 2 12.0005 2ZM5.88055 7.29L2.59055 10.59C1.80055 11.37 1.80055 12.63 2.59055 13.41L5.88055 16.71L10.5805 12L5.88055 7.29ZM18.1205 7.29L13.4205 12L18.1205 16.71L21.4105 13.41C22.2005 12.63 22.2005 11.37 21.4105 10.59L18.1205 7.29ZM12.0005 13.42L7.29055 18.12L10.5905 21.41C11.3705 22.2 12.6305 22.2 13.4105 21.41L16.7105 18.12L12.0005 13.42Z"
        fill="currentColor" />
</svg>