<svg preserveAspectRatio="none" width="391" height="19" viewBox="0 0 391 19" fill="none"
    xmlns="http://www.w3.org/2000/svg">
    <path
        d="M390.766 8.4735C390.509 8.91812 384.817 8.99716 374.836 8.76003C372.347 8.70075 369.573 8.62171 366.541 8.53278C363.51 8.46362 360.221 8.38458 356.703 8.29565C349.638 8.12769 341.659 7.82139 332.793 7.67319C328.36 7.5645 323.726 7.45582 318.921 7.34713C314.088 7.22857 309.054 7.19893 303.849 7.10012C293.467 6.88275 282.341 6.85311 270.644 6.75431C247.277 6.70491 221.594 6.88276 194.68 7.5151C167.796 8.20673 142.313 9.29357 119.175 10.499C107.649 11.1708 96.6661 11.7439 86.4556 12.4751C81.3361 12.8209 76.3882 13.1074 71.6405 13.4532C66.9214 13.799 62.3739 14.135 58.0266 14.461C49.3034 15.044 41.5241 15.7356 34.6027 16.2494C31.142 16.5063 27.9102 16.7434 24.9643 16.9706C22.0184 17.2176 19.3014 17.4251 16.8703 17.603C7.08893 18.3243 1.426 18.5219 0.996996 18.097C0.567986 17.6721 5.40149 16.6643 14.5823 15.1922C16.8703 14.8266 19.4444 14.4314 22.2759 14.0065C25.1073 13.6014 28.2534 13.1963 31.5997 12.7616C38.3208 11.902 45.9858 10.8942 54.6231 10.005C58.9418 9.55046 63.4607 9.06632 68.1798 8.5723C72.8989 8.08816 77.9041 7.67319 83.0522 7.19893C93.3198 6.23065 104.445 5.44022 116.172 4.5905C139.681 3.0294 165.765 1.73507 193.336 1.02368C220.907 0.371575 247.277 0.371575 271.187 0.75691C283.142 1.02368 294.468 1.26081 305.05 1.71531C310.341 1.93268 315.432 2.09076 320.323 2.33777C325.185 2.60454 329.875 2.85155 334.337 3.08868C343.261 3.54318 351.269 4.16565 358.276 4.68931C361.765 4.95608 365.026 5.20309 368 5.45998C370.975 5.73663 373.663 6.0034 376.094 6.26029C385.79 7.26809 390.995 8.02888 390.738 8.46362L390.766 8.4735Z"
        fill="currentColor" />
</svg>