<svg width="363" height="259" viewBox="0 0 363 259" fill="none" xmlns="http://www.w3.org/2000/svg">
<g filter="url(#filter0_d_2237_19)">
<rect x="10" y="10" width="343" height="239" rx="6" fill="white"/>
</g>
<path d="M169.035 162.17C168.542 163.773 168.295 165.377 168.295 166.98C168.295 168.337 168.48 169.508 168.85 170.495C169.22 171.358 169.59 172.098 169.96 172.715C170.453 173.208 170.762 173.578 170.885 173.825C172.118 175.058 172.735 176.292 172.735 177.525C172.735 177.772 172.612 178.388 172.365 179.375C171.872 181.102 170.762 182.335 169.035 183.075C167.432 183.692 164.903 184 161.45 184H117.605C115.015 184 112.98 183.568 111.5 182.705C110.143 181.842 109.465 180.67 109.465 179.19C109.465 178.45 109.65 177.648 110.02 176.785C110.39 175.798 110.883 175.058 111.5 174.565C112.24 173.948 113.227 173.27 114.46 172.53C116.433 171.42 118.037 170.187 119.27 168.83C120.503 167.473 121.552 165.253 122.415 162.17L127.225 146.26H98.365L93.37 156.805C91.2733 161.368 90.225 164.945 90.225 167.535C90.225 169.015 90.4717 170.248 90.965 171.235C91.4583 172.098 92.1983 173.023 93.185 174.01C94.0483 174.997 94.6033 175.86 94.85 176.6C95.22 177.217 95.2817 178.08 95.035 179.19C94.5417 181.04 93.4933 182.335 91.89 183.075C90.41 183.692 88.005 184 84.675 184H57.11C54.2733 184 52.115 183.507 50.635 182.52C49.155 181.41 48.415 179.992 48.415 178.265C48.415 176.292 49.155 174.75 50.635 173.64C51.9917 172.407 54.0883 171.112 56.925 169.755C60.625 167.905 63.585 166.117 65.805 164.39C68.025 162.54 69.9367 160.012 71.54 156.805L104.47 88.54C109.527 77.9333 115.447 70.2867 122.23 65.6C129.137 60.79 138.202 58.385 149.425 58.385C162.005 58.385 171.748 60.975 178.655 66.155C185.562 71.2117 189.015 78.3033 189.015 87.43C189.015 91.2533 188.398 95.2 187.165 99.27L169.035 162.17ZM132.775 127.76L142.58 95.2C143.073 93.72 143.32 92.1783 143.32 90.575C143.32 88.2317 142.642 86.505 141.285 85.395C140.052 84.1617 138.263 83.545 135.92 83.545C132.96 83.545 130.432 84.4083 128.335 86.135C126.238 87.8617 124.142 90.945 122.045 95.385L106.875 127.76H132.775ZM251.22 86.135C265.403 86.135 276.75 88.7867 285.26 94.09C293.77 99.27 298.025 107.225 298.025 117.955C298.025 122.025 297.285 126.65 295.805 131.83L288.22 157.36C288.096 157.853 288.035 158.47 288.035 159.21C288.035 161.183 288.836 162.17 290.44 162.17C291.92 162.17 293.153 161.553 294.14 160.32C295.25 158.963 295.99 158.285 296.36 158.285C296.976 158.285 297.47 158.717 297.84 159.58C298.333 160.443 298.58 161.43 298.58 162.54C298.703 165.87 297.408 169.262 294.695 172.715C292.105 176.168 288.59 179.005 284.15 181.225C279.71 183.445 274.838 184.555 269.535 184.555C263.121 184.555 257.633 183.383 253.07 181.04C248.506 178.697 245.361 175.243 243.635 170.68C239.935 175.12 235.556 178.573 230.5 181.04C225.443 183.383 220.016 184.555 214.22 184.555C207.683 184.555 202.195 183.322 197.755 180.855C193.315 178.265 189.985 174.997 187.765 171.05C185.668 166.98 184.62 162.725 184.62 158.285C184.62 156.312 184.805 154.4 185.175 152.55C187.148 144.04 191.403 137.627 197.94 133.31C204.6 128.993 212.493 126.835 221.62 126.835C231.856 126.835 241.908 128.438 251.775 131.645L256.4 119.435C258.003 114.255 258.805 110.247 258.805 107.41C258.681 104.45 257.695 102.23 255.845 100.75C253.995 99.27 251.158 98.53 247.335 98.53C248.075 100.503 248.445 102.538 248.445 104.635C248.445 109.198 246.718 113.145 243.265 116.475C239.811 119.805 234.878 121.47 228.465 121.47C222.421 121.47 217.673 120.175 214.22 117.585C210.89 114.872 209.225 111.542 209.225 107.595C209.225 101.428 212.678 96.31 219.585 92.24C226.491 88.17 237.036 86.135 251.22 86.135ZM240.86 142.19C237.406 142.19 234.57 143.547 232.35 146.26C230.253 148.85 229.205 151.687 229.205 154.77C229.205 156.743 229.636 158.347 230.5 159.58C231.486 160.813 232.843 161.43 234.57 161.43C236.173 161.43 237.9 160.813 239.75 159.58C241.723 158.223 243.141 156.25 244.005 153.66L247.89 142.745C245.793 142.375 243.45 142.19 240.86 142.19Z" fill="black"/>
<defs>
<filter id="filter0_d_2237_19" x="0" y="0" width="363" height="259" filterUnits="userSpaceOnUse" color-interpolation-filters="sRGB">
<feFlood flood-opacity="0" result="BackgroundImageFix"/>
<feColorMatrix in="SourceAlpha" type="matrix" values="0 0 0 0 0 0 0 0 0 0 0 0 0 0 0 0 0 0 127 0" result="hardAlpha"/>
<feOffset/>
<feGaussianBlur stdDeviation="5"/>
<feComposite in2="hardAlpha" operator="out"/>
<feColorMatrix type="matrix" values="0 0 0 0 0.953831 0 0 0 0 0.926389 0 0 0 0 0.958333 0 0 0 1 0"/>
<feBlend mode="normal" in2="BackgroundImageFix" result="effect1_dropShadow_2237_19"/>
<feBlend mode="normal" in="SourceGraphic" in2="effect1_dropShadow_2237_19" result="shape"/>
</filter>
</defs>
</svg>
