<svg width="363" height="259" viewBox="0 0 363 259" fill="none" xmlns="http://www.w3.org/2000/svg">
<g filter="url(#filter0_d_2237_19)">
<rect x="10" y="10" width="343" height="239" rx="6" fill="white"/>
</g>
<path d="M80.402 197H63.321L135.061 62.4545H151.879L178.946 197H161.865L140.58 83.7401H139.528L80.402 197ZM95.3807 144.443H164.23L161.865 158.896H93.0156L95.3807 144.443ZM227.233 199.365C220.838 199.365 215.232 198.161 210.414 195.752C205.597 193.299 202.027 189.773 199.706 185.175C197.385 180.532 196.75 174.926 197.801 168.357C198.808 162.575 200.757 157.889 203.648 154.298C206.538 150.662 210.042 147.816 214.159 145.757C218.32 143.655 222.787 142.1 227.561 141.093C232.379 140.042 237.175 139.231 241.949 138.662C248.168 137.874 253.226 137.26 257.124 136.822C261.022 136.384 263.957 135.662 265.928 134.654C267.898 133.647 269.103 131.917 269.541 129.464V128.939C270.592 122.501 269.738 117.486 266.979 113.895C264.219 110.259 259.292 108.442 252.197 108.442C244.839 108.442 238.686 110.062 233.737 113.303C228.787 116.544 225.13 120.004 222.765 123.683L209.1 118.428C212.692 112.296 216.984 107.522 221.977 104.106C226.97 100.646 232.204 98.237 237.678 96.8793C243.153 95.4777 248.431 94.777 253.511 94.777C256.752 94.777 260.409 95.1712 264.482 95.9595C268.555 96.7041 272.366 98.2589 275.913 100.624C279.505 102.989 282.198 106.558 283.994 111.332C285.833 116.106 286.096 122.501 284.782 130.516L273.745 197H258.241L260.606 183.335H259.818C258.416 185.525 256.27 187.868 253.38 190.365C250.533 192.861 246.92 194.985 242.54 196.737C238.204 198.489 233.101 199.365 227.233 199.365ZM231.7 185.438C237.832 185.438 243.197 184.233 247.795 181.824C252.438 179.415 256.161 176.306 258.964 172.495C261.811 168.685 263.584 164.678 264.285 160.473L266.65 146.283C265.862 147.071 264.307 147.794 261.986 148.451C259.665 149.064 257.037 149.611 254.102 150.093C251.212 150.531 248.387 150.925 245.627 151.276C242.912 151.582 240.722 151.845 239.058 152.064C234.941 152.589 231.021 153.444 227.298 154.626C223.619 155.765 220.51 157.495 217.969 159.816C215.473 162.094 213.918 165.203 213.305 169.145C212.385 174.532 213.677 178.605 217.181 181.364C220.685 184.08 225.525 185.438 231.7 185.438Z" fill="black"/>
<defs>
<filter id="filter0_d_2237_19" x="0" y="0" width="363" height="259" filterUnits="userSpaceOnUse" color-interpolation-filters="sRGB">
<feFlood flood-opacity="0" result="BackgroundImageFix"/>
<feColorMatrix in="SourceAlpha" type="matrix" values="0 0 0 0 0 0 0 0 0 0 0 0 0 0 0 0 0 0 127 0" result="hardAlpha"/>
<feOffset/>
<feGaussianBlur stdDeviation="5"/>
<feComposite in2="hardAlpha" operator="out"/>
<feColorMatrix type="matrix" values="0 0 0 0 0.953831 0 0 0 0 0.926389 0 0 0 0 0.958333 0 0 0 1 0"/>
<feBlend mode="normal" in2="BackgroundImageFix" result="effect1_dropShadow_2237_19"/>
<feBlend mode="normal" in="SourceGraphic" in2="effect1_dropShadow_2237_19" result="shape"/>
</filter>
</defs>
</svg>
