<svg width="760" height="514" viewBox="0 0 760 514" fill="none" xmlns="http://www.w3.org/2000/svg">
    <g clip-path="url(#clip1_572_794)">
        <path
            d="M769.359 515.499C769.161 517.006 768.566 518.471 767.542 519.738C755.411 534.729 736.377 541.209 719.065 536.247C711.376 534.049 707.629 528.928 704.618 524.822C702.086 521.364 700.083 518.64 695.569 516.606C688.179 513.277 678.744 513.079 671.542 516.089C667.701 517.693 665.814 519.624 663.417 522.063C660.087 525.459 655.942 529.686 647.584 531.586C644.82 532.212 630.456 534.918 619.511 526.393C614.689 522.634 612.933 518.49 611.645 515.467C610.604 513.021 609.857 511.259 607.383 508.898C605.598 507.201 601.778 504.179 596.296 503.067C594.42 502.69 588.702 501.527 583.678 504.156C581.534 505.277 580.683 506.456 579.269 508.399C577.175 511.291 574.307 515.242 567.866 517.373C559.411 520.167 551.724 517.566 548.025 516.315C542.299 514.374 537.03 511.02 532.767 506.609C529.498 503.235 529.597 497.863 532.971 494.593C536.343 491.334 541.727 491.425 544.985 494.807C546.645 496.527 549.475 498.865 553.474 500.216C555.859 501.023 559.471 502.243 562.528 501.232C563.657 500.855 563.909 500.626 565.499 498.424C567.333 495.891 570.103 492.079 575.778 489.101C582.666 485.486 590.702 484.583 599.671 486.404C608.826 488.27 615.281 492.959 619.084 496.574C624.124 501.36 625.949 505.674 627.282 508.814C628.307 511.227 628.664 511.97 629.954 512.976C634.017 516.141 640.803 515.689 643.818 515.006C647.301 514.212 648.627 512.863 651.27 510.163C654.1 507.276 657.965 503.335 664.976 500.402C676.489 495.588 690.887 495.851 702.543 501.101C711.153 504.973 715.302 510.641 718.329 514.779C720.835 518.204 721.813 519.361 723.749 519.907C734.5 522.981 746.505 518.725 754.331 509.04C757.28 505.393 762.639 504.825 766.286 507.784C768.675 509.711 769.739 512.674 769.369 515.5L769.359 515.499Z"
            fill="#1E73E4" />
        <path
            d="M550.767 508.555C551.08 506.168 549.399 503.979 547.011 503.666C544.624 503.353 542.434 505.034 542.121 507.422C541.808 509.809 543.49 511.999 545.878 512.312C548.265 512.625 550.454 510.943 550.767 508.555Z"
            fill="#135689" />
        <path
            d="M548.923 508.313C549.103 506.944 548.138 505.689 546.769 505.51C545.4 505.33 544.145 506.295 543.966 507.664C543.786 509.033 544.75 510.288 546.119 510.467C547.488 510.647 548.744 509.682 548.923 508.313Z"
            fill="#64AFF2" />
        <path
            d="M563.32 510.201C563.633 507.813 561.951 505.624 559.564 505.311C557.176 504.998 554.987 506.68 554.674 509.067C554.361 511.455 556.043 513.644 558.43 513.957C560.818 514.27 563.007 512.588 563.32 510.201Z"
            fill="#135689" />
        <path
            d="M561.476 509.959C561.655 508.59 560.691 507.335 559.322 507.155C557.953 506.976 556.698 507.94 556.518 509.309C556.339 510.678 557.303 511.933 558.672 512.113C560.041 512.292 561.296 511.328 561.476 509.959Z"
            fill="#64AFF2" />
        <path
            d="M592.676 494.221C592.989 491.834 591.307 489.645 588.919 489.332C586.532 489.019 584.343 490.7 584.03 493.088C583.717 495.475 585.398 497.665 587.786 497.978C590.173 498.291 592.363 496.609 592.676 494.221Z"
            fill="#135689" />
        <path
            d="M590.831 493.98C591.011 492.611 590.047 491.355 588.678 491.176C587.309 490.996 586.053 491.961 585.874 493.33C585.694 494.699 586.659 495.954 588.028 496.133C589.397 496.313 590.652 495.349 590.831 493.98Z"
            fill="#64AFF2" />
        <path
            d="M608.734 498.203C609.047 495.815 607.366 493.626 604.978 493.313C602.59 493 600.401 494.682 600.088 497.069C599.775 499.457 601.457 501.646 603.844 501.959C606.232 502.272 608.421 500.59 608.734 498.203Z"
            fill="#135689" />
        <path
            d="M606.89 497.961C607.069 496.592 606.105 495.336 604.736 495.157C603.367 494.977 602.112 495.942 601.932 497.311C601.753 498.68 602.717 499.935 604.086 500.115C605.455 500.294 606.71 499.33 606.89 497.961Z"
            fill="#64AFF2" />
        <path
            d="M679.25 506.923C679.563 504.535 677.881 502.346 675.494 502.033C673.106 501.72 670.917 503.402 670.604 505.789C670.291 508.177 671.973 510.366 674.36 510.679C676.748 510.992 678.937 509.31 679.25 506.923Z"
            fill="#135689" />
        <path
            d="M677.406 506.681C677.585 505.312 676.621 504.056 675.252 503.877C673.883 503.697 672.627 504.662 672.448 506.031C672.269 507.4 673.233 508.655 674.602 508.834C675.971 509.014 677.226 508.05 677.406 506.681Z"
            fill="#64AFF2" />
        <path
            d="M695.687 506.556C696 504.169 694.319 501.979 691.931 501.666C689.544 501.353 687.354 503.035 687.041 505.423C686.728 507.81 688.41 509.999 690.798 510.312C693.185 510.625 695.374 508.944 695.687 506.556Z"
            fill="#135689" />
        <path
            d="M693.843 506.314C694.023 504.945 693.058 503.69 691.689 503.51C690.32 503.331 689.065 504.295 688.886 505.664C688.706 507.033 689.67 508.289 691.039 508.468C692.408 508.648 693.664 507.683 693.843 506.314Z"
            fill="#64AFF2" />
    </g>
    <g clip-path="url(#clip2_572_794)">
        <path
            d="M761.13 639.95C759.61 639.95 758.08 639.55 756.69 638.7C740.25 628.62 731.35 610.59 734.02 592.78C735.2 584.87 739.79 580.49 743.47 576.97C746.57 574.01 749.01 571.67 750.44 566.93C752.78 559.17 751.75 549.79 747.83 543.04C745.74 539.44 743.58 537.82 740.85 535.76C737.05 532.9 732.32 529.34 729.35 521.3C728.37 518.64 723.82 504.75 730.85 492.79C733.95 487.52 737.83 485.24 740.66 483.57C742.95 482.22 744.6 481.25 746.62 478.49C748.07 476.5 750.57 472.32 750.96 466.74C751.09 464.83 751.5 459.01 748.24 454.37C746.85 452.39 745.57 451.7 743.46 450.55C740.32 448.85 736.03 446.52 733.08 440.41C729.21 432.39 730.79 424.43 731.55 420.6C732.73 414.67 735.37 409.01 739.19 404.21C742.11 400.53 747.45 399.93 751.13 402.85C754.8 405.77 755.41 411.12 752.48 414.79C750.99 416.66 749.04 419.77 748.22 423.91C747.73 426.38 746.99 430.12 748.39 433.02C748.91 434.09 749.17 434.31 751.56 435.6C754.31 437.09 758.45 439.34 762.14 444.58C766.62 450.94 768.56 458.79 767.92 467.92C767.26 477.24 763.45 484.25 760.36 488.49C756.27 494.11 752.23 496.48 749.29 498.21C747.03 499.54 746.34 499.99 745.51 501.4C742.9 505.84 744.23 512.51 745.3 515.41C746.54 518.76 748.05 519.9 751.07 522.17C754.3 524.6 758.71 527.92 762.53 534.49C768.8 545.28 770.41 559.59 766.72 571.83C764 580.87 758.92 585.72 755.21 589.26C752.14 592.19 751.12 593.31 750.83 595.3C749.18 606.36 754.96 617.71 765.58 624.21C769.58 626.66 770.84 631.9 768.38 635.9C766.78 638.52 763.98 639.96 761.13 639.96V639.95Z"
            fill="#1E73E4" />
        <path
            d="M739.6 422.31C742.008 422.31 743.96 420.358 743.96 417.95C743.96 415.542 742.008 413.59 739.6 413.59C737.192 413.59 735.24 415.542 735.24 417.95C735.24 420.358 737.192 422.31 739.6 422.31Z"
            fill="#135689" />
        <path
            d="M739.6 420.45C740.98 420.45 742.1 419.331 742.1 417.95C742.1 416.569 740.98 415.45 739.6 415.45C738.219 415.45 737.1 416.569 737.1 417.95C737.1 419.331 738.219 420.45 739.6 420.45Z"
            fill="#64AFF2" />
        <path
            d="M739.6 434.97C742.008 434.97 743.96 433.018 743.96 430.61C743.96 428.202 742.008 426.25 739.6 426.25C737.192 426.25 735.24 428.202 735.24 430.61C735.24 433.018 737.192 434.97 739.6 434.97Z"
            fill="#135689" />
        <path
            d="M739.6 433.11C740.98 433.11 742.1 431.991 742.1 430.61C742.1 429.229 740.98 428.11 739.6 428.11C738.219 428.11 737.1 429.229 737.1 430.61C737.1 431.991 738.219 433.11 739.6 433.11Z"
            fill="#64AFF2" />
        <path
            d="M759.26 462C761.668 462 763.62 460.048 763.62 457.64C763.62 455.232 761.668 453.28 759.26 453.28C756.852 453.28 754.9 455.232 754.9 457.64C754.9 460.048 756.852 462 759.26 462Z"
            fill="#135689" />
        <path
            d="M759.26 460.14C760.64 460.14 761.76 459.021 761.76 457.64C761.76 456.259 760.64 455.14 759.26 455.14C757.879 455.14 756.76 456.259 756.76 457.64C756.76 459.021 757.879 460.14 759.26 460.14Z"
            fill="#64AFF2" />
        <path
            d="M757.399 478.44C759.807 478.44 761.759 476.488 761.759 474.08C761.759 471.672 759.807 469.72 757.399 469.72C754.991 469.72 753.039 471.672 753.039 474.08C753.039 476.488 754.991 478.44 757.399 478.44Z"
            fill="#135689" />
        <path
            d="M757.398 476.58C758.779 476.58 759.898 475.461 759.898 474.08C759.898 472.699 758.779 471.58 757.398 471.58C756.018 471.58 754.898 472.699 754.898 474.08C754.898 475.461 756.018 476.58 757.398 476.58Z"
            fill="#64AFF2" />
        <path
            d="M735.241 506.97C737.649 506.97 739.601 505.018 739.601 502.61C739.601 500.202 737.649 498.25 735.241 498.25C732.833 498.25 730.881 500.202 730.881 502.61C730.881 505.018 732.833 506.97 735.241 506.97Z"
            fill="#135689" />
        <path
            d="M735.24 505.11C736.621 505.11 737.74 503.991 737.74 502.61C737.74 501.229 736.621 500.11 735.24 500.11C733.86 500.11 732.74 501.229 732.74 502.61C732.74 503.991 733.86 505.11 735.24 505.11Z"
            fill="#64AFF2" />
        <path
            d="M735.241 522.28C737.649 522.28 739.601 520.328 739.601 517.92C739.601 515.512 737.649 513.56 735.241 513.56C732.833 513.56 730.881 515.512 730.881 517.92C730.881 520.328 732.833 522.28 735.241 522.28Z"
            fill="#135689" />
    </g>
    <path
        d="M713.476 525.86C744.667 525.86 769.952 512.46 769.952 495.93C769.952 479.4 744.667 466 713.476 466C682.285 466 657 479.4 657 495.93C657 512.46 682.285 525.86 713.476 525.86Z"
        fill="#1E73E4" />
    <path
        d="M691.515 479.918C695.31 479.918 698.386 478.284 698.386 476.27C698.386 474.255 695.31 472.622 691.515 472.622C687.721 472.622 684.645 474.255 684.645 476.27C684.645 478.284 687.721 479.918 691.515 479.918Z"
        fill="#73BBEF" />
    <path opacity="0.3"
        d="M734.616 478.423C737.626 478.423 740.066 477.131 740.066 475.537C740.066 473.943 737.626 472.651 734.616 472.651C731.606 472.651 729.166 473.943 729.166 475.537C729.166 477.131 731.606 478.423 734.616 478.423Z"
        fill="#164F8E" />
    <path
        d="M680.689 492.224C683.626 492.224 686.007 490.958 686.007 489.396C686.007 487.835 683.626 486.569 680.689 486.569C677.752 486.569 675.371 487.835 675.371 489.396C675.371 490.958 677.752 492.224 680.689 492.224Z"
        fill="#164F8E" />
    <path
        d="M714.121 495.842C716.144 495.842 717.784 494.97 717.784 493.894C717.784 492.817 716.144 491.945 714.121 491.945C712.099 491.945 710.459 492.817 710.459 493.894C710.459 494.97 712.099 495.842 714.121 495.842Z"
        fill="#164F8E" />
    <path
        d="M727.35 490.246C728.758 490.246 729.899 489.642 729.899 488.898C729.899 488.154 728.758 487.55 727.35 487.55C725.942 487.55 724.801 488.154 724.801 488.898C724.801 489.642 725.942 490.246 727.35 490.246Z"
        fill="#164F8E" />
    <path
        d="M757.266 489.396C759.677 489.396 761.632 488.36 761.632 487.081C761.632 485.803 759.677 484.767 757.266 484.767C754.855 484.767 752.9 485.803 752.9 487.081C752.9 488.36 754.855 489.396 757.266 489.396Z"
        fill="#164F8E" />
    <path
        d="M745.72 495.857C747.767 495.857 749.427 494.978 749.427 493.894C749.427 492.809 747.767 491.93 745.72 491.93C743.673 491.93 742.014 492.809 742.014 493.894C742.014 494.978 743.673 495.857 745.72 495.857Z"
        fill="#164F8E" />
    <path opacity="0.4"
        d="M674.126 495.505C675.801 495.505 677.159 494.784 677.159 493.894C677.159 493.004 675.801 492.282 674.126 492.282C672.451 492.282 671.094 493.004 671.094 493.894C671.094 494.784 672.451 495.505 674.126 495.505Z"
        fill="#164F8E" />
    <path
        d="M701.947 482.379C703.654 482.379 705.038 481.644 705.038 480.738C705.038 479.832 703.654 479.097 701.947 479.097C700.239 479.097 698.855 479.832 698.855 480.738C698.855 481.644 700.239 482.379 701.947 482.379Z"
        fill="#73BBEF" />
    <path opacity="0.3"
        d="M737.312 482.379C739.019 482.379 740.403 481.644 740.403 480.738C740.403 479.832 739.019 479.097 737.312 479.097C735.605 479.097 734.221 479.832 734.221 480.738C734.221 481.644 735.605 482.379 737.312 482.379Z"
        fill="#164F8E" />
    <path opacity="0.3"
        d="M744.153 479.112C745.609 479.112 746.79 478.482 746.79 477.705C746.79 476.929 745.609 476.299 744.153 476.299C742.696 476.299 741.516 476.929 741.516 477.705C741.516 478.482 742.696 479.112 744.153 479.112Z"
        fill="#164F8E" />
    <path opacity="0.5"
        d="M689.538 475.816C690.631 475.816 691.516 475.35 691.516 474.775C691.516 474.201 690.631 473.735 689.538 473.735C688.446 473.735 687.561 474.201 687.561 474.775C687.561 475.35 688.446 475.816 689.538 475.816Z"
        fill="#164F8E" />
    <path
        d="M745.34 497.776H681.612C677.874 497.776 674.844 500.806 674.844 504.544V513.51C674.844 517.248 677.874 520.278 681.612 520.278H745.34C749.078 520.278 752.108 517.248 752.108 513.51V504.544C752.108 500.806 749.078 497.776 745.34 497.776Z"
        fill="#1B61AF" />
    <path
        d="M689.303 518.418C694.489 518.418 698.693 514.213 698.693 509.027C698.693 503.841 694.489 499.636 689.303 499.636C684.116 499.636 679.912 503.841 679.912 509.027C679.912 514.213 684.116 518.418 689.303 518.418Z"
        fill="#624689" />
    <path
        d="M689.303 516.103C693.21 516.103 696.378 512.935 696.378 509.027C696.378 505.119 693.21 501.951 689.303 501.951C685.395 501.951 682.227 505.119 682.227 509.027C682.227 512.935 685.395 516.103 689.303 516.103Z"
        fill="#F1E9F4" />
    <path
        d="M689.302 515.019C692.612 515.019 695.294 512.336 695.294 509.027C695.294 505.718 692.612 503.035 689.302 503.035C685.993 503.035 683.311 505.718 683.311 509.027C683.311 512.336 685.993 515.019 689.302 515.019Z"
        fill="#29160D" />
    <path
        d="M739.553 518.418C744.739 518.418 748.943 514.213 748.943 509.027C748.943 503.841 744.739 499.636 739.553 499.636C734.366 499.636 730.162 503.841 730.162 509.027C730.162 514.213 734.366 518.418 739.553 518.418Z"
        fill="#624689" />
    <path
        d="M739.553 516.103C743.46 516.103 746.628 512.935 746.628 509.027C746.628 505.119 743.46 501.951 739.553 501.951C735.645 501.951 732.477 505.119 732.477 509.027C732.477 512.935 735.645 516.103 739.553 516.103Z"
        fill="#F1E9F4" />
    <path
        d="M739.552 515.195C742.959 515.195 745.72 512.433 745.72 509.027C745.72 505.621 742.959 502.859 739.552 502.859C736.146 502.859 733.385 505.621 733.385 509.027C733.385 512.433 736.146 515.195 739.552 515.195Z"
        fill="#29160D" />
    <path
        d="M91.2467 103.585C90.0527 103.585 89.0801 102.613 89.0801 101.419C89.0801 100.225 90.0527 99.2522 91.2467 99.2522C92.4407 99.2522 93.4133 100.225 93.4133 101.419C93.4133 102.613 92.4407 103.585 91.2467 103.585ZM91.2467 99.6436C90.2701 99.6436 89.4754 100.438 89.4754 101.415C89.4754 102.391 90.2701 103.186 91.2467 103.186C92.2233 103.186 93.018 102.391 93.018 101.415C93.018 100.438 92.2233 99.6436 91.2467 99.6436Z"
        fill="#4588BC" />
    <path
        d="M107.766 89.8818C106.145 89.8818 104.828 88.5613 104.828 86.9403C104.828 85.3193 106.145 84.0027 107.766 84.0027C109.387 84.0027 110.703 85.3193 110.703 86.9403C110.703 88.5613 109.387 89.8818 107.766 89.8818ZM107.766 84.3981C106.362 84.3981 105.223 85.5407 105.223 86.9403C105.223 88.3399 106.366 89.4865 107.766 89.4865C109.165 89.4865 110.308 88.3439 110.308 86.9403C110.308 85.5367 109.165 84.3981 107.766 84.3981Z"
        fill="#4588BC" />
    <path
        d="M86.2376 72.707C88.511 68.603 94.6115 69.2 95.9518 73.6756C97.2091 77.8468 92.9154 81.587 88.9261 79.8434C86.2692 78.7759 84.9289 75.3322 86.2376 72.707ZM87.8665 73.5254C86.455 75.949 88.0919 79.2266 90.9306 79.5548C94.0343 80.0174 96.6042 76.7398 95.4655 73.8338C94.2162 70.3743 89.2978 70.1806 87.8665 73.5254Z"
        fill="#4588BC" />
    <path
        d="M358.546 96.611C359.119 94.7804 361.298 93.7327 363.108 94.4167C366.117 95.4762 366.2 99.8056 363.255 100.976C360.558 102.118 357.565 99.4062 358.546 96.611ZM359.368 96.9193C358.396 99.1413 360.764 101.427 362.938 100.28C364.192 99.6593 364.714 98.0264 364.089 96.8086C363.152 94.8318 360.21 94.8674 359.368 96.9193Z"
        fill="#4588BC" />
    <path
        d="M338.812 103.775C337.832 103.775 337.033 102.976 337.033 101.996C337.033 101.015 337.832 100.217 338.812 100.217C339.793 100.217 340.592 101.015 340.592 101.996C340.592 102.976 339.793 103.775 338.812 103.775ZM338.812 100.612C338.049 100.612 337.429 101.233 337.429 101.996C337.429 102.759 338.049 103.38 338.812 103.38C339.575 103.38 340.196 102.759 340.196 101.996C340.196 101.233 339.575 100.612 338.812 100.612Z"
        fill="#4588BC" />
    <path
        d="M326.497 117.815C325.734 117.815 325.113 117.194 325.113 116.431C325.113 115.668 325.734 115.047 326.497 115.047C327.26 115.047 327.881 115.668 327.881 116.431C327.881 117.194 327.26 117.815 326.497 117.815ZM326.497 115.442C325.951 115.442 325.509 115.885 325.509 116.431C325.509 116.977 325.951 117.419 326.497 117.419C327.043 117.419 327.486 116.977 327.486 116.431C327.486 115.885 327.043 115.442 326.497 115.442Z"
        fill="#4588BC" />
    <path
        d="M309.243 212.573C309.816 210.743 311.995 209.695 313.806 210.379C316.815 211.438 316.898 215.768 313.952 216.938C311.256 218.081 308.263 215.368 309.243 212.573ZM310.066 212.881C309.093 215.103 311.461 217.389 313.636 216.242C314.889 215.621 315.411 213.989 314.786 212.771C313.849 210.794 310.908 210.83 310.066 212.881Z"
        fill="#4588BC" />
    <path
        d="M301.166 199.075C300.185 199.075 299.387 198.277 299.387 197.296C299.387 196.315 300.185 195.517 301.166 195.517C302.146 195.517 302.945 196.315 302.945 197.296C302.945 198.277 302.146 199.075 301.166 199.075ZM301.166 195.912C300.403 195.912 299.782 196.533 299.782 197.296C299.782 198.059 300.403 198.68 301.166 198.68C301.929 198.68 302.55 198.059 302.55 197.296C302.55 196.533 301.929 195.912 301.166 195.912Z"
        fill="#4588BC" />
    <path
        d="M314.628 185.629C313.865 185.629 313.244 185.008 313.244 184.245C313.244 183.482 313.865 182.861 314.628 182.861C315.391 182.861 316.012 183.482 316.012 184.245C316.012 185.008 315.391 185.629 314.628 185.629ZM314.628 183.256C314.082 183.256 313.64 183.699 313.64 184.245C313.64 184.79 314.082 185.233 314.628 185.233C315.174 185.233 315.616 184.79 315.616 184.245C315.616 183.699 315.174 183.256 314.628 183.256Z"
        fill="#4588BC" />
    <path
        d="M74.9537 278.976C74.3013 278.976 73.7676 278.442 73.7676 277.79C73.7676 277.137 74.3013 276.604 74.9537 276.604C75.6061 276.604 76.1398 277.137 76.1398 277.79C76.1398 278.442 75.6061 278.976 74.9537 278.976ZM74.9537 276.999C74.5188 276.999 74.1629 277.355 74.1629 277.79C74.1629 278.225 74.5188 278.58 74.9537 278.58C75.3886 278.58 75.7444 278.225 75.7444 277.79C75.7444 277.355 75.3886 276.999 74.9537 276.999Z"
        fill="#4588BC" />
    <path
        d="M78.9637 248.627C80.644 249.888 80.9326 252.494 79.5844 254.032C76.631 257.408 71.507 253.818 73.6538 249.888C74.6344 248.093 77.2201 247.441 78.9637 248.627ZM77.9199 250.122C76.6073 248.999 74.3932 249.655 73.8911 251.363C73.2268 253.308 75.1642 255.344 77.141 254.83C79.3986 254.356 79.9205 251.209 77.9238 250.122H77.9199Z"
        fill="#4588BC" />
    <path
        d="M80.8851 272.65C79.7938 272.65 78.9082 271.764 78.9082 270.673C78.9082 269.582 79.7938 268.696 80.8851 268.696C81.9763 268.696 82.8619 269.582 82.8619 270.673C82.8619 271.764 81.9763 272.65 80.8851 272.65ZM80.8851 269.091C80.0113 269.091 79.3036 269.799 79.3036 270.673C79.3036 271.547 80.0113 272.254 80.8851 272.254C81.7588 272.254 82.4665 271.547 82.4665 270.673C82.4665 269.799 81.7588 269.091 80.8851 269.091Z"
        fill="#4588BC" />
    <path
        d="M262.344 257.586C262.34 257.606 262.336 257.622 262.328 257.638C261.929 258.99 261.268 260.291 260.339 261.461L258.473 263.821H258.469L257.338 265.253C255.532 267.534 252.214 267.921 249.933 266.11L189.188 217.998C185.164 214.807 184.634 210.391 185.472 205.666C185.626 204.769 185.879 203.887 186.223 203.029L189.145 199.336L189.177 199.297L192.735 194.809C193.696 194.517 194.779 194.683 195.625 195.355L258.485 245.48C262.225 248.437 263.605 253.277 262.344 257.586Z"
        fill="#3F3F3B" />
    <path
        d="M209.218 203.013V358.829C209.218 369.733 201.251 379.368 188.426 383.966C183.377 385.777 176.565 386.639 169.495 386.639C159.038 386.639 148.011 384.753 141.278 381.262C137.379 379.242 134.197 376.909 131.702 374.209C131.397 374.26 131.089 374.292 130.769 374.292C127.701 374.292 125.21 371.801 125.21 368.733C125.21 367.46 125.645 366.289 126.364 365.352C125.21 362.079 124.648 358.429 124.648 354.365C124.648 346.232 128.788 338.831 135.723 334.569C140.969 331.343 147.525 330.394 153.708 331.967C154.875 332.264 156.373 332.837 157.618 333.462C161.058 335.193 162.956 337.601 163.256 340.622C163.581 343.888 161.774 346.964 158.658 348.458L152.518 335.664C150.917 336.431 149.24 338.396 149.106 341.049C148.968 343.82 150.585 345.73 151.391 346.22C151.146 346.074 150.49 345.805 150.181 345.714C147.702 345.09 145.144 345.434 143.156 346.659C140.455 348.32 138.842 351.202 138.842 354.365C138.842 360.473 140.309 364.771 147.813 368.662C154.863 372.319 174.228 373.979 183.634 370.607C188.888 368.721 195.024 364.506 195.024 358.829V203.013H209.218Z"
        fill="#004E7F" />
    <path
        d="M131.745 361.462C127.827 361.462 124.648 358.283 124.648 354.365C124.648 349.625 126.068 345.062 128.756 341.171C130.607 338.491 132.951 336.269 135.723 334.565C140.969 331.339 147.525 330.39 153.708 331.963C154.875 332.26 156.373 332.833 157.618 333.458C161.058 335.186 162.956 337.597 163.256 340.618C163.581 343.88 161.778 346.956 158.658 348.454C155.266 350.079 151.229 348.774 149.407 345.548C147.177 345.169 144.939 345.56 143.156 346.655C142.088 347.312 141.143 348.205 140.432 349.241C139.392 350.747 138.838 352.519 138.838 354.365C138.838 358.283 135.66 361.462 131.741 361.462H131.745ZM152.518 335.664C152.518 335.664 152.518 335.664 152.514 335.664C152.514 335.664 152.514 335.664 152.518 335.664Z"
        fill="#044260" />
    <path
        d="M202.362 375.165C201.283 376.3 200.093 377.368 198.808 378.36C198.816 378.459 198.82 378.562 198.82 378.66C198.82 381.732 196.333 384.219 193.261 384.219C192.126 384.219 191.07 383.875 190.189 383.286C189.611 383.527 189.022 383.753 188.425 383.966C182.265 386.176 174.765 386.635 169.574 386.635C168.506 386.635 167.538 386.615 166.696 386.588C162.781 386.461 159.709 383.18 159.84 379.261C159.97 375.343 163.26 372.271 167.166 372.406C173.832 372.623 179.83 371.971 183.633 370.607C187.03 369.389 190.03 367.531 192.078 365.38C194.783 362.541 199.274 362.43 202.113 365.131C204.952 367.831 205.062 372.327 202.362 375.165Z"
        fill="#044260" />
    <path
        d="M202.12 307.676C198.202 307.676 195.023 304.497 195.023 300.579V203.013C195.023 199.095 198.202 195.916 202.12 195.916C206.038 195.916 209.217 199.095 209.217 203.013V300.579C209.217 304.497 206.038 307.676 202.12 307.676Z"
        fill="#044260" />
    <path
        d="M258.746 367.42C251.677 367.42 244.865 366.558 239.82 364.747C226.994 360.149 219.027 350.514 219.027 339.61V204.611H233.221V339.61C233.221 345.287 239.357 349.502 244.612 351.388C254.018 354.76 273.383 353.1 280.432 349.443C287.936 345.552 289.403 341.255 289.403 335.146C289.403 331.979 287.79 329.101 285.086 327.436C283.097 326.215 280.539 325.871 278.064 326.491C277.756 326.582 277.099 326.851 276.854 326.997C277.657 326.507 279.274 324.598 279.136 321.826C279.005 319.173 277.329 317.208 275.727 316.441L269.587 329.235C266.472 327.741 264.665 324.665 264.989 321.399C265.29 318.374 267.187 315.967 270.627 314.239C271.873 313.614 273.371 313.041 274.537 312.744C280.721 311.171 287.276 312.12 292.523 315.346C299.458 319.612 303.597 327.013 303.597 335.146C303.597 347.612 298.315 356.156 286.968 362.039C280.235 365.53 269.208 367.416 258.75 367.416L258.746 367.42Z"
        fill="#004E7F" />
    <path
        d="M296.5 342.247C292.581 342.247 289.403 339.068 289.403 335.15C289.403 333.304 288.853 331.532 287.809 330.026C287.094 328.994 286.153 328.1 285.085 327.44C283.302 326.345 281.06 325.954 278.834 326.333C277.016 329.563 272.975 330.868 269.587 329.239C266.471 327.745 264.664 324.669 264.989 321.403C265.289 318.378 267.187 315.97 270.627 314.243C271.872 313.618 273.37 313.045 274.537 312.748C280.72 311.175 287.276 312.124 292.522 315.35C295.294 317.054 297.638 319.276 299.489 321.956C302.177 325.847 303.596 330.409 303.596 335.15C303.596 339.068 300.418 342.247 296.5 342.247ZM275.727 316.449H275.731C275.731 316.449 275.731 316.449 275.727 316.449Z"
        fill="#044260" />
    <path
        d="M268.401 360.047C268.531 363.961 265.463 367.242 261.545 367.373C260.707 367.4 259.734 367.42 258.667 367.42C257.935 367.42 257.16 367.412 256.346 367.389C255.35 368.879 253.657 369.868 251.724 369.868C249.427 369.868 247.454 368.472 246.608 366.479C244.287 366.08 241.97 365.522 239.819 364.751C234.3 362.771 229.48 359.726 225.883 355.947C223.182 353.108 223.293 348.616 226.132 345.916C228.97 343.212 233.462 343.322 236.162 346.161C238.214 348.316 241.211 350.174 244.611 351.392C248.411 352.756 254.412 353.408 261.074 353.187C264.997 353.06 268.274 356.128 268.401 360.047Z"
        fill="#044260" />
    <path
        d="M226.12 288.457C222.202 288.457 219.023 285.278 219.023 281.36V204.611C219.023 200.692 222.202 197.514 226.12 197.514C230.038 197.514 233.217 200.692 233.217 204.611V281.36C233.217 285.278 230.038 288.457 226.12 288.457Z"
        fill="#044260" />
    <path
        d="M279.362 314.741C272.288 314.741 265.48 313.879 260.431 312.068C247.605 307.47 239.639 297.839 239.639 286.931V198.925C239.639 195.007 242.817 191.828 246.736 191.828C250.654 191.828 253.832 195.007 253.832 198.925V286.931C253.832 292.608 259.969 296.823 265.223 298.709C274.633 302.081 293.994 300.421 301.048 296.763C308.552 292.873 310.019 288.575 310.019 282.467C310.019 279.3 308.405 276.422 305.701 274.757C303.918 273.662 301.68 273.27 299.45 273.65C297.632 276.88 293.591 278.185 290.199 276.556C287.083 275.061 285.276 271.986 285.604 268.72C285.905 265.695 287.803 263.287 291.242 261.56C292.488 260.935 293.986 260.362 295.153 260.065C301.336 258.492 307.891 259.44 313.138 262.667C320.073 266.929 324.212 274.33 324.212 282.467C324.212 294.933 318.93 303.477 307.583 309.36C300.85 312.851 289.823 314.737 279.365 314.737L279.362 314.741Z"
        fill="#1B6AB3" />
    <path
        d="M324.208 282.471C324.208 286.389 321.029 289.564 317.111 289.564C313.193 289.564 310.014 286.389 310.014 282.471C310.014 280.624 309.464 278.853 308.421 277.343C307.709 276.311 306.768 275.417 305.697 274.761C303.913 273.666 301.676 273.275 299.446 273.654C297.627 276.884 293.586 278.189 290.198 276.56C287.079 275.066 285.276 271.99 285.6 268.724C285.9 265.703 287.798 263.295 291.238 261.564C291.301 261.532 291.368 261.496 291.436 261.469C291.981 258.97 294.203 257.096 296.864 257.096C298.687 257.096 300.296 257.978 301.312 259.33C304.447 259.357 307.535 260.002 310.366 261.228C311.149 260.801 312.042 260.559 312.995 260.559C316.063 260.559 318.554 263.05 318.554 266.118C318.554 266.478 318.518 266.826 318.455 267.166C319.04 267.834 319.59 268.538 320.1 269.277C322.788 273.168 324.208 277.73 324.208 282.471Z"
        fill="#00578A" />
    <path
        d="M279.279 314.737C274.088 314.737 266.592 314.274 260.432 312.068C254.913 310.091 250.093 307.047 246.495 303.267C243.791 300.428 243.902 295.937 246.74 293.233C249.579 290.528 254.071 290.639 256.775 293.478C258.827 295.633 261.824 297.487 265.22 298.705C269.024 300.069 275.025 300.721 281.687 300.504C285.613 300.373 288.887 303.445 289.013 307.359C289.144 311.277 286.072 314.559 282.158 314.685C281.316 314.713 280.347 314.733 279.279 314.733V314.737Z"
        fill="#00578A" />
    <path
        d="M246.736 235.777C242.817 235.777 239.639 232.599 239.639 228.681V198.925C239.639 195.007 242.817 191.828 246.736 191.828C250.654 191.828 253.832 195.007 253.832 198.925V228.681C253.832 232.599 250.654 235.777 246.736 235.777Z"
        fill="#00578A" />
    <path
        d="M312.539 303.006C315.609 303.006 318.098 300.517 318.098 297.447C318.098 294.377 315.609 291.888 312.539 291.888C309.469 291.888 306.98 294.377 306.98 297.447C306.98 300.517 309.469 303.006 312.539 303.006Z"
        fill="#00578A" />
    <path
        d="M312.54 300.634C314.3 300.634 315.727 299.207 315.727 297.447C315.727 295.687 314.3 294.261 312.54 294.261C310.78 294.261 309.354 295.687 309.354 297.447C309.354 299.207 310.78 300.634 312.54 300.634Z"
        fill="#6E97CF" />
    <path
        d="M298.774 310.364C301.844 310.364 304.333 307.875 304.333 304.805C304.333 301.735 301.844 299.246 298.774 299.246C295.704 299.246 293.215 301.735 293.215 304.805C293.215 307.875 295.704 310.364 298.774 310.364Z"
        fill="#00578A" />
    <path
        d="M298.775 307.992C300.535 307.992 301.961 306.565 301.961 304.805C301.961 303.045 300.535 301.619 298.775 301.619C297.015 301.619 295.588 303.045 295.588 304.805C295.588 306.565 297.015 307.992 298.775 307.992Z"
        fill="#6E97CF" />
    <path
        d="M279.278 312.93C282.348 312.93 284.837 310.441 284.837 307.371C284.837 304.301 282.348 301.812 279.278 301.812C276.208 301.812 273.719 304.301 273.719 307.371C273.719 310.441 276.208 312.93 279.278 312.93Z"
        fill="#044260" />
    <path
        d="M279.278 310.558C281.038 310.558 282.465 309.131 282.465 307.371C282.465 305.611 281.038 304.185 279.278 304.185C277.519 304.185 276.092 305.611 276.092 307.371C276.092 309.131 277.519 310.558 279.278 310.558Z"
        fill="#6E97CF" />
    <path
        d="M261.873 310.364C264.943 310.364 267.432 307.875 267.432 304.805C267.432 301.735 264.943 299.246 261.873 299.246C258.803 299.246 256.314 301.735 256.314 304.805C256.314 307.875 258.803 310.364 261.873 310.364Z"
        fill="#044260" />
    <path
        d="M261.874 307.992C263.634 307.992 265.061 306.565 265.061 304.805C265.061 303.045 263.634 301.619 261.874 301.619C260.114 301.619 258.688 303.045 258.688 304.805C258.688 306.565 260.114 307.992 261.874 307.992Z"
        fill="#6E97CF" />
    <path
        d="M314.196 418.696H266.894C244.038 418.696 225.443 400.101 225.443 377.245V192.678C225.443 188.76 228.622 185.581 232.54 185.581C236.458 185.581 239.637 188.76 239.637 192.678V377.245C239.637 392.273 251.866 404.502 266.894 404.502H314.196C329.224 404.502 341.453 392.273 341.453 377.245V369.867C341.453 354.839 329.224 342.611 314.196 342.611C300.16 342.611 288.232 353.546 287.038 367.511C287.038 367.543 287.034 367.582 287.03 367.618C287.014 368.033 287.184 368.531 287.497 368.986L288.177 369.97C290.399 373.2 289.58 377.617 286.35 379.839C283.12 382.061 278.704 381.242 276.482 378.012L275.802 377.024C273.766 374.062 272.714 370.532 272.844 367.084C272.852 366.827 272.868 366.566 272.892 366.305C273.773 355.99 278.459 346.438 286.085 339.396C293.759 332.315 303.742 328.413 314.188 328.413C337.045 328.413 355.639 347.007 355.639 369.863V377.241C355.639 400.097 337.045 418.692 314.188 418.692L314.196 418.696Z"
        fill="#1B6AB3" />
    <path
        d="M344.101 351.526C341.243 354.207 336.751 354.068 334.071 351.21C328.86 345.667 321.802 342.611 314.195 342.611C300.16 342.611 288.231 353.547 287.041 367.507C287.037 367.539 287.033 367.578 287.033 367.618C287.018 368.033 287.188 368.527 287.5 368.982L288.18 369.97C290.402 373.196 289.584 377.617 286.353 379.839C285.128 380.685 283.724 381.088 282.34 381.088C280.083 381.088 277.861 380.013 276.485 378.012L275.805 377.024C274.564 375.217 273.69 373.196 273.227 371.113C273.223 371.101 273.223 371.089 273.219 371.077C270.934 370.385 269.273 368.274 269.273 365.764C269.273 363.028 271.254 360.758 273.86 360.299C274.698 356.765 275.987 353.373 277.703 350.198C276.892 349.233 276.406 347.992 276.406 346.632C276.406 343.563 278.893 341.073 281.965 341.073C282.684 341.073 283.372 341.215 284.005 341.468C284.673 340.756 285.369 340.068 286.092 339.4C289.287 336.455 292.877 334.059 296.732 332.268C296.949 329.393 299.341 327.128 302.271 327.128C303.987 327.128 305.521 327.907 306.541 329.125C309.044 328.658 311.606 328.417 314.195 328.417C325.594 328.417 336.609 333.185 344.414 341.496C347.098 344.35 346.956 348.842 344.101 351.526Z"
        fill="#00578A" />
    <path
        d="M314.197 418.696C310.278 418.696 307.1 415.517 307.1 411.599C307.1 407.68 310.278 404.502 314.197 404.502C325.429 404.502 335.665 397.456 339.67 386.967C341.07 383.306 345.17 381.471 348.831 382.871C352.492 384.271 354.327 388.371 352.927 392.032C349.962 399.789 344.79 406.419 337.966 411.203C330.976 416.102 322.756 418.692 314.197 418.692V418.696Z"
        fill="#00578A" />
    <path
        d="M232.54 333.406C228.622 333.406 225.443 330.228 225.443 326.309V192.678C225.443 188.76 228.622 185.581 232.54 185.581C236.458 185.581 239.637 188.76 239.637 192.678V326.309C239.637 330.228 236.458 333.406 232.54 333.406Z"
        fill="#00578A" />
    <path
        d="M279.588 417.189C282.658 417.189 285.147 414.701 285.147 411.63C285.147 408.56 282.658 406.072 279.588 406.072C276.518 406.072 274.029 408.56 274.029 411.63C274.029 414.701 276.518 417.189 279.588 417.189Z"
        fill="#00578A" />
    <path
        d="M279.589 414.817C281.349 414.817 282.776 413.39 282.776 411.631C282.776 409.871 281.349 408.444 279.589 408.444C277.829 408.444 276.402 409.871 276.402 411.631C276.402 413.39 277.829 414.817 279.589 414.817Z"
        fill="#6E97CF" />
    <path
        d="M261.311 416.442C264.381 416.442 266.87 413.953 266.87 410.883C266.87 407.813 264.381 405.324 261.311 405.324C258.241 405.324 255.752 407.813 255.752 410.883C255.752 413.953 258.241 416.442 261.311 416.442Z"
        fill="#00578A" />
    <path
        d="M261.312 414.07C263.072 414.07 264.498 412.643 264.498 410.883C264.498 409.123 263.072 407.697 261.312 407.697C259.552 407.697 258.125 409.123 258.125 410.883C258.125 412.643 259.552 414.07 261.312 414.07Z"
        fill="#6E97CF" />
    <path
        d="M298.037 417.189C301.108 417.189 303.596 414.701 303.596 411.63C303.596 408.56 301.108 406.072 298.037 406.072C294.967 406.072 292.479 408.56 292.479 411.63C292.479 414.701 294.967 417.189 298.037 417.189Z"
        fill="#00578A" />
    <path
        d="M298.038 414.817C299.798 414.817 301.225 413.39 301.225 411.631C301.225 409.871 299.798 408.444 298.038 408.444C296.278 408.444 294.852 409.871 294.852 411.631C294.852 413.39 296.278 414.817 298.038 414.817Z"
        fill="#6E97CF" />
    <path
        d="M193.073 439.615H159.838C144.122 439.615 131.34 426.828 131.34 411.116C131.34 410.8 131.344 410.484 131.356 410.167C131.577 403.502 134.305 397.168 139.038 392.332C143.43 387.845 149.642 385.243 156.078 385.188C156.098 385.188 156.118 385.188 156.137 385.188C160.028 385.188 163.199 388.327 163.23 392.226C163.262 396.144 160.111 399.346 156.193 399.382C153.504 399.406 150.946 400.453 149.175 402.26C146.929 404.553 145.636 407.526 145.534 410.638C145.53 410.796 145.526 410.954 145.526 411.116C145.526 419.004 151.943 425.421 159.83 425.421H193.065C200.953 425.421 207.37 419.004 207.37 411.116V192.678C207.37 188.76 210.548 185.581 214.466 185.581C218.385 185.581 221.563 188.76 221.563 192.678V411.116C221.563 426.832 208.777 439.615 193.065 439.615H193.073Z"
        fill="#1B6AB3" />
    <path
        d="M166.934 432.522C166.934 436.44 163.755 439.619 159.837 439.619C145.126 439.619 132.984 428.414 131.493 414.093C129.619 413.196 128.322 411.29 128.322 409.076C128.322 406.53 130.038 404.391 132.375 403.731H132.379C133.593 399.492 135.866 395.578 139.037 392.336C139.191 392.178 139.349 392.024 139.507 391.874C139.468 391.605 139.44 391.328 139.44 391.047C139.44 387.979 141.927 385.492 144.999 385.492C146.213 385.492 147.328 385.884 148.245 386.548C150.736 385.682 153.389 385.216 156.077 385.192H156.137C160.031 385.192 163.202 388.331 163.233 392.229C163.265 396.148 160.114 399.35 156.196 399.386C153.507 399.409 150.949 400.457 149.178 402.264C146.936 404.557 145.643 407.534 145.541 410.642C145.533 410.8 145.533 410.958 145.533 411.12C145.533 419.008 151.95 425.425 159.837 425.425C163.755 425.425 166.934 428.6 166.934 432.522Z"
        fill="#00578A" />
    <path
        d="M214.474 367.736C210.556 367.736 207.377 364.558 207.377 360.639V192.678C207.377 188.76 210.556 185.581 214.474 185.581C218.392 185.581 221.571 188.76 221.571 192.678V360.639C221.571 364.558 218.392 367.736 214.474 367.736Z"
        fill="#00578A" />
    <path
        d="M192.575 438.314C195.645 438.314 198.133 435.825 198.133 432.755C198.133 429.685 195.645 427.196 192.575 427.196C189.504 427.196 187.016 429.685 187.016 432.755C187.016 435.825 189.504 438.314 192.575 438.314Z"
        fill="#00578A" />
    <path
        d="M192.575 435.942C194.335 435.942 195.762 434.515 195.762 432.755C195.762 430.995 194.335 429.568 192.575 429.568C190.815 429.568 189.389 430.995 189.389 432.755C189.389 434.515 190.815 435.942 192.575 435.942Z"
        fill="#6E97CF" />
    <path
        d="M176.455 438.314C179.525 438.314 182.014 435.825 182.014 432.755C182.014 429.685 179.525 427.196 176.455 427.196C173.385 427.196 170.896 429.685 170.896 432.755C170.896 435.825 173.385 438.314 176.455 438.314Z"
        fill="#00578A" />
    <path
        d="M176.456 435.942C178.216 435.942 179.643 434.515 179.643 432.755C179.643 430.995 178.216 429.568 176.456 429.568C174.696 429.568 173.27 430.995 173.27 432.755C173.27 434.515 174.696 435.942 176.456 435.942Z"
        fill="#6E97CF" />
    <path
        d="M157.592 438.314C160.662 438.314 163.151 435.825 163.151 432.755C163.151 429.685 160.662 427.196 157.592 427.196C154.522 427.196 152.033 429.685 152.033 432.755C152.033 435.825 154.522 438.314 157.592 438.314Z"
        fill="#044260" />
    <path
        d="M157.593 435.942C159.353 435.942 160.78 434.515 160.78 432.755C160.78 430.995 159.353 429.568 157.593 429.568C155.833 429.568 154.406 430.995 154.406 432.755C154.406 434.515 155.833 435.942 157.593 435.942Z"
        fill="#6E97CF" />
    <path
        d="M127.392 353.448C107.422 353.448 90.2905 338.803 87.3054 318.983C86.578 314.144 87.8945 309.119 90.927 305.201C93.323 302.101 97.7828 301.532 100.882 303.928C103.982 306.323 104.552 310.783 102.156 313.883C101.483 314.753 101.187 315.84 101.341 316.868C103.314 329.967 114.815 339.582 128.084 339.246L154.024 338.574C174.504 338.044 190.549 321.581 190.549 301.093V192.678C190.549 188.76 193.727 185.581 197.645 185.581C201.564 185.581 204.742 188.76 204.742 192.678V301.093C204.742 314.646 199.531 327.46 190.074 337.166C180.613 346.873 167.941 352.412 154.392 352.764L128.452 353.436C128.1 353.444 127.744 353.452 127.396 353.452L127.392 353.448Z"
        fill="#1B6AB3" />
    <path
        d="M107.545 340.74C106.185 341.994 104.465 342.611 102.749 342.611C100.831 342.611 98.9177 341.836 97.5181 340.313C95.1854 337.771 93.2006 334.972 91.6073 331.979C88.6143 331.892 86.2144 329.445 86.2144 326.432C86.2144 324.835 86.8905 323.399 87.9659 322.387C87.701 321.268 87.4796 320.134 87.3057 318.987C87.1831 318.169 87.1159 317.342 87.1119 316.524C85.7044 315.516 84.7832 313.871 84.7832 312.005C84.7832 309.04 87.108 306.624 90.0377 306.462C90.3105 306.031 90.607 305.612 90.9233 305.205C93.3232 302.105 97.779 301.535 100.879 303.931C103.978 306.331 104.548 310.787 102.152 313.887C101.48 314.757 101.183 315.844 101.337 316.872C102.116 322.047 104.413 326.835 107.976 330.714C110.625 333.6 110.431 338.091 107.545 340.74Z"
        fill="#00578A" />
    <path
        d="M197.646 288.077C193.728 288.077 190.549 284.898 190.549 280.98V192.678C190.549 188.76 193.728 185.581 197.646 185.581C201.564 185.581 204.743 188.76 204.743 192.678V280.98C204.743 284.898 201.564 288.077 197.646 288.077Z"
        fill="#00578A" />
    <path
        d="M128.045 351.597C131.115 351.597 133.604 349.108 133.604 346.038C133.604 342.968 131.115 340.479 128.045 340.479C124.975 340.479 122.486 342.968 122.486 346.038C122.486 349.108 124.975 351.597 128.045 351.597Z"
        fill="#00578A" />
    <path
        d="M128.046 349.225C129.806 349.225 131.233 347.798 131.233 346.038C131.233 344.279 129.806 342.852 128.046 342.852C126.286 342.852 124.859 344.279 124.859 346.038C124.859 347.798 126.286 349.225 128.046 349.225Z"
        fill="#6E97CF" />
    <path
        d="M145.33 351.597C148.4 351.597 150.889 349.108 150.889 346.038C150.889 342.968 148.4 340.479 145.33 340.479C142.26 340.479 139.771 342.968 139.771 346.038C139.771 349.108 142.26 351.597 145.33 351.597Z"
        fill="#00578A" />
    <path
        d="M145.331 349.225C147.091 349.225 148.518 347.798 148.518 346.038C148.518 344.279 147.091 342.852 145.331 342.852C143.571 342.852 142.145 344.279 142.145 346.038C142.145 347.798 143.571 349.225 145.331 349.225Z"
        fill="#6E97CF" />
    <path
        d="M162.553 349.929C165.623 349.929 168.112 347.44 168.112 344.37C168.112 341.3 165.623 338.811 162.553 338.811C159.483 338.811 156.994 341.3 156.994 344.37C156.994 347.44 159.483 349.929 162.553 349.929Z"
        fill="#00578A" />
    <path
        d="M162.554 347.557C164.314 347.557 165.741 346.13 165.741 344.37C165.741 342.61 164.314 341.183 162.554 341.183C160.794 341.183 159.367 342.61 159.367 344.37C159.367 346.13 160.794 347.557 162.554 347.557Z"
        fill="#6E97CF" />
    <path
        d="M258.473 266.407H258.469L257.338 267.838C255.531 270.119 252.214 270.507 249.933 268.696L189.188 220.583C185.163 217.393 183.447 212.372 184.286 207.647L204.604 223.739L258.473 266.407Z"
        fill="#E73836" />
    <path
        d="M262.343 260.172C262.339 260.192 262.335 260.208 262.327 260.223C261.928 261.576 261.268 262.876 260.339 264.047L258.472 266.407H258.468L204.603 223.739L184.285 207.647C184.439 206.75 184.692 205.868 185.036 205.01L187.958 201.317L187.99 201.278L262.343 260.172Z"
        fill="#EBE32D" />
    <path
        d="M262.344 260.172C262.34 260.192 262.336 260.208 262.328 260.223L187.959 201.317L187.991 201.278L191.549 196.79C192.51 196.498 193.593 196.664 194.439 197.336L258.485 248.066C262.225 251.023 263.605 255.862 262.344 260.172Z"
        fill="#11110F" />
    <path
        d="M213.434 232.943L215.229 226.447L223.812 226.522L225.492 233.053C225.749 234.058 225.386 235.117 224.563 235.746L219.408 239.692L214.319 235.647C213.509 235.003 213.161 233.939 213.438 232.939L213.434 232.943Z"
        fill="#F0EB85" />
    <path
        d="M219.403 239.889C219.36 239.889 219.316 239.874 219.28 239.846L214.192 235.801C213.318 235.105 212.947 233.963 213.243 232.887L215.038 226.391C215.062 226.304 215.141 226.245 215.228 226.245L223.811 226.32C223.902 226.32 223.977 226.383 224.001 226.47L225.682 233.002C225.958 234.085 225.567 235.22 224.681 235.9L219.526 239.846C219.49 239.874 219.447 239.885 219.407 239.885L219.403 239.889ZM215.378 226.644L213.627 232.994C213.374 233.915 213.69 234.896 214.441 235.493L219.407 239.439L224.44 235.588C225.199 235.007 225.539 234.03 225.298 233.101L223.657 226.716L215.378 226.644Z"
        fill="#1D1D1B" />
    <path
        d="M217.434 228.791C217.434 228.791 217.438 228.242 217.604 228.159C217.668 228.309 217.644 228.281 217.727 228.265C217.81 228.25 217.723 227.945 217.921 227.862C217.944 228.072 217.936 228.139 218.031 228.131C218.126 228.123 218.067 227.803 218.201 227.755C218.241 227.937 218.201 228.008 218.308 227.997C218.415 227.985 218.529 227.668 218.624 227.668C218.719 227.668 219.15 228.522 218.549 228.704C218.952 229.159 218.45 230.543 218.403 230.63C218.355 230.717 218.589 231.48 219.245 231.519C219.431 230.25 219.917 229.689 220.352 229.452C220.787 229.214 222.483 228.352 222.471 227.929C222.665 228.522 221.866 228.779 221.886 228.87C221.906 228.961 222.657 228.748 222.764 228.724C222.871 228.7 221.866 229.226 221.854 229.357C221.843 229.487 223.294 229.467 223.001 231.365C222.649 230.163 221.918 230.088 221.53 230.096C221.143 230.104 221.74 230.899 222.202 231.009C221.495 230.946 221.313 230.938 221.582 230.997C221.851 231.057 223.151 231.547 223.104 232.883C223.056 234.22 222.032 235.018 222.459 235.722C222.297 235.829 222.191 235.208 222.218 234.88C222.246 234.552 221.657 235.295 221.851 235.584C221.238 235.548 222.167 234.35 222.408 234.062C222.649 233.773 221.522 234.109 221.57 234.572C221.617 235.034 221.364 235.481 221.02 235.655C220.676 235.829 220.048 234.69 220.85 234.026C221.653 233.366 221.265 232.532 220.546 232.591C219.826 232.65 219.897 232.753 220.107 233.204C220.317 233.654 219.708 234.346 219.593 234.493C219.478 234.639 218.85 235.097 218.968 235.244C219.087 235.39 219.395 235.351 219.332 235.394C219.269 235.437 218.945 235.37 218.921 235.37C218.897 235.37 218.692 235.623 219.079 235.94C219.079 235.94 219.162 236.28 219.079 236.256C218.996 236.232 218.83 235.837 218.759 235.845C218.688 235.853 218.158 235.936 218.047 236.371C217.64 236.335 218.221 235.999 218.17 235.904C218.118 235.809 217.624 235.912 217.486 235.999C217.347 236.086 217.375 235.679 217.573 235.675C217.77 235.671 218.253 235.698 218.253 235.698C218.253 235.698 218.779 235.165 218.767 234.947C218.755 234.73 218.98 234.56 218.98 234.56L218.34 233.951L217.786 234.125C217.786 234.125 217.031 233.635 216.857 233.65C216.683 233.666 216.711 233.797 216.679 233.797C216.647 233.797 216.723 233.571 216.636 233.548C216.549 233.524 216.323 233.389 216.232 233.417C216.141 233.445 216.387 233.793 216.359 233.836C216.331 233.88 216.114 233.816 216.086 233.745C216.058 233.674 216.177 233.512 216.153 233.476C216.13 233.441 215.79 233.318 215.687 233.445C215.663 233.508 215.635 233.793 215.505 233.793C215.374 233.793 215.39 233.532 215.564 233.469C215.651 233.342 215.449 233.271 215.315 233.346C215.181 233.421 214.916 233.457 214.943 233.346C214.971 233.235 215.568 233.053 215.746 233.061C215.924 233.069 217.244 233.536 217.312 233.504C217.359 233.382 217.541 233.16 217.422 233.053C217.304 232.947 216.074 231.804 216.26 230.784C216.446 229.764 216.92 229.673 217.043 229.641C217.165 229.61 217.395 229.748 217.422 229.697C217.45 229.645 217.517 229.301 217.458 229.341C217.399 229.38 217.331 229.614 217.256 229.566C217.181 229.519 217.292 229.278 217.339 229.254C217.387 229.23 217.695 229.242 217.695 229.242C217.695 229.242 217.608 228.997 217.446 229.044C217.284 229.092 217.399 229.159 217.32 229.155C217.24 229.151 217.272 228.946 217.395 228.886C217.446 228.847 217.434 228.787 217.434 228.787V228.791Z"
        fill="#E30613" />
    <path
        d="M270.053 186.949H263.047C257.832 186.949 255.4 180.533 259.271 177.034C273.113 164.52 280.55 145.052 276.07 124.141C271.516 102.886 254.523 86.4225 233.161 82.3937C198.139 75.7871 167.557 102.467 167.557 136.291C167.557 152.477 174.563 167.027 185.705 177.077C189.555 180.548 187.069 186.949 181.881 186.949H174.871C170.04 186.949 165.948 190.737 165.825 195.568C165.695 200.562 169.708 204.654 174.674 204.654H270.251C275.216 204.654 279.225 200.566 279.099 195.568C278.976 190.737 274.884 186.949 270.053 186.949Z"
        fill="#1B6AB3" />
    <path
        d="M198.634 110.133C202.634 110.133 205.877 106.89 205.877 102.89C205.877 98.8894 202.634 95.6465 198.634 95.6465C194.634 95.6465 191.391 98.8894 191.391 102.89C191.391 106.89 194.634 110.133 198.634 110.133Z"
        fill="#6E97CF" />
    <path
        d="M212.895 180.224C215.969 180.224 218.462 177.732 218.462 174.657C218.462 171.583 215.969 169.091 212.895 169.091C209.82 169.091 207.328 171.583 207.328 174.657C207.328 177.732 209.82 180.224 212.895 180.224Z"
        fill="#6E97CF" />
    <path opacity="0.7"
        d="M231.806 178.022C233.664 178.022 235.171 176.516 235.171 174.657C235.171 172.799 233.664 171.293 231.806 171.293C229.948 171.293 228.441 172.799 228.441 174.657C228.441 176.516 229.948 178.022 231.806 178.022Z"
        fill="#00578A" />
    <path opacity="0.5"
        d="M206.369 163.797C208.227 163.797 209.733 162.29 209.733 160.432C209.733 158.574 208.227 157.067 206.369 157.067C204.51 157.067 203.004 158.574 203.004 160.432C203.004 162.29 204.51 163.797 206.369 163.797Z"
        fill="#00578A" />
    <path opacity="0.3"
        d="M244.071 107.16C247.241 107.16 249.812 104.59 249.812 101.419C249.812 98.2485 247.241 95.6782 244.071 95.6782C240.9 95.6782 238.33 98.2485 238.33 101.419C238.33 104.59 240.9 107.16 244.071 107.16Z"
        fill="#00578A" />
    <path
        d="M187.235 134.614C190.334 134.614 192.846 132.102 192.846 129.004C192.846 125.905 190.334 123.394 187.235 123.394C184.137 123.394 181.625 125.905 181.625 129.004C181.625 132.102 184.137 134.614 187.235 134.614Z"
        fill="#00578A" />
    <path
        d="M222.462 141.786C224.598 141.786 226.329 140.055 226.329 137.919C226.329 135.784 224.598 134.053 222.462 134.053C220.327 134.053 218.596 135.784 218.596 137.919C218.596 140.055 220.327 141.786 222.462 141.786Z"
        fill="#00578A" />
    <path
        d="M236.407 130.688C237.89 130.688 239.092 129.486 239.092 128.004C239.092 126.521 237.89 125.319 236.407 125.319C234.925 125.319 233.723 126.521 233.723 128.004C233.723 129.486 234.925 130.688 236.407 130.688Z"
        fill="#00578A" />
    <path
        d="M231.805 153.141C234.349 153.141 236.411 151.079 236.411 148.535C236.411 145.991 234.349 143.929 231.805 143.929C229.261 143.929 227.199 145.991 227.199 148.535C227.199 151.079 229.261 153.141 231.805 153.141Z"
        fill="#00578A" />
    <path
        d="M258.027 156.344C260.182 156.344 261.93 154.597 261.93 152.441C261.93 150.286 260.182 148.539 258.027 148.539C255.872 148.539 254.125 150.286 254.125 152.441C254.125 154.597 255.872 156.344 258.027 156.344Z"
        fill="#00578A" />
    <path
        d="M260.68 165.738C262.145 165.738 263.333 164.55 263.333 163.085C263.333 161.62 262.145 160.432 260.68 160.432C259.215 160.432 258.027 161.62 258.027 163.085C258.027 164.55 259.215 165.738 260.68 165.738Z"
        fill="#00578A" />
    <path opacity="0.4"
        d="M180.314 141.122C182.083 141.122 183.516 139.688 183.516 137.92C183.516 136.151 182.083 134.717 180.314 134.717C178.545 134.717 177.111 136.151 177.111 137.92C177.111 139.688 178.545 141.122 180.314 141.122Z"
        fill="#00578A" />
    <path
        d="M209.633 115.047C211.434 115.047 212.895 113.587 212.895 111.785C212.895 109.984 211.434 108.524 209.633 108.524C207.831 108.524 206.371 109.984 206.371 111.785C206.371 113.587 207.831 115.047 209.633 115.047Z"
        fill="#6E97CF" />
    <path opacity="0.3"
        d="M246.912 115.047C248.714 115.047 250.174 113.587 250.174 111.785C250.174 109.984 248.714 108.524 246.912 108.524C245.111 108.524 243.65 109.984 243.65 111.785C243.65 113.587 245.111 115.047 246.912 115.047Z"
        fill="#00578A" />
    <path opacity="0.3"
        d="M254.125 108.52C255.662 108.52 256.909 107.274 256.909 105.736C256.909 104.199 255.662 102.953 254.125 102.953C252.588 102.953 251.342 104.199 251.342 105.736C251.342 107.274 252.588 108.52 254.125 108.52Z"
        fill="#00578A" />
    <path opacity="0.5"
        d="M196.554 101.996C197.703 101.996 198.634 101.065 198.634 99.9166C198.634 98.768 197.703 97.8369 196.554 97.8369C195.406 97.8369 194.475 98.768 194.475 99.9166C194.475 101.065 195.406 101.996 196.554 101.996Z"
        fill="#00578A" />
    <path
        d="M181.582 163.797C181.582 160.725 179.091 158.23 176.015 158.23C174.742 158.23 173.576 158.661 172.635 159.38C174.196 162.745 176.086 165.928 178.269 168.881C180.218 168.015 181.578 166.066 181.578 163.797H181.582Z"
        fill="#6E97CF" />
    <path
        d="M269.176 130.68C269.176 134.681 272.418 137.923 276.419 137.923C276.735 137.923 277.044 137.9 277.348 137.86C277.475 133.4 277.071 128.806 276.071 124.141C276.024 123.911 275.968 123.686 275.917 123.457C272.153 123.714 269.176 126.849 269.176 130.68Z"
        fill="#6E97CF" />
    <path
        d="M175.96 202.709C179.775 202.709 182.867 199.616 182.867 195.802C182.867 191.987 179.775 188.895 175.96 188.895C172.145 188.895 169.053 191.987 169.053 195.802C169.053 199.616 172.145 202.709 175.96 202.709Z"
        fill="#00578A" />
    <path
        d="M175.959 201.009C178.835 201.009 181.166 198.678 181.166 195.802C181.166 192.926 178.835 190.595 175.959 190.595C173.083 190.595 170.752 192.926 170.752 195.802C170.752 198.678 173.083 201.009 175.959 201.009Z"
        fill="#F1EAF4" />
    <path
        d="M175.959 198.925C177.684 198.925 179.083 197.527 179.083 195.802C179.083 194.077 177.684 192.678 175.959 192.678C174.234 192.678 172.836 194.077 172.836 195.802C172.836 197.527 174.234 198.925 175.959 198.925Z"
        fill="#AF251A" />
    <path
        d="M268.841 202.709C272.655 202.709 275.748 199.616 275.748 195.802C275.748 191.987 272.655 188.895 268.841 188.895C265.026 188.895 261.934 191.987 261.934 195.802C261.934 199.616 265.026 202.709 268.841 202.709Z"
        fill="#00578A" />
    <path
        d="M268.84 201.009C271.716 201.009 274.047 198.678 274.047 195.802C274.047 192.926 271.716 190.595 268.84 190.595C265.964 190.595 263.633 192.926 263.633 195.802C263.633 198.678 265.964 201.009 268.84 201.009Z"
        fill="#F1EAF4" />
    <path
        d="M268.84 198.925C270.565 198.925 271.964 197.527 271.964 195.802C271.964 194.077 270.565 192.678 268.84 192.678C267.115 192.678 265.717 194.077 265.717 195.802C265.717 197.527 267.115 198.925 268.84 198.925Z"
        fill="#AF251A" />
    <path opacity="0.15"
        d="M270.057 208.347C276.985 208.347 282.602 202.73 282.602 195.802C282.602 188.873 276.985 183.257 270.057 183.257C263.128 183.257 257.512 188.873 257.512 195.802C257.512 202.73 263.128 208.347 270.057 208.347Z"
        fill="white" />
    <path opacity="0.15"
        d="M175.168 208.347C182.097 208.347 187.713 202.73 187.713 195.802C187.713 188.873 182.097 183.257 175.168 183.257C168.24 183.257 162.623 188.873 162.623 195.802C162.623 202.73 168.24 208.347 175.168 208.347Z"
        fill="white" />
    <path
        d="M270.058 182.557C263.135 182.557 257.437 187.898 256.864 194.675L188.386 194.968C187.955 188.053 182.194 182.557 175.169 182.557C168.143 182.557 161.924 188.499 161.924 195.802C161.924 203.104 167.866 209.047 175.169 209.047C182.471 209.047 187.947 203.555 188.382 196.644L256.825 196.351C257.113 203.401 262.937 209.047 270.058 209.047C277.178 209.047 283.303 203.104 283.303 195.802C283.303 188.499 277.36 182.557 270.058 182.557ZM175.169 207.477C168.732 207.477 163.493 202.238 163.493 195.802C163.493 189.365 168.732 184.127 175.169 184.127C181.605 184.127 186.844 189.365 186.844 195.802C186.844 202.238 181.605 207.477 175.169 207.477ZM270.058 207.477C263.621 207.477 258.382 202.238 258.382 195.802C258.382 189.365 263.621 184.127 270.058 184.127C276.494 184.127 281.733 189.365 281.733 195.802C281.733 202.238 276.494 207.477 270.058 207.477Z"
        fill="#56B038" />
    <path
        d="M218.525 84.8213L183.503 99.7307C183.135 99.8888 182.704 99.7228 182.546 99.359L174.259 80.5394C174.101 80.1756 174.267 79.7566 174.638 79.5984L209.66 64.689C210.028 64.5308 210.459 64.6969 210.617 65.0606L218.904 83.8803C219.062 84.244 218.896 84.6631 218.525 84.8213Z"
        fill="#733C2A" />
    <path d="M219.192 84.5365L182.834 100.019L180.73 95.2432L217.089 79.7644L219.192 84.5365Z" fill="#5D2617" />
    <path
        d="M224.887 84.5722L178.965 104.123C178.7 104.238 178.391 104.115 178.277 103.854L176.371 99.529C176.256 99.2681 176.379 98.9676 176.644 98.8529L222.566 79.3019C222.831 79.1872 223.139 79.3098 223.254 79.5707L225.16 83.8961C225.274 84.157 225.152 84.4575 224.887 84.5722Z"
        fill="#733C2A" />
</svg>