<svg width="1933" height="394" viewBox="0 0 1933 394" fill="none" xmlns="http://www.w3.org/2000/svg">
<g clip-path="url(#clip0_2309_21)">
<path d="M677.81 143.72C677.81 174.2 669.66 191.1 647.93 195.62V196.52C675.69 200.44 683.54 221.57 683.54 250.84C683.54 300.94 656.99 313.61 605.08 313.61C584.56 313.61 540.2 312.7 516.06 310.89C512.44 310.59 511.53 309.99 511.53 306.67V86.38C511.53 83.06 512.43 82.46 516.06 82.16C540.2 80.35 576.11 79.75 596.94 79.75C651.86 79.75 677.81 94.54 677.81 143.73V143.72ZM550.46 113.54V182.04H584.56C624.39 182.04 638.88 179.63 638.88 148.54C638.88 119.87 624.7 113.53 593.31 113.53H550.46V113.54ZM550.46 211.32V279.82H603.87C631.93 279.82 644.61 273.78 644.61 247.23C644.61 217.66 629.82 211.32 604.47 211.32H550.45H550.46Z" fill="url(#paint0_linear_2309_21)"/>
<path d="M749.05 81.25C752.07 81.25 753.58 82.76 753.58 85.78V307.58C753.58 310.6 752.07 312.11 749.05 312.11H721.59C718.57 312.11 717.06 310.6 717.06 307.58V85.78C717.06 82.76 718.57 81.25 721.59 81.25H749.05Z" fill="url(#paint1_linear_2309_21)"/>
<path d="M934.34 228.819C934.34 296.719 921.06 313.619 860.71 313.619C800.36 313.619 787.38 296.719 787.38 228.819C787.38 160.919 800.36 143.719 860.71 143.719C921.06 143.719 934.34 160.619 934.34 228.819ZM823.89 228.819C823.89 271.369 828.42 281.929 860.71 281.929C893 281.929 897.53 271.369 897.53 228.819C897.53 186.269 893 175.409 860.71 175.409C828.42 175.409 823.89 185.969 823.89 228.819Z" fill="url(#paint2_linear_2309_21)"/>
<path d="M1084.03 147.039C1087.05 147.639 1088.56 149.149 1088.56 152.469V170.879C1088.56 173.899 1087.05 175.409 1083.73 175.409H1036.35C1004.06 175.409 999.84 185.969 999.84 228.519C999.84 271.069 1004.06 281.929 1036.35 281.929H1083.73C1087.05 281.929 1088.56 283.439 1088.56 286.459V304.869C1088.56 308.189 1087.05 309.699 1084.03 310.299C1068.04 313.019 1048.42 313.619 1036.35 313.619C975.09 313.619 963.02 296.719 963.02 228.519C963.02 160.319 975.09 143.719 1036.35 143.719C1048.42 143.719 1068.04 144.319 1084.03 147.039Z" fill="url(#paint3_linear_2309_21)"/>
<path d="M1150.43 81.5608C1153.45 81.5608 1154.96 83.3708 1154.96 86.3908V203.481L1201.43 148.261C1202.94 146.451 1205.05 145.241 1207.77 145.241H1240.36C1245.79 145.241 1246.09 147.651 1243.08 150.971L1192.08 211.021L1258.47 303.971C1261.19 307.591 1261.49 312.121 1253.34 312.121H1224.07C1221.05 312.121 1218.94 310.611 1217.43 308.801L1154.96 219.181V307.301C1154.96 310.621 1153.45 312.131 1150.43 312.131H1122.97C1119.95 312.131 1118.44 310.621 1118.44 307.301V86.3808C1118.44 83.3608 1119.95 81.5508 1122.97 81.5508H1150.43V81.5608Z" fill="url(#paint4_linear_2309_21)"/>
<path d="M1416 225.499V234.549C1416 240.279 1414.19 242.699 1405.74 242.699H1310.08C1310.98 274.689 1318.23 281.929 1347.5 281.929H1399.1C1402.12 281.929 1403.63 283.439 1403.63 286.459V305.169C1403.63 308.489 1402.12 309.699 1399.41 310.299C1383.42 312.709 1364.71 313.619 1345.39 313.619C1286.55 313.619 1273.27 296.719 1273.27 228.819C1273.27 160.919 1286.55 143.719 1345.39 143.719C1404.23 143.719 1415.4 160.009 1416.01 225.499H1416ZM1310.08 216.439H1379.19C1378.89 183.849 1372.25 175.399 1345.39 175.399C1318.53 175.399 1310.39 183.849 1310.08 216.439Z" fill="url(#paint5_linear_2309_21)"/>
<path d="M1581.38 81.5586C1584.7 81.5586 1585.91 82.7686 1585.91 86.0886V301.859C1585.91 306.079 1584.1 307.589 1580.48 308.199C1554.83 312.419 1537.63 313.629 1515.9 313.629C1454.94 313.629 1441.67 296.429 1441.67 228.829C1441.67 161.229 1454.95 143.729 1510.78 143.729C1526.47 143.729 1539.45 144.329 1549.41 145.539V86.0886C1549.41 82.7686 1550.92 81.5586 1553.94 81.5586H1581.4H1581.38ZM1516.5 175.409C1482.7 175.409 1478.18 185.369 1478.18 228.819C1478.18 269.859 1481.5 281.929 1515.6 281.929C1524.95 281.929 1538.84 281.029 1549.4 279.519V175.409H1516.5Z" fill="url(#paint6_linear_2309_21)"/>
<path d="M1762.15 225.499V234.549C1762.15 240.279 1760.34 242.699 1751.89 242.699H1656.23C1657.13 274.689 1664.38 281.929 1693.65 281.929H1745.25C1748.27 281.929 1749.78 283.439 1749.78 286.459V305.169C1749.78 308.489 1748.27 309.699 1745.56 310.299C1729.57 312.709 1710.86 313.619 1691.54 313.619C1632.7 313.619 1619.42 296.719 1619.42 228.819C1619.42 160.919 1632.7 143.719 1691.54 143.719C1750.38 143.719 1761.55 160.009 1762.16 225.499H1762.15ZM1656.23 216.439H1725.34C1725.04 183.849 1718.4 175.399 1691.54 175.399C1664.68 175.399 1656.54 183.849 1656.23 216.439Z" fill="url(#paint7_linear_2309_21)"/>
<path d="M1923.61 145.23C1927.23 145.23 1928.14 147.64 1926.02 150.66L1874.12 224.29L1932.06 306.67C1933.87 309.69 1932.97 312.1 1929.34 312.1H1895.84C1894.03 312.1 1892.52 311.2 1891.31 309.38L1852.08 252.64L1812.85 309.38C1811.64 311.19 1810.13 312.1 1808.32 312.1H1774.82C1771.2 312.1 1770.29 309.69 1772.41 306.67L1830.05 224.29L1778.14 150.66C1776.03 147.64 1776.93 145.23 1780.55 145.23H1814.05C1816.16 145.23 1817.97 146.14 1819.18 147.95L1852.08 195.63L1884.97 147.95C1886.48 146.14 1887.99 145.23 1890.1 145.23H1923.6H1923.61Z" fill="url(#paint8_linear_2309_21)"/>
<path d="M196.68 393.36L0 196.68L196.68 0L278.09 81.41L220.45 139.05L278.09 196.69L196.68 278.1L115.27 196.69L230.54 81.42L196.68 47.56L47.55 196.68L196.68 345.81L357.7 184.79L381.47 208.56L196.67 393.36H196.68ZM162.82 196.68L196.68 230.54L230.54 196.68L196.68 162.82L162.82 196.68Z" fill="url(#paint9_linear_2309_21)"/>
</g>
<defs>
<linearGradient id="paint0_linear_2309_21" x1="511.54" y1="196.68" x2="1932.97" y2="196.68" gradientUnits="userSpaceOnUse">
<stop stop-color="#0B8BF4"/>
<stop offset="1" stop-color="#703BF2"/>
</linearGradient>
<linearGradient id="paint1_linear_2309_21" x1="511.54" y1="196.68" x2="1932.97" y2="196.68" gradientUnits="userSpaceOnUse">
<stop stop-color="#0B8BF4"/>
<stop offset="1" stop-color="#703BF2"/>
</linearGradient>
<linearGradient id="paint2_linear_2309_21" x1="511.54" y1="196.679" x2="1932.97" y2="196.679" gradientUnits="userSpaceOnUse">
<stop stop-color="#0B8BF4"/>
<stop offset="1" stop-color="#703BF2"/>
</linearGradient>
<linearGradient id="paint3_linear_2309_21" x1="511.54" y1="196.679" x2="1932.97" y2="196.679" gradientUnits="userSpaceOnUse">
<stop stop-color="#0B8BF4"/>
<stop offset="1" stop-color="#703BF2"/>
</linearGradient>
<linearGradient id="paint4_linear_2309_21" x1="511.54" y1="196.681" x2="1932.97" y2="196.681" gradientUnits="userSpaceOnUse">
<stop stop-color="#0B8BF4"/>
<stop offset="1" stop-color="#703BF2"/>
</linearGradient>
<linearGradient id="paint5_linear_2309_21" x1="511.54" y1="196.679" x2="1932.97" y2="196.679" gradientUnits="userSpaceOnUse">
<stop stop-color="#0B8BF4"/>
<stop offset="1" stop-color="#703BF2"/>
</linearGradient>
<linearGradient id="paint6_linear_2309_21" x1="511.54" y1="196.679" x2="1932.97" y2="196.679" gradientUnits="userSpaceOnUse">
<stop stop-color="#0B8BF4"/>
<stop offset="1" stop-color="#703BF2"/>
</linearGradient>
<linearGradient id="paint7_linear_2309_21" x1="511.54" y1="196.679" x2="1932.97" y2="196.679" gradientUnits="userSpaceOnUse">
<stop stop-color="#0B8BF4"/>
<stop offset="1" stop-color="#703BF2"/>
</linearGradient>
<linearGradient id="paint8_linear_2309_21" x1="511.54" y1="196.68" x2="1932.97" y2="196.68" gradientUnits="userSpaceOnUse">
<stop stop-color="#0B8BF4"/>
<stop offset="1" stop-color="#703BF2"/>
</linearGradient>
<linearGradient id="paint9_linear_2309_21" x1="0" y1="196.68" x2="381.48" y2="196.68" gradientUnits="userSpaceOnUse">
<stop stop-color="#0B8BF4"/>
<stop offset="1" stop-color="#703BF2"/>
</linearGradient>
<clipPath id="clip0_2309_21">
<rect width="1932.97" height="393.36" fill="white"/>
</clipPath>
</defs>
</svg>
