<svg width="363" height="259" viewBox="0 0 363 259" fill="none" xmlns="http://www.w3.org/2000/svg">
<g filter="url(#filter0_d_2237_19)">
<rect x="10" y="10" width="343" height="239" rx="6" fill="white"/>
</g>
<path d="M99.515 213L131.335 63.15H151.5L183.505 213H163.71L156.865 175.26H126.34L119.125 213H99.515ZM129.115 160.275H154.09L141.51 92.75L129.115 160.275ZM216.285 214.48C212.091 214.48 208.391 213.308 205.185 210.965C201.978 208.498 199.45 205.415 197.6 201.715C195.75 197.892 194.825 193.883 194.825 189.69C194.825 183.03 195.935 177.418 198.155 172.855C200.375 168.292 203.396 164.468 207.22 161.385C211.166 158.178 215.668 155.403 220.725 153.06C225.905 150.717 231.331 148.435 237.005 146.215V138.63C237.005 134.313 236.758 130.737 236.265 127.9C235.771 125.063 234.723 122.967 233.12 121.61C231.64 120.13 229.358 119.39 226.275 119.39C223.561 119.39 221.341 120.007 219.615 121.24C218.011 122.473 216.84 124.262 216.1 126.605C215.36 128.825 214.99 131.477 214.99 134.56V139.925L195.38 139.185C195.626 127.345 198.34 118.65 203.52 113.1C208.7 107.427 216.716 104.59 227.57 104.59C238.176 104.59 245.7 107.488 250.14 113.285C254.58 119.082 256.8 127.468 256.8 138.445V187.285C256.8 190.615 256.861 193.822 256.985 196.905C257.231 199.988 257.478 202.887 257.725 205.6C258.095 208.19 258.403 210.657 258.65 213H240.52C240.15 211.027 239.656 208.56 239.04 205.6C238.546 202.517 238.176 199.742 237.93 197.275C236.696 201.468 234.291 205.415 230.715 209.115C227.261 212.692 222.451 214.48 216.285 214.48ZM224.055 197.46C226.028 197.46 227.878 196.905 229.605 195.795C231.331 194.685 232.873 193.452 234.23 192.095C235.586 190.615 236.511 189.443 237.005 188.58V158.24C233.921 159.967 231.023 161.693 228.31 163.42C225.596 165.147 223.191 166.997 221.095 168.97C219.121 170.82 217.518 172.978 216.285 175.445C215.175 177.788 214.62 180.502 214.62 183.585C214.62 187.902 215.421 191.293 217.025 193.76C218.628 196.227 220.971 197.46 224.055 197.46Z" fill="black"/>
<defs>
<filter id="filter0_d_2237_19" x="0" y="0" width="363" height="259" filterUnits="userSpaceOnUse" color-interpolation-filters="sRGB">
<feFlood flood-opacity="0" result="BackgroundImageFix"/>
<feColorMatrix in="SourceAlpha" type="matrix" values="0 0 0 0 0 0 0 0 0 0 0 0 0 0 0 0 0 0 127 0" result="hardAlpha"/>
<feOffset/>
<feGaussianBlur stdDeviation="5"/>
<feComposite in2="hardAlpha" operator="out"/>
<feColorMatrix type="matrix" values="0 0 0 0 0.953831 0 0 0 0 0.926389 0 0 0 0 0.958333 0 0 0 1 0"/>
<feBlend mode="normal" in2="BackgroundImageFix" result="effect1_dropShadow_2237_19"/>
<feBlend mode="normal" in="SourceGraphic" in2="effect1_dropShadow_2237_19" result="shape"/>
</filter>
</defs>
</svg>
