<svg width="363" height="259" viewBox="0 0 363 259" fill="none" xmlns="http://www.w3.org/2000/svg">
<g filter="url(#filter0_d_2237_19)">
<rect x="10" y="10" width="343" height="239" rx="6" fill="white"/>
</g>
<path d="M160.32 151.79L139.508 97.8625C138.891 96.2592 138.243 94.4092 137.565 92.3125C136.887 90.1542 136.239 87.8725 135.623 85.4675C134.328 90.4625 133.002 94.625 131.645 97.955L110.833 151.79H160.32ZM197.69 201H183.815C182.212 201 180.917 200.599 179.93 199.797C178.943 198.996 178.203 197.978 177.71 196.745L165.315 164.74H105.838L93.4425 196.745C93.0725 197.855 92.3633 198.842 91.315 199.705C90.2667 200.568 88.9717 201 87.43 201H73.555L126.558 68.4475H144.688L197.69 201ZM262.025 158.82C254.44 159.067 247.965 159.683 242.6 160.67C237.297 161.595 232.949 162.828 229.558 164.37C226.228 165.912 223.792 167.731 222.25 169.827C220.77 171.924 220.03 174.267 220.03 176.857C220.03 179.324 220.431 181.452 221.233 183.24C222.034 185.028 223.114 186.508 224.47 187.68C225.889 188.79 227.523 189.622 229.373 190.177C231.284 190.671 233.319 190.917 235.478 190.917C238.376 190.917 241.028 190.64 243.433 190.085C245.838 189.468 248.089 188.605 250.185 187.495C252.344 186.385 254.379 185.059 256.29 183.517C258.264 181.976 260.175 180.218 262.025 178.245V158.82ZM208.838 120.525C214.018 115.53 219.599 111.799 225.58 109.332C231.562 106.866 238.191 105.632 245.468 105.632C250.709 105.632 255.365 106.496 259.435 108.222C263.505 109.949 266.928 112.354 269.703 115.437C272.478 118.521 274.574 122.252 275.993 126.63C277.411 131.008 278.12 135.818 278.12 141.06V201H270.813C269.209 201 267.976 200.753 267.113 200.26C266.249 199.705 265.571 198.657 265.078 197.115L263.228 188.235C260.761 190.517 258.356 192.552 256.013 194.34C253.669 196.067 251.203 197.547 248.613 198.78C246.023 199.952 243.248 200.846 240.288 201.463C237.389 202.141 234.152 202.48 230.575 202.48C226.937 202.48 223.514 201.987 220.308 201C217.101 199.952 214.295 198.41 211.89 196.375C209.547 194.34 207.666 191.781 206.248 188.697C204.891 185.552 204.213 181.852 204.213 177.597C204.213 173.897 205.23 170.352 207.265 166.96C209.3 163.507 212.599 160.454 217.163 157.802C221.726 155.151 227.677 152.992 235.015 151.327C242.354 149.601 251.357 148.614 262.025 148.367V141.06C262.025 133.783 260.453 128.295 257.308 124.595C254.163 120.833 249.569 118.952 243.525 118.952C239.455 118.952 236.033 119.477 233.258 120.525C230.544 121.512 228.17 122.652 226.135 123.947C224.162 125.181 222.435 126.322 220.955 127.37C219.537 128.357 218.119 128.85 216.7 128.85C215.59 128.85 214.634 128.572 213.833 128.017C213.031 127.401 212.353 126.661 211.798 125.797L208.838 120.525Z" fill="black"/>
<defs>
<filter id="filter0_d_2237_19" x="0" y="0" width="363" height="259" filterUnits="userSpaceOnUse" color-interpolation-filters="sRGB">
<feFlood flood-opacity="0" result="BackgroundImageFix"/>
<feColorMatrix in="SourceAlpha" type="matrix" values="0 0 0 0 0 0 0 0 0 0 0 0 0 0 0 0 0 0 127 0" result="hardAlpha"/>
<feOffset/>
<feGaussianBlur stdDeviation="5"/>
<feComposite in2="hardAlpha" operator="out"/>
<feColorMatrix type="matrix" values="0 0 0 0 0.953831 0 0 0 0 0.926389 0 0 0 0 0.958333 0 0 0 1 0"/>
<feBlend mode="normal" in2="BackgroundImageFix" result="effect1_dropShadow_2237_19"/>
<feBlend mode="normal" in="SourceGraphic" in2="effect1_dropShadow_2237_19" result="shape"/>
</filter>
</defs>
</svg>
