<svg width="363" height="259" viewBox="0 0 363 259" fill="none" xmlns="http://www.w3.org/2000/svg">
<g filter="url(#filter0_d_2215_37)">
<rect x="10" y="10" width="343" height="239" rx="6" fill="white"/>
</g>
<path d="M67.92 176L126.38 36.695H127.49L185.765 176H165.23L121.57 64.815L134.335 56.49L85.495 176H67.92ZM102.145 125.31H151.91L157.83 140.85H96.965L102.145 125.31ZM238.522 177.85C231.368 177.85 224.832 176.308 218.912 173.225C213.115 170.142 208.49 165.64 205.037 159.72C201.707 153.677 200.042 146.338 200.042 137.705C200.042 129.195 201.83 121.857 205.407 115.69C208.983 109.4 213.732 104.59 219.652 101.26C225.695 97.93 232.293 96.265 239.447 96.265C246.6 96.265 252.643 97.93 257.577 101.26C262.51 104.467 266.272 108.29 268.862 112.73L267.752 115.69L269.417 99.41H285.327V176H268.122V156.02L269.972 160.46C269.478 161.693 268.368 163.297 266.642 165.27C265.038 167.12 262.818 169.032 259.982 171.005C257.268 172.978 254.123 174.643 250.547 176C246.97 177.233 242.962 177.85 238.522 177.85ZM243.147 163.605C247.463 163.605 251.348 162.803 254.802 161.2C258.255 159.597 261.092 157.377 263.312 154.54C265.655 151.58 267.258 148.065 268.122 143.995V129.01C267.135 125.31 265.408 122.103 262.942 119.39C260.475 116.553 257.515 114.395 254.062 112.915C250.608 111.312 246.785 110.51 242.592 110.51C238.028 110.51 233.835 111.62 230.012 113.84C226.188 116.06 223.105 119.143 220.762 123.09C218.542 127.037 217.432 131.662 217.432 136.965C217.432 141.898 218.603 146.4 220.947 150.47C223.29 154.54 226.435 157.747 230.382 160.09C234.328 162.433 238.583 163.605 243.147 163.605Z" fill="black"/>
<defs>
<filter id="filter0_d_2215_37" x="0" y="0" width="363" height="259" filterUnits="userSpaceOnUse" color-interpolation-filters="sRGB">
<feFlood flood-opacity="0" result="BackgroundImageFix"/>
<feColorMatrix in="SourceAlpha" type="matrix" values="0 0 0 0 0 0 0 0 0 0 0 0 0 0 0 0 0 0 127 0" result="hardAlpha"/>
<feOffset/>
<feGaussianBlur stdDeviation="5"/>
<feComposite in2="hardAlpha" operator="out"/>
<feColorMatrix type="matrix" values="0 0 0 0 0.953831 0 0 0 0 0.926389 0 0 0 0 0.958333 0 0 0 1 0"/>
<feBlend mode="normal" in2="BackgroundImageFix" result="effect1_dropShadow_2215_37"/>
<feBlend mode="normal" in="SourceGraphic" in2="effect1_dropShadow_2215_37" result="shape"/>
</filter>
</defs>
</svg>
