<svg width="226" height="49" viewBox="0 0 226 49" fill="none" xmlns="http://www.w3.org/2000/svg">
<g clip-path="url(#clip0_582_5452)">
<path d="M34.3935 48.1391H14.0781V45.6669H31.9228V31.0605H34.3935V48.1391Z" fill="#16221C"/>
<path d="M8.94451 40.4661H6.46875V20.2559H29.9305V22.723H8.94451V40.4661Z" fill="#16221C"/>
<path d="M1.23454 49C0.710141 49 0.226082 48.6677 0.0546442 48.1441C-0.152089 47.4946 0.205913 46.7997 0.856367 46.5883C26.4459 38.3763 33.3539 22.7478 34.0547 20.9906C34.7102 19.3543 35.2094 17.295 35.4414 15.3666C34.211 16.1168 32.5118 16.5901 30.3487 16.7764C17.3547 17.8891 9.34756 18.0956 6.90206 15.8752C6.32724 15.3515 6.01966 14.6869 6.00958 13.9568C5.98941 11.6609 7.44663 8.91184 10.1241 6.21311C13.1847 3.1267 18.106 0 21.5801 0C27.051 0 33.4144 3.53453 36.8381 8.44359C36.9389 8.56946 37.0297 8.7054 37.1053 8.84638C38.971 11.9076 37.8112 18.2869 36.3591 21.907C35.6128 23.775 28.2864 40.3852 1.61775 48.9396C1.49169 48.9799 1.36564 49 1.23958 49H1.23454ZM21.5801 2.47215C19.1901 2.47215 14.9344 4.87885 11.8838 7.95016C9.71061 10.1404 8.47021 12.3205 8.48534 13.9317C8.48534 13.9417 8.48534 13.9719 8.56601 14.0424C10.6939 15.9759 24.3181 14.8077 30.1369 14.3093C32.7135 14.0878 34.4581 13.408 35.038 12.396C35.512 11.5703 35.1892 10.5935 34.9472 10.0648C34.9472 10.0648 34.9472 10.0648 34.9472 10.0598C34.917 10.0145 34.8867 9.96917 34.8565 9.92386C34.5287 9.57141 33.3942 8.93198 31.2311 8.64499C27.525 8.1566 22.0491 8.93701 18.817 12.7384C18.3732 13.257 17.5967 13.3224 17.0723 12.8794C16.553 12.4363 16.4874 11.6609 16.9312 11.1373C20.7078 6.69143 26.9098 5.66934 31.226 6.15269C28.3166 3.91215 24.7215 2.46712 21.5852 2.46712L21.5801 2.47215Z" fill="#017C01"/>
<path d="M68.9636 22.5468C68.9636 26.4137 67.9299 28.5535 65.1718 29.1275V29.2433C68.6963 29.7418 69.6947 32.4203 69.6947 36.1311C69.6947 42.4852 66.3214 44.0913 59.7312 44.0913C57.1243 44.0913 51.4921 43.9755 48.4264 43.7489C47.9675 43.7087 47.8516 43.6331 47.8516 43.2152V15.2764C47.8516 14.8534 47.9675 14.7779 48.4264 14.7427C51.4921 14.5111 56.0503 14.4355 58.6975 14.4355C65.671 14.4355 68.9686 16.3085 68.9686 22.5468H68.9636ZM52.793 18.7203V27.4055H57.1243C62.1817 27.4055 64.0222 27.0984 64.0222 23.1561C64.0222 19.5208 62.2221 18.7152 58.2336 18.7152H52.793V18.7203ZM52.793 31.1163V39.8016H59.5749C63.1398 39.8016 64.7482 39.0362 64.7482 35.6679C64.7482 31.9168 62.8725 31.1163 59.6505 31.1163H52.793Z" fill="#16221C"/>
<path d="M78.0055 14.627C78.3887 14.627 78.5803 14.8183 78.5803 15.2009V43.3261C78.5803 43.7087 78.3887 43.9001 78.0055 43.9001H74.5162C74.133 43.9001 73.9414 43.7087 73.9414 43.3261V15.2009C73.9414 14.8183 74.133 14.627 74.5162 14.627H78.0055Z" fill="#16221C"/>
<path d="M101.536 33.3367C101.536 41.9465 99.8524 44.0914 92.1881 44.0914C84.5238 44.0914 82.875 41.9465 82.875 33.3367C82.875 24.727 84.5238 22.5469 92.1881 22.5469C99.8524 22.5469 101.536 24.6918 101.536 33.3367ZM87.5089 33.3367C87.5089 38.7342 88.0837 40.0735 92.1831 40.0735C96.2824 40.0735 96.8572 38.7342 96.8572 33.3367C96.8572 27.9393 96.2824 26.5648 92.1831 26.5648C88.0837 26.5648 87.5089 27.904 87.5089 33.3367Z" fill="#16221C"/>
<path d="M120.541 22.9695C120.924 23.045 121.116 23.2364 121.116 23.6593V25.9955C121.116 26.3782 120.924 26.5695 120.5 26.5695H114.485C110.386 26.5695 109.846 27.9088 109.846 33.3062C109.846 38.7037 110.381 40.0782 114.485 40.0782H120.5C120.924 40.0782 121.116 40.2695 121.116 40.6522V42.9884C121.116 43.4113 120.924 43.6027 120.541 43.6782C118.509 44.0206 116.018 44.1011 114.485 44.1011C106.705 44.1011 105.172 41.9563 105.172 33.3113C105.172 24.6663 106.705 22.5566 114.485 22.5566C116.018 22.5566 118.509 22.6322 120.541 22.9796V22.9695Z" fill="#16221C"/>
<path d="M128.972 14.6621C129.355 14.6621 129.547 14.8937 129.547 15.2764V30.1244L135.451 23.1208C135.643 22.8892 135.91 22.7381 136.258 22.7381H140.398C141.089 22.7381 141.124 23.0453 140.741 23.4632L134.266 31.076L142.697 42.8628C143.04 43.321 143.08 43.895 142.047 43.895H138.33C137.947 43.895 137.68 43.7036 137.488 43.472L129.557 32.1082V43.2807C129.557 43.7036 129.365 43.895 128.982 43.895H125.493C125.11 43.895 124.918 43.7036 124.918 43.2807V15.2764C124.918 14.8937 125.11 14.6621 125.493 14.6621H128.982H128.972Z" fill="#16221C"/>
<path d="M169.094 14.627C169.477 14.627 169.668 14.8183 169.668 15.2009V43.2908C169.668 43.7138 169.477 43.9051 169.094 43.9051H166.144C165.418 43.9051 164.994 43.7541 164.535 43.0643L150.664 22.4361V43.2908C150.664 43.7138 150.472 43.9051 150.089 43.9051H146.297C145.914 43.9051 145.723 43.7138 145.723 43.2908V15.2009C145.723 14.8183 145.914 14.627 146.297 14.627H149.479C150.936 14.6672 151.163 14.8938 151.778 15.8152L164.767 35.0638V15.2009C164.767 14.8183 164.959 14.627 165.342 14.627H169.099H169.094Z" fill="#16221C"/>
<path d="M192.552 32.9188V34.0668C192.552 34.7918 192.32 35.099 191.251 35.099H179.104C179.22 39.1571 180.138 40.0735 183.854 40.0735H190.409C190.792 40.0735 190.983 40.2648 190.983 40.6475V43.0189C190.983 43.4419 190.792 43.5929 190.449 43.6684C188.417 43.9756 186.042 44.0914 183.592 44.0914C176.119 44.0914 174.43 41.9465 174.43 33.3367C174.43 24.727 176.114 22.5469 183.592 22.5469C191.069 22.5469 192.481 24.6112 192.562 32.9188H192.552ZM179.099 31.7709H187.877C187.837 27.6372 186.995 26.5648 183.586 26.5648C180.178 26.5648 179.139 27.6372 179.104 31.7709H179.099Z" fill="#16221C"/>
<path d="M210.097 22.9706C210.48 23.0462 210.672 23.2375 210.672 23.5849V25.8405C210.672 26.2232 210.48 26.4145 210.057 26.4145H203.008C201.399 26.4145 200.477 26.913 200.477 28.0962V28.5544C200.477 29.4707 200.976 30.2008 202.584 30.81L207.606 32.6478C210.98 33.9115 211.514 35.8601 211.514 38.2366V38.735C211.514 43.1003 208.6 44.0922 203.583 44.0922C200.25 44.0922 197.376 43.8606 196.11 43.7498C195.651 43.7095 195.535 43.5182 195.535 43.1758V40.8044C195.535 40.3814 195.686 40.1901 196.15 40.1901H203.588C206.154 40.1901 206.961 39.883 206.961 38.5437V38.161C206.961 37.2447 206.502 36.6304 204.778 35.9809L199.72 34.0676C196.73 32.9952 195.888 30.6993 195.888 28.4436V27.6783C195.888 23.5094 199.337 22.5527 204.127 22.5527C205.776 22.5527 207.884 22.6283 210.107 22.9757L210.097 22.9706Z" fill="#16221C"/>
<path d="M220.636 16.8833C221.059 16.7675 221.286 16.9991 221.286 17.417V22.7741H225.078C225.461 22.7741 225.693 22.9655 225.693 23.3481V25.7599C225.693 26.1828 225.461 26.3741 225.078 26.3741H221.286V38.0451C221.286 39.7268 221.785 40.0742 223.661 40.0742H225.345C225.804 40.0742 225.996 40.2252 225.996 40.6079V43.1354C225.996 43.5584 225.804 43.7497 225.421 43.8252C224.347 44.0165 223.273 44.0921 222.698 44.0921C219.708 44.0921 216.607 44.0165 216.607 39.4247V26.3741H214.424C214.041 26.3741 213.809 26.1828 213.809 25.7599V23.3481C213.809 22.9655 214.041 22.7741 214.424 22.7741H216.607V18.3736C216.607 17.9909 216.799 17.8399 217.142 17.7593L220.631 16.8782L220.636 16.8833Z" fill="#16221C"/>
</g>
<defs>
<clipPath id="clip0_582_5452">
<rect width="226" height="49" fill="white"/>
</clipPath>
</defs>
</svg>
