<svg width="363" height="259" viewBox="0 0 363 259" fill="none" xmlns="http://www.w3.org/2000/svg">
<g filter="url(#filter0_d_2117_36)">
<rect x="10" y="10" width="343" height="239" rx="6" fill="white"/>
</g>
<path d="M173.565 198C171.468 192.45 169.495 187.023 167.645 181.72C165.795 176.293 163.883 170.805 161.91 165.255H103.82L92.165 198H73.48C78.4133 184.433 83.0383 171.915 87.355 160.445C91.6717 148.852 95.865 137.875 99.935 127.515C104.128 117.155 108.26 107.288 112.33 97.915C116.4 88.4183 120.655 79.045 125.095 69.795H141.56C146 79.045 150.255 88.4183 154.325 97.915C158.395 107.288 162.465 117.155 166.535 127.515C170.728 137.875 174.983 148.852 179.3 160.445C183.617 171.915 188.242 184.433 193.175 198H173.565ZM156.73 150.455C152.783 139.725 148.837 129.365 144.89 119.375C141.067 109.262 137.058 99.58 132.865 90.33C128.548 99.58 124.417 109.262 120.47 119.375C116.647 129.365 112.823 139.725 109 150.455H156.73ZM242.031 185.605C246.101 185.605 249.678 185.543 252.761 185.42C255.968 185.173 258.619 184.803 260.716 184.31V155.635C259.483 155.018 257.448 154.525 254.611 154.155C251.898 153.662 248.568 153.415 244.621 153.415C242.031 153.415 239.256 153.6 236.296 153.97C233.459 154.34 230.808 155.142 228.341 156.375C225.998 157.485 224.024 159.088 222.421 161.185C220.818 163.158 220.016 165.81 220.016 169.14C220.016 175.307 221.989 179.623 225.936 182.09C229.883 184.433 235.248 185.605 242.031 185.605ZM240.551 99.395C247.458 99.395 253.254 100.32 257.941 102.17C262.751 103.897 266.574 106.425 269.411 109.755C272.371 112.962 274.468 116.847 275.701 121.41C276.934 125.85 277.551 130.783 277.551 136.21V196.335C276.071 196.582 273.974 196.952 271.261 197.445C268.671 197.815 265.711 198.185 262.381 198.555C259.051 198.925 255.413 199.233 251.466 199.48C247.643 199.85 243.819 200.035 239.996 200.035C234.569 200.035 229.574 199.48 225.011 198.37C220.448 197.26 216.501 195.533 213.171 193.19C209.841 190.723 207.251 187.517 205.401 183.57C203.551 179.623 202.626 174.875 202.626 169.325C202.626 164.022 203.674 159.458 205.771 155.635C207.991 151.812 210.951 148.728 214.651 146.385C218.351 144.042 222.668 142.315 227.601 141.205C232.534 140.095 237.714 139.54 243.141 139.54C244.868 139.54 246.656 139.663 248.506 139.91C250.356 140.033 252.083 140.28 253.686 140.65C255.413 140.897 256.893 141.143 258.126 141.39C259.359 141.637 260.223 141.822 260.716 141.945V137.135C260.716 134.298 260.408 131.523 259.791 128.81C259.174 125.973 258.064 123.507 256.461 121.41C254.858 119.19 252.638 117.463 249.801 116.23C247.088 114.873 243.511 114.195 239.071 114.195C233.398 114.195 228.403 114.627 224.086 115.49C219.893 116.23 216.748 117.032 214.651 117.895L212.616 103.65C214.836 102.663 218.536 101.738 223.716 100.875C228.896 99.8883 234.508 99.395 240.551 99.395Z" fill="black"/>
<defs>
<filter id="filter0_d_2117_36" x="0" y="0" width="363" height="259" filterUnits="userSpaceOnUse" color-interpolation-filters="sRGB">
<feFlood flood-opacity="0" result="BackgroundImageFix"/>
<feColorMatrix in="SourceAlpha" type="matrix" values="0 0 0 0 0 0 0 0 0 0 0 0 0 0 0 0 0 0 127 0" result="hardAlpha"/>
<feOffset/>
<feGaussianBlur stdDeviation="5"/>
<feComposite in2="hardAlpha" operator="out"/>
<feColorMatrix type="matrix" values="0 0 0 0 0.953831 0 0 0 0 0.926389 0 0 0 0 0.958333 0 0 0 1 0"/>
<feBlend mode="normal" in2="BackgroundImageFix" result="effect1_dropShadow_2117_36"/>
<feBlend mode="normal" in="SourceGraphic" in2="effect1_dropShadow_2117_36" result="shape"/>
</filter>
</defs>
</svg>
