<svg xmlns="http://www.w3.org/2000/svg">
    <symbol id="logo" viewBox="0 0 146 58">
        <g>
            <path
                d="M7.29082 58C10.8785 58 13.7868 55.0957 13.7868 51.5131C13.7868 47.9306 10.8785 45.0263 7.29082 45.0263C3.70317 45.0263 0.7948 47.9306 0.7948 51.5131C0.7948 55.0957 3.70317 58 7.29082 58Z"
                fill="#AB2BC0" />
            <path
                d="M0.0305603 5.34213C0.282759 2.98397 0.794798 1.52634 2.32327 0.763181C3.248 0.297655 6.22089 -1.03024 12.2584 1.52634C25.8312 7.27292 49.706 30.3584 46.6491 48.8421C46.3128 50.9027 45.5562 55.4969 42.0636 57.2369C39.2054 58.664 34.9639 57.9542 33.657 55.7105C32.0216 52.9098 35.4071 49.7121 36.714 45.7895C45.1206 20.6053 -1.37564 18.6058 0.0305603 5.34213Z"
                fill="#AB2BC0" />
            <path
                d="M31.3643 5.34213C31.6165 2.98397 32.1285 1.52634 33.657 0.763181C34.5817 0.297655 37.5546 -1.03024 43.5921 1.52634C57.165 7.27292 81.0398 30.3584 77.9828 48.8421C77.6465 50.9027 76.8899 55.4969 73.3974 57.2369C70.5391 58.664 66.2976 57.9542 64.9908 55.7105C63.3553 52.9098 66.7409 49.7121 68.0477 45.7895C76.4543 20.6053 29.9581 18.6058 31.3643 5.34213Z"
                fill="#AB2BC0" />
            <path
                d="M131.029 21.5745C129.783 18.5219 137.433 14.2711 136.141 10.7224C134.85 7.17369 126.053 7.50186 125.282 7.53238C108.98 8.17344 93.5351 23.4824 95.8737 28.5955C98.4797 34.2582 121.139 23.345 129.752 33.701C133.757 38.5166 133.375 46.3084 130.394 50.9332C122.561 63.0521 94.8649 56.2753 93.9631 50.9332C93.7032 49.4068 95.4304 47.415 97.1576 47.1174C99.7866 46.6366 101.246 50.3684 104.8 52.2229C110.845 55.3519 121.376 52.3297 122.698 47.1174C123.761 42.9429 118.977 37.1505 113.749 35.6319C109.722 34.4566 107.979 36.5705 101.605 36.9063C100.291 36.975 88.7051 37.5855 86.2672 33.0905C83.2103 27.4126 94.4751 13.2484 108.002 6.28079C112.779 3.81579 125.916 -2.9763 136.118 3.0908C143.264 7.34159 148.071 17.3542 145.068 21.605C142.263 25.5811 132.297 24.6882 131.029 21.5745Z"
                fill="#1E73E4" />
        </g>
    </symbol>

    <symbol id="github" viewBox="0 0 61 62">
        <path
            d="M36.1598 41.55C35.9093 40.6317 35.4192 39.7966 34.7398 39.13C44.7398 38.02 44.8898 30.56 43.7998 26.13C43.5383 24.9825 43.0146 23.9112 42.2698 23C43.5998 21.13 41.8298 17.28 41.8298 17.28C39.8014 17.5676 37.8804 18.3697 36.2498 19.61C32.5398 17.99 25.8998 19.51 25.8998 19.51C24.8998 17.28 20.1298 17.28 20.1298 17.28C19.363 19.063 19.2706 21.0639 19.8698 22.91C19.3798 23.99 18.5698 24.75 18.2698 26.26C15.7698 39.47 28.4098 38.88 27.4298 39.08C26.4498 39.28 25.8398 42.08 25.8398 42.08C22.7398 43.49 20.6998 41.72 20.2598 40.74C19.8435 40.0012 19.27 39.3628 18.5798 38.87L17.5098 38C16.4598 37.24 14.8598 38.81 16.2798 39.07C17.6998 39.33 18.6698 42.07 18.8398 42.47C19.3644 43.5159 20.2432 44.3415 21.3198 44.8C22.7398 45.33 25.8398 44.8 25.8398 44.8V53.18V53.39C29.3096 54.0557 32.8892 53.867 36.2698 52.84C36.2598 50.3 36.2698 42.4 36.1598 41.55Z"
            fill="#AB2BC0" />
        <g opacity="0.9">
            <g opacity="0.9">
                <path opacity="0.9"
                    d="M7.08976 51.83C3.7964 48.1376 1.37355 43.7532 -0.000244141 39C0.599756 40 1.20976 40.89 1.86976 41.77C2.81446 43.3319 3.61766 44.9751 4.26976 46.68C4.97759 48.514 5.92589 50.2458 7.08976 51.83V51.83Z"
                    fill="#E5BDEB" />
                <path opacity="0.9"
                    d="M18.0798 59.62C16.3162 58.8902 14.6169 58.0138 12.9998 57C11.4133 55.9292 9.92121 54.7248 8.53976 53.4C8.73976 53.57 8.93976 53.73 9.14976 53.88C10.6398 54.88 12.1498 55.79 13.6798 56.71C15.1949 57.6047 16.6634 58.5759 18.0798 59.62V59.62Z"
                    fill="#E5BDEB" />
                <path opacity="0.9"
                    d="M49.9998 31.44C53.8198 33.88 56.2898 38.44 57.4398 43.58C57.295 44.6378 57.0161 45.6727 56.6098 46.66C56.5165 47.0127 56.3716 47.3497 56.1798 47.66C55.7648 48.4196 55.3109 49.1573 54.8198 49.87C53.6613 51.5918 52.2867 53.1579 50.7298 54.53C51.1466 52.1388 50.869 49.6782 49.9298 47.44C48.9298 48.08 47.1798 49.37 46.6798 48.82C45.1798 46.44 45.2898 43.95 44.9098 41.63C46.0921 40.6375 47.1319 39.4866 47.9998 38.21C49.3788 36.2279 50.0803 33.8533 49.9998 31.44Z"
                    fill="#EED5F2" />
                <path opacity="0.9"
                    d="M48.4498 22C47.9698 20.76 47.5098 19.23 46.9798 17.83C46.5434 16.6744 46.0116 15.5572 45.3898 14.49C47.2023 13.9225 49.1163 13.7554 50.9998 14C50.9398 13.32 50.9098 12.71 50.8098 12.13C50.7424 11.5317 50.5626 10.9515 50.2798 10.42C50.6998 10.42 51.1098 10.51 51.5098 10.58C56.012 15.1612 59.0418 20.9839 60.2098 27.3C59.7198 27.13 57.6698 25.3 55.2098 24.03C53.153 22.8184 50.8338 22.122 48.4498 22V22Z"
                    fill="#F2DFF5" />
                <path opacity="0.9"
                    d="M50.6898 29.63C50.5498 29.14 50.3698 28.63 50.2298 28.23C50.0898 27.83 49.8698 27.38 49.6998 26.98C49.391 25.2882 48.9735 23.6181 48.4498 21.98C50.067 21.8906 51.686 22.122 53.2135 22.6609C54.7409 23.1998 56.1467 24.0355 57.3498 25.12C57.2598 24.74 58.1798 24.12 58.0798 23.75C58.3345 24.1542 58.5617 24.5752 58.7598 25.01L59.1898 26.08C59.4698 26.7 59.7098 27.13 60.1898 27.29C60.7373 30.2926 60.825 33.361 60.4498 36.39C60.0249 39.462 59.1206 42.4484 57.7698 45.24C57.7698 43.75 58.5798 42.72 59.0398 41.47C58.5975 41.6183 58.2088 41.8938 57.9224 42.262C57.636 42.6303 57.4646 43.0748 57.4298 43.54C56.2798 38.37 53.8098 33.84 49.9898 31.4C49.9898 31.12 49.9898 30.85 49.9898 30.57C50.4698 30.36 50.9098 30.11 50.6898 29.63Z"
                    fill="#F0DAF4" />
                <path opacity="0.9"
                    d="M16.2697 54.31C17.8957 54.4305 19.5271 54.1644 21.0306 53.5335C22.534 52.9026 23.8667 51.9248 24.9197 50.68C25.5497 51.1 26.9197 52.01 28.0497 51.46C29.2998 51.6902 30.5686 51.8041 31.8397 51.8C33.1897 51.8 34.3397 51.45 34.5497 50.93C34.7597 50.41 34.0497 51.6 32.7297 53.14C31.3254 54.7172 29.7678 56.151 28.0797 57.42C27.6997 58.8 26.2397 59.83 24.3197 60.5C23.7997 60.3 24.4297 59.5 23.9397 59.28C23.5656 59.6011 23.164 59.8888 22.7397 60.14C22.524 60.1052 22.3103 60.0584 22.0997 60L20.5697 59.5C19.9697 59.29 19.3297 59.02 18.7097 58.78L17.0797 58C16.9959 57.6214 16.8069 57.2741 16.5345 56.9981C16.262 56.7222 15.9172 56.5287 15.5397 56.44C15.063 56.2044 14.5255 56.1206 13.9997 56.2C13.4997 55.9 12.9997 55.52 12.5497 55.2C13.4497 55.3 14.3197 55.37 15.1897 55.39C15.7097 55.24 16.2697 54.31 16.2697 54.31Z"
                    fill="#E8C6EE" />
                <path opacity="0.9"
                    d="M46.6998 48.79C45.1998 46.41 45.3098 43.92 44.9298 41.6C44.6698 41.82 44.2097 42.21 43.7997 42.54C43.3897 42.87 43.0098 43.14 42.9298 43.18C43.5098 43.47 44.2397 43.63 44.1697 44.18C43.7116 45.2518 43.0297 46.2132 42.1697 47C41.6268 47.2584 41.0397 47.4111 40.4397 47.45L38.6098 47.57C38.2798 47.87 37.9398 48.18 37.6098 48.46C37.2798 48.74 36.9098 49.03 36.5398 49.3C36.4249 49.8118 36.4012 50.3399 36.4698 50.86C35.852 51.0335 35.2045 51.0744 34.5697 50.98C33.8014 51.9116 32.9403 52.7626 31.9998 53.52C30.5398 54.83 28.6397 56.19 28.1297 57.42C27.6197 58.65 26.2898 59.83 24.3698 60.5L25.1998 60.68C25.837 60.8255 26.4811 60.939 27.1297 61.02C28.6132 61.2375 30.1104 61.3478 31.6098 61.35C31.2788 60.9516 30.8616 60.6336 30.3897 60.42C30.9112 60.5285 31.4255 60.6687 31.9298 60.84C32.5862 61.0248 33.2544 61.1652 33.9298 61.26C35.0055 61.1733 36.0745 61.0163 37.1298 60.79C37.9012 60.6332 38.66 60.4192 39.3998 60.15C39.8198 60.02 38.7598 59.58 38.5598 58.88C40.5545 59.3005 42.6252 59.1832 44.5598 58.54C45.0698 58.32 45.5598 58.04 46.0198 57.78C46.3098 57.93 46.5197 58.02 46.3197 58.15C46.1197 58.28 45.7898 58.63 45.4998 58.86C45.9598 58.61 47.1998 58 48.3598 57.25C49.3125 56.6391 50.2275 55.9712 51.0997 55.25C50.5909 55.5686 50.0556 55.843 49.4998 56.07C48.9547 56.3155 48.3892 56.513 47.8098 56.66C48.3073 56.3527 48.788 56.0189 49.2498 55.66C49.7289 55.318 50.1895 54.9508 50.6298 54.56L50.7297 54.45C51.154 52.0814 50.901 49.6412 49.9998 47.41C48.9998 48.05 47.1998 49.34 46.6998 48.79Z"
                    fill="#EAC9EF" />
                <path opacity="0.9"
                    d="M24.9998 0C26.4198 0.47 28.1298 0.69 29.7698 1.16C31.3134 1.50392 32.6951 2.36044 33.6897 3.59C34.7697 5.66 34.2897 7.45 33.6897 9.18C33.0897 10.91 32.1997 12.62 31.4797 14.37C30.8508 13.5731 29.9808 13.0012 28.9998 12.74C27.691 12.4134 26.3282 12.3657 24.9998 12.6C23.4658 12.8668 21.9861 13.3837 20.6198 14.13C19.1542 14.9404 17.808 15.95 16.6198 17.13C16.7284 15.9647 17.2127 14.8662 17.9998 14C18.8366 13.0298 19.3134 11.8007 19.3498 10.52C19.1698 10.21 18.4097 10.25 17.9097 10.14C18.6193 9.03441 19.4698 8.02592 20.4398 7.14C21.3398 6.23 22.0698 5.41 21.7898 4.55C21.4398 3.5 20.2997 2.61 19.3997 1.44C19.7263 1.29897 20.0601 1.17546 20.3997 1.07C21.5097 1.23 22.9998 0.38 24.9998 0Z"
                    fill="#DDA8E5" />
                <path opacity="0.9"
                    d="M6.99976 8.76C8.60989 6.79222 10.442 5.01711 12.4598 3.47C12.6777 3.73143 12.9224 3.96939 13.1898 4.18C10.8375 5.86719 8.77695 7.92772 7.08976 10.28C7.08976 9.77 7.06976 9.27 6.99976 8.76Z"
                    fill="#E0B1E8" />
                <path opacity="0.9"
                    d="M17.8698 10.13C18.3698 10.24 19.1298 10.2 19.3098 10.51C19.2869 11.7893 18.8243 13.0217 17.9998 14C17.2107 14.8689 16.7263 15.9712 16.6198 17.14C14.7425 19.0099 13.248 21.228 12.2198 23.67C12.1198 23.14 12.0398 22.6 11.9598 22.04C11.3698 23.41 8.84976 22.79 8.33976 24.44C7.76976 21.68 8.33976 18.44 9.33976 15.44C10.3398 12.44 11.4798 9.31 11.9998 6.18C13.0674 5.18539 14.222 4.28847 15.4498 3.5C16.6896 2.71587 17.9983 2.04643 19.3598 1.5C20.2598 2.67 21.3598 3.56 21.7498 4.61C22.0298 5.47 21.2998 6.29 20.3998 7.2C19.4344 8.06431 18.5842 9.04903 17.8698 10.13V10.13Z"
                    fill="#E0B1E8" />
                <path opacity="0.9"
                    d="M8.29976 24.43C8.80976 22.78 11.2998 23.43 11.9198 22.03C11.9998 22.59 12.0798 23.13 12.1798 23.66C10.9834 26.4523 10.4692 29.4895 10.6798 32.52C10.6367 32.7206 10.6133 32.9249 10.6098 33.13C10.676 35.3144 11.0878 37.4744 11.8298 39.53C9.80955 38.7016 7.94341 37.5387 6.30976 36.09C7.56309 32.6282 9.19995 29.3176 11.1898 26.22C10.5398 27.27 8.85976 26.62 8.36976 27.22C7.02241 28.3082 5.55645 29.2408 3.99976 30C2.44976 30.72 0.999762 31.07 0.099762 30.22C0.125632 23.2669 2.3365 16.4979 6.41976 10.87C7.07976 10.79 8.04976 10.75 8.29976 10.49C9.37935 8.92817 10.6194 7.48364 11.9998 6.17999C11.4398 9.30999 10.1698 12.29 9.22976 15.38C8.28976 18.47 7.72976 21.67 8.29976 24.43Z"
                    fill="#E2B7E9" />
                <path opacity="0.9"
                    d="M6.30976 36.09C7.9434 37.5387 9.80954 38.7016 11.8298 39.53C11.9598 40.09 12.1498 40.64 12.2898 41.26C12.5948 41.1308 12.8555 40.9153 13.0398 40.64L13.6498 41.7C13.7398 42.19 13.0498 43.25 14.5698 43.05C14.8782 43.5083 15.2121 43.949 15.5698 44.37C15.6452 45.1375 15.5248 45.9117 15.2198 46.62L15.9998 45.86C16.9398 45.74 16.8198 46.68 17.2798 47.05C17.4365 46.8611 17.607 46.6839 17.7898 46.52C18.6085 47.7162 19.7846 48.6228 21.1498 49.11C22.0452 49.4238 22.9606 49.6777 23.8898 49.87C24.2046 50.1621 24.5386 50.4327 24.8898 50.68C23.8367 51.9248 22.504 52.9026 21.0006 53.5335C19.4972 54.1644 17.8657 54.4305 16.2398 54.31C16.2398 54.31 15.6798 55.24 15.1298 55.31C14.2598 55.31 13.3898 55.22 12.4898 55.12C11.1402 53.1658 9.58096 51.3651 7.83976 49.75L5.08976 47.12C4.72976 46.55 4.39976 45.97 4.08976 45.39C3.25859 43.2895 2.68117 41.0974 2.36976 38.86C2.02089 36.4215 1.27431 34.0568 0.15976 31.86V30.24C1.03976 31.09 2.50976 30.74 4.05976 30.02C5.62389 29.259 7.09663 28.323 8.44976 27.23C8.88499 26.7424 9.41159 26.345 9.99976 26.06C10.6598 25.76 11.2298 25.71 11.1698 26.22C10.5398 27.92 9.03976 30.08 8.00976 32.22C6.97976 34.36 6.27976 36.21 6.30976 36.09Z"
                    fill="#E5BDEB" />
                <path opacity="0.9"
                    d="M35.1898 6.59001C34.0026 6.17613 32.7762 5.88461 31.5298 5.72001C32.9298 5.66001 34.2198 6.18001 35.0698 5.46001C35.6723 5.78488 36.3244 6.00789 36.9998 6.12001C36.4095 6.32328 35.8043 6.48042 35.1898 6.59001V6.59001Z"
                    fill="#F8EDFA" />
                <path opacity="0.9"
                    d="M38.8998 2.13C39.3298 2.24 39.7498 2.39 40.1698 2.52C40.0928 2.70456 39.9746 2.86905 39.8242 3.00087C39.6738 3.13268 39.4952 3.22831 39.3022 3.28044C39.1091 3.33257 38.9067 3.3398 38.7104 3.30159C38.5141 3.26338 38.3292 3.18074 38.1698 3.06C37.9798 3.76 38.9898 3.28 38.8898 3.64C38.5998 4.55 38.1598 4.47 37.6598 4.22C38.0498 2.65 39.1198 1.22 39.7898 1.45L40.6498 1.73C40.0698 1.88 39.2598 1.8 38.8998 2.13Z"
                    fill="#F8EDFA" />
                <path opacity="0.9"
                    d="M50.2897 10.45C50.5725 10.9815 50.7523 11.5617 50.8197 12.16C50.9197 12.74 50.9497 13.35 51.0097 14.03C49.1238 13.7807 47.2061 13.9444 45.3897 14.51C43.7688 11.9063 41.5509 9.72609 38.9197 8.15C39.5295 8.14918 40.1381 8.09902 40.7397 8C40.1035 7.77579 39.5138 7.43686 38.9997 7C39.2129 6.88627 39.4001 6.72965 39.5497 6.54V6.54C39.9797 6.83 40.3797 6.96 40.7597 6.08C40.8997 5.73 39.9097 6.08 40.1697 5.45C40.3107 5.57557 40.4788 5.66672 40.661 5.71628C40.8431 5.76585 41.0342 5.77248 41.2194 5.73565C41.4045 5.69881 41.5786 5.61953 41.7279 5.50402C41.8771 5.38852 41.9976 5.23995 42.0797 5.07L40.9997 4.57C41.3597 4.29 42.1197 4.41 42.6997 4.33C45.9903 5.88636 48.9797 8.01244 51.5297 10.61C51.1197 10.54 50.7097 10.49 50.2897 10.45Z"
                    fill="#F6E8F8" />
            </g>
        </g>

    </symbol>

    <symbol id="linkedin" viewBox="0 0 62 62">
        <path d="M24.9797 26.51H19.8397V41.7H24.9797V26.51Z" fill="#AB2BC0" />
        <path
            d="M22.4097 23.94C23.8291 23.94 24.9797 22.7894 24.9797 21.37C24.9797 19.9506 23.8291 18.8 22.4097 18.8C20.9904 18.8 19.8397 19.9506 19.8397 21.37C19.8397 22.7894 20.9904 23.94 22.4097 23.94Z"
            fill="#AB2BC0" />
        <path
            d="M28.1297 26.51V41.7H32.7097V32.59C32.8036 31.924 33.1427 31.3171 33.6606 30.888C34.1785 30.4589 34.8379 30.2385 35.5097 30.27C35.8115 30.2447 36.1153 30.2831 36.4013 30.3828C36.6873 30.4825 36.9491 30.6413 37.1698 30.8488C37.3905 31.0562 37.565 31.3078 37.6822 31.5871C37.7993 31.8664 37.8564 32.1672 37.8497 32.47V41.7H42.6397L42.5097 31.38C42.448 30.7355 42.2861 30.1046 42.0297 29.51C41.7171 28.6426 41.1478 27.891 40.3975 27.3551C39.6473 26.8192 38.7516 26.5244 37.8297 26.51C34.4397 26.51 33.3897 26.98 32.3397 28.38L32.2197 26.51H28.1297Z"
            fill="#AB2BC0" />
        <g opacity="0.9">
            <path opacity="0.9"
                d="M7.79972 51.83C4.50636 48.1376 2.08352 43.7532 0.709717 39C1.30972 40 1.91972 40.89 2.57972 41.77C3.52442 43.3319 4.32762 44.9751 4.97972 46.68C5.68755 48.514 6.63585 50.2458 7.79972 51.83Z"
                fill="#E5BDEB" />
            <path opacity="0.9"
                d="M18.7897 59.62C17.0262 58.8902 15.3269 58.0138 13.7097 57C12.1233 55.9292 10.6312 54.7248 9.24973 53.4C9.44973 53.57 9.64973 53.73 9.85972 53.88C11.3497 54.88 12.8597 55.79 14.3897 56.71C15.9048 57.6047 17.3734 58.5759 18.7897 59.62Z"
                fill="#E5BDEB" />
            <path opacity="0.9"
                d="M50.7097 31.44C54.5297 33.88 56.9997 38.44 58.1497 43.58C58.005 44.6378 57.7261 45.6727 57.3197 46.66C57.2265 47.0127 57.0816 47.3497 56.8897 47.66C56.4748 48.4196 56.0209 49.1573 55.5297 49.87C54.3712 51.5918 52.9967 53.1579 51.4397 54.53C51.8566 52.1388 51.579 49.6782 50.6397 47.44C49.6397 48.08 47.8897 49.37 47.3897 48.82C45.8897 46.44 45.9997 43.95 45.6197 41.63C46.802 40.6375 47.8418 39.4866 48.7097 38.21C50.0887 36.2279 50.7903 33.8533 50.7097 31.44Z"
                fill="#EED5F2" />
            <path opacity="0.9"
                d="M49.1597 22C48.6797 20.76 48.2197 19.23 47.6897 17.83C47.2534 16.6744 46.7216 15.5572 46.0997 14.49C47.9122 13.9225 49.8263 13.7554 51.7097 14C51.6497 13.32 51.6197 12.71 51.5197 12.13C51.4523 11.5317 51.2725 10.9515 50.9897 10.42C51.4097 10.42 51.8197 10.51 52.2197 10.58C56.722 15.1612 59.7517 20.9839 60.9197 27.3C60.4297 27.13 58.3797 25.3 55.9197 24.03C53.8629 22.8184 51.5437 22.122 49.1597 22Z"
                fill="#F2DFF5" />
            <path opacity="0.9"
                d="M51.3997 29.63C51.2597 29.14 51.0797 28.63 50.9397 28.23C50.7997 27.83 50.5797 27.38 50.4097 26.98C50.101 25.2882 49.6834 23.6181 49.1597 21.98C50.777 21.8906 52.396 22.122 53.9234 22.6609C55.4509 23.1998 56.8566 24.0355 58.0597 25.12C57.9697 24.74 58.8897 24.12 58.7897 23.75C59.0445 24.1542 59.2717 24.5752 59.4697 25.01L59.8997 26.08C60.1797 26.7 60.4197 27.13 60.8997 27.29C61.4473 30.2926 61.5349 33.361 61.1597 36.39C60.7349 39.462 59.8306 42.4484 58.4797 45.24C58.4797 43.75 59.2897 42.72 59.7497 41.47C59.3074 41.6183 58.9187 41.8938 58.6323 42.262C58.3459 42.6303 58.1746 43.0748 58.1397 43.54C56.9897 38.37 54.5197 33.84 50.6997 31.4C50.6997 31.12 50.6997 30.85 50.6997 30.57C51.1797 30.36 51.6197 30.11 51.3997 29.63Z"
                fill="#F0DAF4" />
            <path opacity="0.9"
                d="M16.9797 54.31C18.6057 54.4305 20.2371 54.1644 21.7405 53.5335C23.2439 52.9026 24.5767 51.9248 25.6297 50.68C26.2597 51.1 27.6297 52.01 28.7597 51.46C30.0098 51.6902 31.2786 51.8041 32.5497 51.8C33.8997 51.8 35.0497 51.45 35.2597 50.93C35.4697 50.41 34.7597 51.6 33.4397 53.14C32.0354 54.7172 30.4777 56.151 28.7897 57.42C28.4097 58.8 26.9497 59.83 25.0297 60.5C24.5097 60.3 25.1397 59.5 24.6497 59.28C24.2755 59.6011 23.874 59.8888 23.4497 60.14C23.234 60.1052 23.0203 60.0584 22.8097 60L21.2797 59.5C20.6797 59.29 20.0397 59.02 19.4197 58.78L17.7897 58C17.7059 57.6214 17.5169 57.2741 17.2444 56.9981C16.972 56.7222 16.6272 56.5287 16.2497 56.44C15.773 56.2044 15.2355 56.1206 14.7097 56.2C14.2097 55.9 13.7097 55.52 13.2597 55.2C14.1597 55.3 15.0297 55.37 15.8997 55.39C16.4197 55.24 16.9797 54.31 16.9797 54.31Z"
                fill="#E8C6EE" />
            <path opacity="0.9"
                d="M47.4097 48.79C45.9097 46.41 46.0197 43.92 45.6397 41.6C45.3797 41.82 44.9197 42.21 44.5097 42.54C44.0997 42.87 43.7197 43.14 43.6397 43.18C44.2197 43.47 44.9497 43.63 44.8797 44.18C44.4216 45.2518 43.7397 46.2132 42.8797 47C42.3368 47.2584 41.7497 47.4111 41.1497 47.45L39.3197 47.57C38.9897 47.87 38.6497 48.18 38.3197 48.46C37.9897 48.74 37.6197 49.03 37.2497 49.3C37.1348 49.8118 37.1111 50.3399 37.1797 50.86C36.5619 51.0335 35.9144 51.0744 35.2797 50.98C34.5113 51.9116 33.6502 52.7626 32.7097 53.52C31.2497 54.83 29.3497 56.19 28.8397 57.42C28.3297 58.65 26.9997 59.83 25.0797 60.5L25.9097 60.68C26.547 60.8255 27.1911 60.939 27.8397 61.02C29.3232 61.2375 30.8204 61.3478 32.3197 61.35C31.9887 60.9516 31.5716 60.6336 31.0997 60.42C31.6211 60.5285 32.1354 60.6687 32.6397 60.84C33.2962 61.0248 33.9644 61.1652 34.6397 61.26C35.7155 61.1733 36.7844 61.0163 37.8397 60.79C38.6112 60.6332 39.3699 60.4192 40.1097 60.15C40.5297 60.02 39.4697 59.58 39.2697 58.88C41.2645 59.3005 43.3352 59.1832 45.2697 58.54C45.7797 58.32 46.2697 58.04 46.7297 57.78C47.0197 57.93 47.2297 58.02 47.0297 58.15C46.8297 58.28 46.4997 58.63 46.2097 58.86C46.6697 58.61 47.9097 58 49.0697 57.25C50.0225 56.6391 50.9375 55.9712 51.8097 55.25C51.3008 55.5686 50.7655 55.843 50.2097 56.07C49.6646 56.3155 49.0992 56.513 48.5197 56.66C49.0173 56.3527 49.4979 56.0189 49.9597 55.66C50.4388 55.318 50.8995 54.9508 51.3397 54.56L51.4397 54.45C51.864 52.0814 51.611 49.6412 50.7097 47.41C49.7097 48.05 47.9097 49.34 47.4097 48.79Z"
                fill="#EAC9EF" />
            <path opacity="0.9"
                d="M25.7097 0C27.1297 0.47 28.8397 0.69 30.4797 1.16C32.0234 1.50392 33.4051 2.36044 34.3997 3.59C35.4797 5.66 34.9997 7.45 34.3997 9.18C33.7997 10.91 32.9097 12.62 32.1897 14.37C31.5608 13.5731 30.6907 13.0012 29.7097 12.74C28.4009 12.4134 27.0381 12.3657 25.7097 12.6C24.1758 12.8668 22.6961 13.3837 21.3297 14.13C19.8642 14.9404 18.518 15.95 17.3297 17.13C17.4384 15.9647 17.9227 14.8662 18.7097 14C19.5466 13.0298 20.0234 11.8007 20.0597 10.52C19.8797 10.21 19.1197 10.25 18.6197 10.14C19.3292 9.03441 20.1797 8.02592 21.1497 7.14C22.0497 6.23 22.7797 5.41 22.4997 4.55C22.1497 3.5 21.0097 2.61 20.1097 1.44C20.4362 1.29897 20.77 1.17546 21.1097 1.07C22.2197 1.23 23.7097 0.38 25.7097 0Z"
                fill="#DDA8E5" />
            <path opacity="0.9"
                d="M7.70972 8.76C9.31985 6.79222 11.152 5.01711 13.1697 3.47C13.3877 3.73143 13.6323 3.96939 13.8997 4.18C11.5474 5.86719 9.48691 7.92772 7.79972 10.28C7.79972 9.77 7.77972 9.27 7.70972 8.76Z"
                fill="#E0B1E8" />
            <path opacity="0.9"
                d="M18.5797 10.13C19.0797 10.24 19.8397 10.2 20.0197 10.51C19.9969 11.7893 19.5343 13.0217 18.7097 14C17.9207 14.8689 17.4363 15.9712 17.3297 17.14C15.4525 19.0099 13.958 21.228 12.9297 23.67C12.8297 23.14 12.7497 22.6 12.6697 22.04C12.0797 23.41 9.55972 22.79 9.04972 24.44C8.47972 21.68 9.04972 18.44 10.0497 15.44C11.0497 12.44 12.1897 9.31 12.7097 6.18C13.7773 5.18539 14.932 4.28847 16.1597 3.5C17.3995 2.71587 18.7083 2.04643 20.0697 1.5C20.9697 2.67 22.0697 3.56 22.4597 4.61C22.7397 5.47 22.0097 6.29 21.1097 7.2C20.1444 8.06431 19.2941 9.04903 18.5797 10.13Z"
                fill="#E0B1E8" />
            <path opacity="0.9"
                d="M9.00972 24.43C9.51972 22.78 12.0097 23.43 12.6297 22.03C12.7097 22.59 12.7897 23.13 12.8897 23.66C11.6933 26.4523 11.1791 29.4895 11.3897 32.52C11.3467 32.7206 11.3233 32.9249 11.3197 33.13C11.386 35.3144 11.7978 37.4744 12.5397 39.53C10.5195 38.7016 8.65337 37.5387 7.01972 36.09C8.27305 32.6282 9.90991 29.3176 11.8997 26.22C11.2497 27.27 9.56972 26.62 9.07972 27.22C7.73237 28.3082 6.26641 29.2408 4.70972 30C3.15972 30.72 1.70972 31.07 0.809723 30.22C0.835593 23.2669 3.04646 16.4979 7.12972 10.87C7.78972 10.79 8.75972 10.75 9.00972 10.49C10.0893 8.92817 11.3294 7.48364 12.7097 6.17999C12.1497 9.30999 10.8797 12.29 9.93972 15.38C8.99972 18.47 8.43972 21.67 9.00972 24.43Z"
                fill="#E2B7E9" />
            <path opacity="0.9"
                d="M7.01972 36.09C8.65337 37.5387 10.5195 38.7016 12.5397 39.53C12.6697 40.09 12.8597 40.64 12.9997 41.26C13.3048 41.1308 13.5655 40.9153 13.7497 40.64L14.3597 41.7C14.4497 42.19 13.7597 43.25 15.2797 43.05C15.5882 43.5083 15.922 43.949 16.2797 44.37C16.3552 45.1375 16.2348 45.9117 15.9297 46.62L16.7097 45.86C17.6497 45.74 17.5297 46.68 17.9897 47.05C18.1465 46.8611 18.3169 46.6839 18.4997 46.52C19.3184 47.7162 20.4945 48.6228 21.8597 49.11C22.7552 49.4238 23.6706 49.6777 24.5997 49.87C24.9145 50.1621 25.2486 50.4327 25.5997 50.68C24.5467 51.9248 23.214 52.9026 21.7105 53.5335C20.2071 54.1644 18.5757 54.4305 16.9497 54.31C16.9497 54.31 16.3897 55.24 15.8397 55.31C14.9697 55.31 14.0997 55.22 13.1997 55.12C11.8502 53.1658 10.2909 51.3651 8.54972 49.75L5.79972 47.12C5.43972 46.55 5.10972 45.97 4.79972 45.39C3.96855 43.2895 3.39113 41.0974 3.07972 38.86C2.73086 36.4215 1.98427 34.0568 0.86972 31.86V30.24C1.74972 31.09 3.21972 30.74 4.76972 30.02C6.33385 29.259 7.8066 28.323 9.15972 27.23C9.59496 26.7424 10.1216 26.345 10.7097 26.06C11.3697 25.76 11.9397 25.71 11.8797 26.22C11.2497 27.92 9.74972 30.08 8.71972 32.22C7.68972 34.36 6.98972 36.21 7.01972 36.09Z"
                fill="#E5BDEB" />
            <path opacity="0.9"
                d="M35.8997 6.59001C34.7125 6.17613 33.4862 5.88461 32.2397 5.72001C33.6397 5.66001 34.9297 6.18001 35.7797 5.46001C36.3823 5.78488 37.0344 6.00789 37.7097 6.12001C37.1195 6.32328 36.5143 6.48042 35.8997 6.59001Z"
                fill="#F8EDFA" />
            <path opacity="0.9"
                d="M39.6097 2.13C40.0397 2.24 40.4597 2.39 40.8797 2.52C40.8027 2.70456 40.6845 2.86906 40.5341 3.00087C40.3838 3.13268 40.2052 3.22831 40.0121 3.28044C39.8191 3.33257 39.6166 3.3398 39.4204 3.30159C39.2241 3.26338 39.0391 3.18074 38.8797 3.06C38.6897 3.76 39.6997 3.28 39.5997 3.64C39.3097 4.55 38.8697 4.47 38.3697 4.22C38.7597 2.65 39.8297 1.22 40.4997 1.45L41.3597 1.73C40.7797 1.88 39.9697 1.8 39.6097 2.13Z"
                fill="#F8EDFA" />
            <path opacity="0.9"
                d="M50.9997 10.45C51.2825 10.9815 51.4623 11.5617 51.5297 12.16C51.6297 12.74 51.6597 13.35 51.7197 14.03C49.8337 13.7807 47.9161 13.9444 46.0997 14.51C44.4787 11.9063 42.2609 9.72609 39.6297 8.15C40.2394 8.14918 40.8481 8.09902 41.4497 8C40.8135 7.77579 40.2237 7.43686 39.7097 7C39.9228 6.88627 40.1101 6.72965 40.2597 6.54C40.6897 6.83 41.0897 6.96 41.4697 6.08C41.6097 5.73 40.6197 6.08 40.8797 5.45C41.0206 5.57557 41.1888 5.66672 41.3709 5.71628C41.5531 5.76585 41.7442 5.77248 41.9293 5.73565C42.1145 5.69881 42.2885 5.61953 42.4378 5.50402C42.5871 5.38852 42.7076 5.23995 42.7897 5.07L41.7097 4.57C42.0697 4.29 42.8297 4.41 43.4097 4.33C46.7003 5.88636 49.6896 8.01244 52.2397 10.61C51.8297 10.54 51.4197 10.49 50.9997 10.45Z"
                fill="#F6E8F8" />
        </g>
    </symbol>

    <symbol id="design-icon" viewBox="0 0 219 224">

        <g clip-path="url(#clip0_754_174)">
            <path
                d="M208.332 1.65283H10.7115C5.70582 1.65283 1.64792 5.72278 1.64792 10.7433V213.3C1.64792 218.321 5.70582 222.391 10.7115 222.391H208.332C213.338 222.391 217.395 218.321 217.395 213.3V10.7433C217.395 5.72278 213.338 1.65283 208.332 1.65283Z"
                fill="#F7F5F7" />
            <path d="M217 89H2.99994V195H217V89Z" fill="#B3B3B3" />
            <path
                d="M208.158 3.26209C210.122 3.2735 212.001 4.06078 213.389 5.45314C214.778 6.84551 215.563 8.73068 215.574 10.6998V213.126C215.591 214.116 215.412 215.099 215.048 216.019C214.684 216.939 214.141 217.777 213.451 218.485C212.761 219.193 211.938 219.757 211.03 220.144C210.121 220.53 209.145 220.732 208.158 220.738H10.6681C9.6812 220.732 8.70521 220.53 7.79668 220.144C6.88816 219.757 6.06517 219.193 5.37542 218.485C4.68566 217.777 4.14285 216.939 3.77844 216.019C3.41402 215.099 3.23525 214.116 3.25248 213.126V10.6998C3.26386 8.73068 4.04881 6.84551 5.43705 5.45314C6.82529 4.06078 8.70488 3.2735 10.6681 3.26209H208.158ZM208.158 -5.01668e-05H10.6681C7.83876 -5.01668e-05 5.12529 1.12725 3.12463 3.13385C1.12397 5.14045 6.67872e-06 7.86199 6.67872e-06 10.6998V213.126C-0.0230124 214.546 0.235927 215.956 0.761735 217.274C1.28754 218.593 2.0697 219.793 3.06263 220.805C4.05556 221.817 5.23939 222.621 6.54514 223.169C7.8509 223.718 9.25245 224 10.6681 224H208.158C209.589 224.023 211.009 223.758 212.335 223.22C213.661 222.682 214.865 221.882 215.877 220.867C216.888 219.853 217.686 218.645 218.222 217.315C218.759 215.985 219.023 214.561 219 213.126V10.6998C219 9.27988 218.719 7.87416 218.172 6.56453C217.625 5.2549 216.823 4.06755 215.814 3.07167C214.805 2.07579 213.609 1.29131 212.294 0.76394C210.98 0.236571 209.574 -0.0231376 208.158 -5.01668e-05V-5.01668e-05Z"
                fill="black" />
            <path
                d="M53.7437 23.0928H24.7317C20.5164 23.0928 17.0992 26.5201 17.0992 30.7479V56.8885C17.0992 61.1163 20.5164 64.5437 24.7317 64.5437H53.7437C57.959 64.5437 61.3762 61.1163 61.3762 56.8885V30.7479C61.3762 26.5201 57.959 23.0928 53.7437 23.0928Z"
                fill="#B3B3B3" />
            <path d="M193.207 26.0505H89.9088V29.0082H193.207V26.0505Z" fill="#B3B3B3" />
            <path d="M193.207 43.8398H89.9088V46.7975H193.207V43.8398Z" fill="#B3B3B3" />
            <path d="M193.207 64.5437H89.9088V67.5014H193.207V64.5437Z" fill="#B3B3B3" />
            <path
                d="M64.055 116H25.0687C21.1647 116 17.9999 119.174 17.9999 123.09V156.276C17.9999 160.192 21.1647 163.366 25.0687 163.366H64.055C67.9589 163.366 71.1237 160.192 71.1237 156.276V123.09C71.1237 119.174 67.9589 116 64.055 116Z"
                fill="#F7F5F7" />
            <path
                d="M129.018 116H90.0314C86.1275 116 82.9627 119.174 82.9627 123.09V156.276C82.9627 160.192 86.1275 163.366 90.0314 163.366H129.018C132.922 163.366 136.086 160.192 136.086 156.276V123.09C136.086 119.174 132.922 116 129.018 116Z"
                fill="#F7F5F7" />
            <path
                d="M193.937 116H154.951C151.047 116 147.882 119.174 147.882 123.09V156.276C147.882 160.192 151.047 163.366 154.951 163.366H193.937C197.841 163.366 201.006 160.192 201.006 156.276V123.09C201.006 119.174 197.841 116 193.937 116Z"
                fill="#F7F5F7" />
        </g>

    </symbol>

    <symbol id="dvlpmt-icon" viewBox="0 0 253 222">
        <path
            d="M249.239 0H3.76081C1.68377 0 0 1.68203 0 3.75692V184.089C0 186.164 1.68377 187.846 3.76081 187.846H249.239C251.316 187.846 253 186.164 253 184.089V3.75692C253 1.68203 251.316 0 249.239 0Z"
            fill="#1E1B1E" />
        <path d="M147.014 215.169H109.405L116.243 187.846H140.176L147.014 215.169Z" fill="#1E1B1E" />
        <path
            d="M188.793 211.754H67.6262C66.1534 211.754 64.9595 212.947 64.9595 214.418V219.336C64.9595 220.807 66.1534 222 67.6262 222H188.793C190.266 222 191.459 220.807 191.459 219.336V214.418C191.459 212.947 190.266 211.754 188.793 211.754Z"
            fill="#1E1B1E" />
        <path
            d="M245.957 3.41528H7.04297C5.04146 3.41528 3.41891 5.03615 3.41891 7.03559V167.149C3.41891 169.148 5.04146 170.769 7.04297 170.769H245.957C247.959 170.769 249.581 169.148 249.581 167.149V7.03559C249.581 5.03615 247.959 3.41528 245.957 3.41528Z"
            fill="#F5F5F7" />
        <path opacity="0.21"
            d="M64.9595 218.926H191.459V219.37C191.459 220.068 191.182 220.736 190.688 221.23C190.195 221.723 189.525 222 188.827 222H67.6262C67.276 222 66.9292 221.931 66.6057 221.797C66.2822 221.663 65.9882 221.467 65.7405 221.22C65.4929 220.972 65.2965 220.679 65.1625 220.355C65.0284 220.032 64.9595 219.686 64.9595 219.336V218.926Z"
            fill="#F2F2F4" />
        <path
            d="M128.209 182.723C129.154 182.723 129.919 181.958 129.919 181.015C129.919 180.072 129.154 179.308 128.209 179.308C127.265 179.308 126.5 180.072 126.5 181.015C126.5 181.958 127.265 182.723 128.209 182.723Z"
            fill="#FCF7FC" />
    </symbol>

    <symbol id="illu-icon" viewBox="0 0 138 217">
        <g clip-path="url(#clip0_754_128)">
            <path
                d="M15.7714 216.607C14.8997 216.556 14.0833 216.164 13.4999 215.516C12.9166 214.868 12.6135 214.017 12.6566 213.147V177.767C12.6245 177.33 12.6799 176.891 12.8197 176.476C12.9594 176.06 13.1807 175.677 13.4706 175.347C13.7605 175.018 14.1132 174.75 14.5083 174.558C14.9033 174.366 15.3327 174.254 15.7714 174.229H120.573C121.444 174.28 122.261 174.672 122.844 175.32C123.427 175.967 123.73 176.819 123.687 177.688V213.069C123.73 213.938 123.427 214.79 122.844 215.438C122.261 216.086 121.444 216.478 120.573 216.528L15.7714 216.607Z"
                fill="#3A353A" />
            <path
                d="M120.573 174.622C121.34 174.673 122.056 175.023 122.565 175.597C123.075 176.172 123.336 176.923 123.293 177.688V213.069C123.336 213.834 123.075 214.586 122.565 215.16C122.056 215.734 121.34 216.085 120.573 216.135H15.7714C15.0042 216.085 14.288 215.734 13.7786 215.16C13.2691 214.586 13.0076 213.834 13.0508 213.069V177.688C13.0076 176.923 13.2691 176.172 13.7786 175.597C14.288 175.023 15.0042 174.673 15.7714 174.622H120.573ZM120.573 173.836H15.7714C15.2809 173.861 14.8003 173.983 14.3576 174.195C13.9148 174.406 13.5186 174.704 13.1921 175.07C12.8656 175.435 12.6153 175.862 12.4556 176.325C12.296 176.788 12.2303 177.278 12.2623 177.767V213.148C12.2303 213.636 12.296 214.126 12.4556 214.589C12.6153 215.052 12.8656 215.479 13.1921 215.845C13.5186 216.211 13.9148 216.508 14.3576 216.72C14.8003 216.932 15.2809 217.054 15.7714 217.079H120.573C121.063 217.054 121.544 216.932 121.986 216.72C122.429 216.508 122.825 216.211 123.152 215.845C123.478 215.479 123.729 215.052 123.888 214.589C124.048 214.126 124.114 213.636 124.082 213.148V177.767C124.114 177.278 124.048 176.788 123.888 176.325C123.729 175.862 123.478 175.435 123.152 175.07C122.825 174.704 122.429 174.406 121.986 174.195C121.544 173.983 121.063 173.861 120.573 173.836Z"
                fill="#3A353A" />
            <path
                d="M8.08281 177.295C6.38738 177.295 4.6131 176.706 4.6131 175.566V160.234C4.6131 159.094 6.38738 158.504 8.08281 158.504H125.817C127.512 158.504 129.286 159.094 129.286 160.234V175.566C129.286 176.706 127.512 177.295 125.817 177.295H8.08281Z"
                fill="#443F44" />
            <path
                d="M125.856 158.898C127.512 158.898 128.892 159.487 128.892 160.234V175.566C128.892 176.313 127.512 176.902 125.856 176.902H8.08281C6.38738 176.902 5.00738 176.313 5.00738 175.566V160.234C5.00738 159.487 6.38738 158.898 8.08281 158.898H125.856ZM125.856 158.111H8.08281C5.79595 158.111 4.13995 158.976 4.13995 160.234V175.566C4.13995 176.824 5.7171 177.688 8.08281 177.688H125.856C128.103 177.688 129.799 176.824 129.799 175.566V160.234C129.799 158.976 128.222 158.111 125.856 158.111Z"
                fill="#443F44" />
            <path
                d="M14.7463 159.448L2.91771 117.62C0.150754 107.814 1.19258 97.3288 5.83543 88.2546L50.3897 1.4939H63.5589V95.8417H72.6274V1.4939H84.456L135.122 97.8466C136.622 100.748 136.934 104.117 135.989 107.242L120.218 159.448H14.7463Z"
                fill="#D8D6D8" />
            <path
                d="M83.5491 2.94837L133.781 98.5148C135.12 101.071 135.403 104.048 134.57 106.81L119.035 157.915H15.7714L4.41597 117.227C1.7423 107.774 2.75654 97.6614 7.25483 88.9228L51.2571 2.94837H62.0605V97.2962H73.8891V2.94837H83.352H83.5491ZM85.3628 0H70.9714V94.3478H65.0571V0H49.4828L4.61311 87.5862C-0.186242 96.9631 -1.27009 107.797 1.57711 117.935L13.6028 160.942H121.243L137.409 107.674C138.473 104.182 138.119 100.413 136.423 97.1783L85.3628 0Z"
                fill="black" />
        </g>
    </symbol>

</svg>