<svg xmlns="http://www.w3.org/2000/svg">
    <symbol id="logo" viewBox="0 0 146 58">
        <g>
            <path
                d="M7.29082 58C10.8785 58 13.7868 55.0957 13.7868 51.5131C13.7868 47.9306 10.8785 45.0263 7.29082 45.0263C3.70317 45.0263 0.7948 47.9306 0.7948 51.5131C0.7948 55.0957 3.70317 58 7.29082 58Z"
                fill="#AB2BC0" />
            <path
                d="M0.0305603 5.34213C0.282759 2.98397 0.794798 1.52634 2.32327 0.763181C3.248 0.297655 6.22089 -1.03024 12.2584 1.52634C25.8312 7.27292 49.706 30.3584 46.6491 48.8421C46.3128 50.9027 45.5562 55.4969 42.0636 57.2369C39.2054 58.664 34.9639 57.9542 33.657 55.7105C32.0216 52.9098 35.4071 49.7121 36.714 45.7895C45.1206 20.6053 -1.37564 18.6058 0.0305603 5.34213Z"
                fill="#AB2BC0" />
            <path
                d="M31.3643 5.34213C31.6165 2.98397 32.1285 1.52634 33.657 0.763181C34.5817 0.297655 37.5546 -1.03024 43.5921 1.52634C57.165 7.27292 81.0398 30.3584 77.9828 48.8421C77.6465 50.9027 76.8899 55.4969 73.3974 57.2369C70.5391 58.664 66.2976 57.9542 64.9908 55.7105C63.3553 52.9098 66.7409 49.7121 68.0477 45.7895C76.4543 20.6053 29.9581 18.6058 31.3643 5.34213Z"
                fill="#AB2BC0" />
            <path
                d="M131.029 21.5745C129.783 18.5219 137.433 14.2711 136.141 10.7224C134.85 7.17369 126.053 7.50186 125.282 7.53238C108.98 8.17344 93.5351 23.4824 95.8737 28.5955C98.4797 34.2582 121.139 23.345 129.752 33.701C133.757 38.5166 133.375 46.3084 130.394 50.9332C122.561 63.0521 94.8649 56.2753 93.9631 50.9332C93.7032 49.4068 95.4304 47.415 97.1576 47.1174C99.7866 46.6366 101.246 50.3684 104.8 52.2229C110.845 55.3519 121.376 52.3297 122.698 47.1174C123.761 42.9429 118.977 37.1505 113.749 35.6319C109.722 34.4566 107.979 36.5705 101.605 36.9063C100.291 36.975 88.7051 37.5855 86.2672 33.0905C83.2103 27.4126 94.4751 13.2484 108.002 6.28079C112.779 3.81579 125.916 -2.9763 136.118 3.0908C143.264 7.34159 148.071 17.3542 145.068 21.605C142.263 25.5811 132.297 24.6882 131.029 21.5745Z"
                fill="#1E73E4" />
        </g>
    </symbol>

    <symbol id="logo-footer" viewBox="0 0 88 35">
        <g clip-path="url(#clip0_754_14)">
            <path
                d="M4.39448 34.9998C6.5569 34.9998 8.30989 33.2473 8.30989 31.0854C8.30989 28.9235 6.5569 27.1709 4.39448 27.1709C2.23205 27.1709 0.479065 28.9235 0.479065 31.0854C0.479065 33.2473 2.23205 34.9998 4.39448 34.9998Z"
                fill="#282229" />
            <path
                d="M0.0184036 3.22395C0.170414 1.80092 0.47904 0.921316 1.40031 0.46079C1.95768 0.179869 3.74956 -0.621447 7.38859 0.921316C15.5695 4.38908 29.9598 18.32 28.1172 29.4739C27.9146 30.7174 27.4585 33.4897 25.3534 34.5397C23.6306 35.4009 21.0741 34.9726 20.2864 33.6187C19.3007 31.9286 21.3413 29.9989 22.129 27.6318C27.196 12.4345 -0.829168 11.2279 0.0184036 3.22395Z"
                fill="#282229" />
            <path
                d="M18.9045 3.22346C19.0566 1.80043 19.3652 0.920828 20.2865 0.460301C20.8438 0.17938 22.6357 -0.621935 26.2747 0.920828C34.4556 4.38859 48.8459 18.3195 47.0034 29.4735C46.8007 30.7169 46.3447 33.4892 44.2395 34.5392C42.5168 35.4004 39.9602 34.9721 39.1725 33.6182C38.1868 31.9281 40.2274 29.9985 41.0151 27.6314C46.0821 12.434 18.057 11.2274 18.9045 3.22346Z"
                fill="#282229" />
            <path
                d="M78.9761 13.0193C78.2253 11.1771 82.8363 8.612 82.0578 6.47055C81.2793 4.32911 75.9774 4.52714 75.5122 4.54556C65.6868 4.9324 56.3773 14.1705 57.7869 17.2561C59.3576 20.6732 73.0155 14.0877 78.2069 20.337C80.6206 23.2429 80.3903 27.9449 78.5938 30.7357C73.8723 38.0488 57.1788 33.9594 56.6353 30.7357C56.4787 29.8146 57.5197 28.6127 58.5607 28.4331C60.1453 28.1429 61.0251 30.3949 63.1671 31.514C66.8107 33.4021 73.1583 31.5784 73.9552 28.4331C74.5955 25.914 71.7119 22.4186 68.5612 21.5021C66.1336 20.7929 65.0833 22.0686 61.2416 22.2712C60.4493 22.3127 53.4661 22.6811 51.9967 19.9686C50.1541 16.5423 56.9439 7.99489 65.0972 3.79029C67.9761 2.30279 75.8945 -1.79589 82.044 1.86529C86.3509 4.43042 89.2483 10.4725 87.438 13.0377C85.7475 15.437 79.7408 14.8982 78.9761 13.0193Z"
                fill="#282229" />
        </g>
    </symbol>

    <symbol id="github" viewBox="0 0 61 62">
        <path
            d="M36.1598 41.55C35.9093 40.6317 35.4192 39.7966 34.7398 39.13C44.7398 38.02 44.8898 30.56 43.7998 26.13C43.5383 24.9825 43.0146 23.9112 42.2698 23C43.5998 21.13 41.8298 17.28 41.8298 17.28C39.8014 17.5676 37.8804 18.3697 36.2498 19.61C32.5398 17.99 25.8998 19.51 25.8998 19.51C24.8998 17.28 20.1298 17.28 20.1298 17.28C19.363 19.063 19.2706 21.0639 19.8698 22.91C19.3798 23.99 18.5698 24.75 18.2698 26.26C15.7698 39.47 28.4098 38.88 27.4298 39.08C26.4498 39.28 25.8398 42.08 25.8398 42.08C22.7398 43.49 20.6998 41.72 20.2598 40.74C19.8435 40.0012 19.27 39.3628 18.5798 38.87L17.5098 38C16.4598 37.24 14.8598 38.81 16.2798 39.07C17.6998 39.33 18.6698 42.07 18.8398 42.47C19.3644 43.5159 20.2432 44.3415 21.3198 44.8C22.7398 45.33 25.8398 44.8 25.8398 44.8V53.18V53.39C29.3096 54.0557 32.8892 53.867 36.2698 52.84C36.2598 50.3 36.2698 42.4 36.1598 41.55Z"
            fill="#AB2BC0" />
        <g opacity="0.9">
            <g opacity="0.9">
                <path opacity="0.9"
                    d="M7.08976 51.83C3.7964 48.1376 1.37355 43.7532 -0.000244141 39C0.599756 40 1.20976 40.89 1.86976 41.77C2.81446 43.3319 3.61766 44.9751 4.26976 46.68C4.97759 48.514 5.92589 50.2458 7.08976 51.83V51.83Z"
                    fill="#E5BDEB" />
                <path opacity="0.9"
                    d="M18.0798 59.62C16.3162 58.8902 14.6169 58.0138 12.9998 57C11.4133 55.9292 9.92121 54.7248 8.53976 53.4C8.73976 53.57 8.93976 53.73 9.14976 53.88C10.6398 54.88 12.1498 55.79 13.6798 56.71C15.1949 57.6047 16.6634 58.5759 18.0798 59.62V59.62Z"
                    fill="#E5BDEB" />
                <path opacity="0.9"
                    d="M49.9998 31.44C53.8198 33.88 56.2898 38.44 57.4398 43.58C57.295 44.6378 57.0161 45.6727 56.6098 46.66C56.5165 47.0127 56.3716 47.3497 56.1798 47.66C55.7648 48.4196 55.3109 49.1573 54.8198 49.87C53.6613 51.5918 52.2867 53.1579 50.7298 54.53C51.1466 52.1388 50.869 49.6782 49.9298 47.44C48.9298 48.08 47.1798 49.37 46.6798 48.82C45.1798 46.44 45.2898 43.95 44.9098 41.63C46.0921 40.6375 47.1319 39.4866 47.9998 38.21C49.3788 36.2279 50.0803 33.8533 49.9998 31.44Z"
                    fill="#EED5F2" />
                <path opacity="0.9"
                    d="M48.4498 22C47.9698 20.76 47.5098 19.23 46.9798 17.83C46.5434 16.6744 46.0116 15.5572 45.3898 14.49C47.2023 13.9225 49.1163 13.7554 50.9998 14C50.9398 13.32 50.9098 12.71 50.8098 12.13C50.7424 11.5317 50.5626 10.9515 50.2798 10.42C50.6998 10.42 51.1098 10.51 51.5098 10.58C56.012 15.1612 59.0418 20.9839 60.2098 27.3C59.7198 27.13 57.6698 25.3 55.2098 24.03C53.153 22.8184 50.8338 22.122 48.4498 22V22Z"
                    fill="#F2DFF5" />
                <path opacity="0.9"
                    d="M50.6898 29.63C50.5498 29.14 50.3698 28.63 50.2298 28.23C50.0898 27.83 49.8698 27.38 49.6998 26.98C49.391 25.2882 48.9735 23.6181 48.4498 21.98C50.067 21.8906 51.686 22.122 53.2135 22.6609C54.7409 23.1998 56.1467 24.0355 57.3498 25.12C57.2598 24.74 58.1798 24.12 58.0798 23.75C58.3345 24.1542 58.5617 24.5752 58.7598 25.01L59.1898 26.08C59.4698 26.7 59.7098 27.13 60.1898 27.29C60.7373 30.2926 60.825 33.361 60.4498 36.39C60.0249 39.462 59.1206 42.4484 57.7698 45.24C57.7698 43.75 58.5798 42.72 59.0398 41.47C58.5975 41.6183 58.2088 41.8938 57.9224 42.262C57.636 42.6303 57.4646 43.0748 57.4298 43.54C56.2798 38.37 53.8098 33.84 49.9898 31.4C49.9898 31.12 49.9898 30.85 49.9898 30.57C50.4698 30.36 50.9098 30.11 50.6898 29.63Z"
                    fill="#F0DAF4" />
                <path opacity="0.9"
                    d="M16.2697 54.31C17.8957 54.4305 19.5271 54.1644 21.0306 53.5335C22.534 52.9026 23.8667 51.9248 24.9197 50.68C25.5497 51.1 26.9197 52.01 28.0497 51.46C29.2998 51.6902 30.5686 51.8041 31.8397 51.8C33.1897 51.8 34.3397 51.45 34.5497 50.93C34.7597 50.41 34.0497 51.6 32.7297 53.14C31.3254 54.7172 29.7678 56.151 28.0797 57.42C27.6997 58.8 26.2397 59.83 24.3197 60.5C23.7997 60.3 24.4297 59.5 23.9397 59.28C23.5656 59.6011 23.164 59.8888 22.7397 60.14C22.524 60.1052 22.3103 60.0584 22.0997 60L20.5697 59.5C19.9697 59.29 19.3297 59.02 18.7097 58.78L17.0797 58C16.9959 57.6214 16.8069 57.2741 16.5345 56.9981C16.262 56.7222 15.9172 56.5287 15.5397 56.44C15.063 56.2044 14.5255 56.1206 13.9997 56.2C13.4997 55.9 12.9997 55.52 12.5497 55.2C13.4497 55.3 14.3197 55.37 15.1897 55.39C15.7097 55.24 16.2697 54.31 16.2697 54.31Z"
                    fill="#E8C6EE" />
                <path opacity="0.9"
                    d="M46.6998 48.79C45.1998 46.41 45.3098 43.92 44.9298 41.6C44.6698 41.82 44.2097 42.21 43.7997 42.54C43.3897 42.87 43.0098 43.14 42.9298 43.18C43.5098 43.47 44.2397 43.63 44.1697 44.18C43.7116 45.2518 43.0297 46.2132 42.1697 47C41.6268 47.2584 41.0397 47.4111 40.4397 47.45L38.6098 47.57C38.2798 47.87 37.9398 48.18 37.6098 48.46C37.2798 48.74 36.9098 49.03 36.5398 49.3C36.4249 49.8118 36.4012 50.3399 36.4698 50.86C35.852 51.0335 35.2045 51.0744 34.5697 50.98C33.8014 51.9116 32.9403 52.7626 31.9998 53.52C30.5398 54.83 28.6397 56.19 28.1297 57.42C27.6197 58.65 26.2898 59.83 24.3698 60.5L25.1998 60.68C25.837 60.8255 26.4811 60.939 27.1297 61.02C28.6132 61.2375 30.1104 61.3478 31.6098 61.35C31.2788 60.9516 30.8616 60.6336 30.3897 60.42C30.9112 60.5285 31.4255 60.6687 31.9298 60.84C32.5862 61.0248 33.2544 61.1652 33.9298 61.26C35.0055 61.1733 36.0745 61.0163 37.1298 60.79C37.9012 60.6332 38.66 60.4192 39.3998 60.15C39.8198 60.02 38.7598 59.58 38.5598 58.88C40.5545 59.3005 42.6252 59.1832 44.5598 58.54C45.0698 58.32 45.5598 58.04 46.0198 57.78C46.3098 57.93 46.5197 58.02 46.3197 58.15C46.1197 58.28 45.7898 58.63 45.4998 58.86C45.9598 58.61 47.1998 58 48.3598 57.25C49.3125 56.6391 50.2275 55.9712 51.0997 55.25C50.5909 55.5686 50.0556 55.843 49.4998 56.07C48.9547 56.3155 48.3892 56.513 47.8098 56.66C48.3073 56.3527 48.788 56.0189 49.2498 55.66C49.7289 55.318 50.1895 54.9508 50.6298 54.56L50.7297 54.45C51.154 52.0814 50.901 49.6412 49.9998 47.41C48.9998 48.05 47.1998 49.34 46.6998 48.79Z"
                    fill="#EAC9EF" />
                <path opacity="0.9"
                    d="M24.9998 0C26.4198 0.47 28.1298 0.69 29.7698 1.16C31.3134 1.50392 32.6951 2.36044 33.6897 3.59C34.7697 5.66 34.2897 7.45 33.6897 9.18C33.0897 10.91 32.1997 12.62 31.4797 14.37C30.8508 13.5731 29.9808 13.0012 28.9998 12.74C27.691 12.4134 26.3282 12.3657 24.9998 12.6C23.4658 12.8668 21.9861 13.3837 20.6198 14.13C19.1542 14.9404 17.808 15.95 16.6198 17.13C16.7284 15.9647 17.2127 14.8662 17.9998 14C18.8366 13.0298 19.3134 11.8007 19.3498 10.52C19.1698 10.21 18.4097 10.25 17.9097 10.14C18.6193 9.03441 19.4698 8.02592 20.4398 7.14C21.3398 6.23 22.0698 5.41 21.7898 4.55C21.4398 3.5 20.2997 2.61 19.3997 1.44C19.7263 1.29897 20.0601 1.17546 20.3997 1.07C21.5097 1.23 22.9998 0.38 24.9998 0Z"
                    fill="#DDA8E5" />
                <path opacity="0.9"
                    d="M6.99976 8.76C8.60989 6.79222 10.442 5.01711 12.4598 3.47C12.6777 3.73143 12.9224 3.96939 13.1898 4.18C10.8375 5.86719 8.77695 7.92772 7.08976 10.28C7.08976 9.77 7.06976 9.27 6.99976 8.76Z"
                    fill="#E0B1E8" />
                <path opacity="0.9"
                    d="M17.8698 10.13C18.3698 10.24 19.1298 10.2 19.3098 10.51C19.2869 11.7893 18.8243 13.0217 17.9998 14C17.2107 14.8689 16.7263 15.9712 16.6198 17.14C14.7425 19.0099 13.248 21.228 12.2198 23.67C12.1198 23.14 12.0398 22.6 11.9598 22.04C11.3698 23.41 8.84976 22.79 8.33976 24.44C7.76976 21.68 8.33976 18.44 9.33976 15.44C10.3398 12.44 11.4798 9.31 11.9998 6.18C13.0674 5.18539 14.222 4.28847 15.4498 3.5C16.6896 2.71587 17.9983 2.04643 19.3598 1.5C20.2598 2.67 21.3598 3.56 21.7498 4.61C22.0298 5.47 21.2998 6.29 20.3998 7.2C19.4344 8.06431 18.5842 9.04903 17.8698 10.13V10.13Z"
                    fill="#E0B1E8" />
                <path opacity="0.9"
                    d="M8.29976 24.43C8.80976 22.78 11.2998 23.43 11.9198 22.03C11.9998 22.59 12.0798 23.13 12.1798 23.66C10.9834 26.4523 10.4692 29.4895 10.6798 32.52C10.6367 32.7206 10.6133 32.9249 10.6098 33.13C10.676 35.3144 11.0878 37.4744 11.8298 39.53C9.80955 38.7016 7.94341 37.5387 6.30976 36.09C7.56309 32.6282 9.19995 29.3176 11.1898 26.22C10.5398 27.27 8.85976 26.62 8.36976 27.22C7.02241 28.3082 5.55645 29.2408 3.99976 30C2.44976 30.72 0.999762 31.07 0.099762 30.22C0.125632 23.2669 2.3365 16.4979 6.41976 10.87C7.07976 10.79 8.04976 10.75 8.29976 10.49C9.37935 8.92817 10.6194 7.48364 11.9998 6.17999C11.4398 9.30999 10.1698 12.29 9.22976 15.38C8.28976 18.47 7.72976 21.67 8.29976 24.43Z"
                    fill="#E2B7E9" />
                <path opacity="0.9"
                    d="M6.30976 36.09C7.9434 37.5387 9.80954 38.7016 11.8298 39.53C11.9598 40.09 12.1498 40.64 12.2898 41.26C12.5948 41.1308 12.8555 40.9153 13.0398 40.64L13.6498 41.7C13.7398 42.19 13.0498 43.25 14.5698 43.05C14.8782 43.5083 15.2121 43.949 15.5698 44.37C15.6452 45.1375 15.5248 45.9117 15.2198 46.62L15.9998 45.86C16.9398 45.74 16.8198 46.68 17.2798 47.05C17.4365 46.8611 17.607 46.6839 17.7898 46.52C18.6085 47.7162 19.7846 48.6228 21.1498 49.11C22.0452 49.4238 22.9606 49.6777 23.8898 49.87C24.2046 50.1621 24.5386 50.4327 24.8898 50.68C23.8367 51.9248 22.504 52.9026 21.0006 53.5335C19.4972 54.1644 17.8657 54.4305 16.2398 54.31C16.2398 54.31 15.6798 55.24 15.1298 55.31C14.2598 55.31 13.3898 55.22 12.4898 55.12C11.1402 53.1658 9.58096 51.3651 7.83976 49.75L5.08976 47.12C4.72976 46.55 4.39976 45.97 4.08976 45.39C3.25859 43.2895 2.68117 41.0974 2.36976 38.86C2.02089 36.4215 1.27431 34.0568 0.15976 31.86V30.24C1.03976 31.09 2.50976 30.74 4.05976 30.02C5.62389 29.259 7.09663 28.323 8.44976 27.23C8.88499 26.7424 9.41159 26.345 9.99976 26.06C10.6598 25.76 11.2298 25.71 11.1698 26.22C10.5398 27.92 9.03976 30.08 8.00976 32.22C6.97976 34.36 6.27976 36.21 6.30976 36.09Z"
                    fill="#E5BDEB" />
                <path opacity="0.9"
                    d="M35.1898 6.59001C34.0026 6.17613 32.7762 5.88461 31.5298 5.72001C32.9298 5.66001 34.2198 6.18001 35.0698 5.46001C35.6723 5.78488 36.3244 6.00789 36.9998 6.12001C36.4095 6.32328 35.8043 6.48042 35.1898 6.59001V6.59001Z"
                    fill="#F8EDFA" />
                <path opacity="0.9"
                    d="M38.8998 2.13C39.3298 2.24 39.7498 2.39 40.1698 2.52C40.0928 2.70456 39.9746 2.86905 39.8242 3.00087C39.6738 3.13268 39.4952 3.22831 39.3022 3.28044C39.1091 3.33257 38.9067 3.3398 38.7104 3.30159C38.5141 3.26338 38.3292 3.18074 38.1698 3.06C37.9798 3.76 38.9898 3.28 38.8898 3.64C38.5998 4.55 38.1598 4.47 37.6598 4.22C38.0498 2.65 39.1198 1.22 39.7898 1.45L40.6498 1.73C40.0698 1.88 39.2598 1.8 38.8998 2.13Z"
                    fill="#F8EDFA" />
                <path opacity="0.9"
                    d="M50.2897 10.45C50.5725 10.9815 50.7523 11.5617 50.8197 12.16C50.9197 12.74 50.9497 13.35 51.0097 14.03C49.1238 13.7807 47.2061 13.9444 45.3897 14.51C43.7688 11.9063 41.5509 9.72609 38.9197 8.15C39.5295 8.14918 40.1381 8.09902 40.7397 8C40.1035 7.77579 39.5138 7.43686 38.9997 7C39.2129 6.88627 39.4001 6.72965 39.5497 6.54V6.54C39.9797 6.83 40.3797 6.96 40.7597 6.08C40.8997 5.73 39.9097 6.08 40.1697 5.45C40.3107 5.57557 40.4788 5.66672 40.661 5.71628C40.8431 5.76585 41.0342 5.77248 41.2194 5.73565C41.4045 5.69881 41.5786 5.61953 41.7279 5.50402C41.8771 5.38852 41.9976 5.23995 42.0797 5.07L40.9997 4.57C41.3597 4.29 42.1197 4.41 42.6997 4.33C45.9903 5.88636 48.9797 8.01244 51.5297 10.61C51.1197 10.54 50.7097 10.49 50.2897 10.45Z"
                    fill="#F6E8F8" />
            </g>
        </g>

    </symbol>

    <symbol id="github-black" viewBox="0 0 40 40">
        <g clip-path="url(#clip0_754_46)">
            <path
                d="M23.5762 27.0906C23.4128 26.4919 23.0933 25.9473 22.6503 25.5127C29.1703 24.789 29.2681 19.9251 28.5574 17.0368C28.387 16.2886 28.0455 15.5901 27.5599 14.996C28.427 13.7768 27.273 11.2666 27.273 11.2666C25.9505 11.4541 24.698 11.9771 23.6349 12.7858C21.2159 11.7295 16.8867 12.7206 16.8867 12.7206C16.2347 11.2666 13.1247 11.2666 13.1247 11.2666C12.6248 12.4291 12.5645 13.7337 12.9551 14.9373C12.6357 15.6415 12.1076 16.137 11.912 17.1215C10.282 25.7344 18.5232 25.3497 17.8842 25.4801C17.2453 25.6105 16.8476 27.4361 16.8476 27.4361C14.8264 28.3554 13.4963 27.2014 13.2094 26.5624C12.938 26.0807 12.5641 25.6645 12.1141 25.3432L11.4164 24.776C10.7318 24.2805 9.68864 25.3041 10.6145 25.4736C11.5403 25.6431 12.1728 27.4296 12.2836 27.6904C12.6257 28.3723 13.1987 28.9106 13.9005 29.2096C14.8264 29.5551 16.8476 29.2096 16.8476 29.2096V34.6733V34.8102C19.1099 35.2443 21.4438 35.1212 23.6479 34.4516C23.6414 32.7955 23.6479 27.6448 23.5762 27.0906Z"
                fill="#282229" />
            <g opacity="0.9">
                <g opacity="0.9">
                    <path opacity="0.9"
                        d="M4.62266 33.7929C2.4754 31.3854 0.895712 28.5268 0 25.4277C0.391198 26.0797 0.788916 26.66 1.21923 27.2338C1.83518 28.2521 2.35886 29.3235 2.78403 30.4351C3.24553 31.6308 3.86382 32.7599 4.62266 33.7929V33.7929Z"
                        fill="#BCBBBD" />
                    <path opacity="0.9"
                        d="M11.7881 38.8718C10.6383 38.396 9.53033 37.8246 8.47596 37.1636C7.44159 36.4654 6.46875 35.6802 5.56805 34.8164C5.69845 34.9272 5.82885 35.0316 5.96577 35.1294C6.93725 35.7814 7.92176 36.3747 8.91932 36.9745C9.90717 37.5578 10.8647 38.1911 11.7881 38.8718V38.8718Z"
                        fill="#BCBBBD" />
                    <path opacity="0.9"
                        d="M32.5999 20.499C35.0905 22.0899 36.7009 25.063 37.4507 28.4143C37.3563 29.1039 37.1745 29.7787 36.9096 30.4224C36.8488 30.6524 36.7543 30.8721 36.6292 31.0744C36.3587 31.5697 36.0627 32.0506 35.7425 32.5153C34.9871 33.6379 34.0909 34.659 33.0758 35.5536C33.3476 33.9946 33.1666 32.3903 32.5542 30.931C31.9022 31.3482 30.7612 32.1893 30.4352 31.8307C29.4572 30.279 29.5289 28.6555 29.2812 27.1429C30.0521 26.4957 30.73 25.7454 31.2959 24.913C32.195 23.6207 32.6524 22.0725 32.5999 20.499Z"
                        fill="#D4D3D4" />
                    <path opacity="0.9"
                        d="M31.5892 14.3441C31.2763 13.5356 30.9763 12.538 30.6308 11.6252C30.3463 10.8718 29.9995 10.1434 29.5941 9.44757C30.7759 9.07759 32.0238 8.96859 33.2518 9.12809C33.2127 8.68474 33.1931 8.28702 33.1279 7.90886C33.084 7.51878 32.9668 7.1405 32.7824 6.79395C33.0562 6.79395 33.3235 6.85262 33.5843 6.89826C36.5198 9.88519 38.4952 13.6816 39.2567 17.7997C38.9372 17.6888 37.6006 16.4957 35.9967 15.6676C34.6557 14.8777 33.1436 14.4236 31.5892 14.3441V14.3441Z"
                        fill="#DEDDDE" />
                    <path opacity="0.9"
                        d="M33.0497 19.3188C32.9584 18.9994 32.8411 18.6668 32.7498 18.406C32.6585 18.1452 32.5151 17.8518 32.4042 17.591C32.2029 16.488 31.9307 15.3991 31.5892 14.3311C32.6437 14.2728 33.6993 14.4236 34.6951 14.775C35.691 15.1263 36.6076 15.6713 37.392 16.3783C37.3333 16.1306 37.9332 15.7263 37.868 15.4851C38.0341 15.7486 38.1822 16.0231 38.3113 16.3066L38.5917 17.0042C38.7742 17.4085 38.9307 17.6888 39.2437 17.7932C39.6007 19.7509 39.6578 21.7515 39.4132 23.7263C39.1362 25.7293 38.5466 27.6764 37.6658 29.4965C37.6658 28.525 38.194 27.8535 38.4939 27.0385C38.2055 27.1352 37.9521 27.3148 37.7653 27.5549C37.5786 27.795 37.4669 28.0848 37.4442 28.3881C36.6944 25.0173 35.0839 22.0637 32.5933 20.4729C32.5933 20.2903 32.5933 20.1143 32.5933 19.9317C32.9063 19.7948 33.1931 19.6318 33.0497 19.3188Z"
                        fill="#D9D8D9" />
                    <path opacity="0.9"
                        d="M10.608 35.4097C11.6681 35.4883 12.7318 35.3148 13.712 34.9034C14.6922 34.4921 15.5612 33.8546 16.2478 33.043C16.6585 33.3168 17.5517 33.9101 18.2885 33.5515C19.1036 33.7016 19.9308 33.7759 20.7596 33.7732C21.6398 33.7732 22.3896 33.545 22.5265 33.206C22.6634 32.8669 22.2005 33.6428 21.3398 34.6469C20.4242 35.6752 19.4086 36.61 18.3081 37.4374C18.0603 38.3372 17.1084 39.0087 15.8566 39.4456C15.5175 39.3152 15.9283 38.7936 15.6088 38.6501C15.3648 38.8595 15.103 39.0471 14.8264 39.2109C14.6857 39.1882 14.5464 39.1577 14.4091 39.1196L13.4116 38.7936C13.0204 38.6567 12.6031 38.4806 12.1989 38.3241L11.1361 37.8156C11.0814 37.5687 10.9582 37.3423 10.7806 37.1624C10.603 36.9825 10.3782 36.8563 10.132 36.7985C9.82121 36.6449 9.47077 36.5902 9.12795 36.642C8.80195 36.4464 8.47595 36.1986 8.18256 35.99C8.76935 36.0552 9.33659 36.1008 9.90383 36.1139C10.2429 36.0161 10.608 35.4097 10.608 35.4097Z"
                        fill="#C5C3C5" />
                    <path opacity="0.9"
                        d="M30.4482 31.8109C29.4703 30.2592 29.542 28.6357 29.2942 27.123C29.1247 27.2665 28.8248 27.5208 28.5575 27.7359C28.2901 27.9511 28.0424 28.1271 27.9902 28.1532C28.3684 28.3423 28.8443 28.4466 28.7987 28.8052C28.5 29.504 28.0554 30.1309 27.4947 30.6438C27.1407 30.8123 26.7579 30.9119 26.3667 30.9372L25.1736 31.0155C24.9584 31.2111 24.7368 31.4132 24.5216 31.5957C24.3064 31.7783 24.0652 31.9674 23.824 32.1434C23.7491 32.4771 23.7336 32.8215 23.7783 33.1605C23.3755 33.2737 22.9534 33.3003 22.5395 33.2388C22.0385 33.8461 21.4771 34.401 20.8639 34.8948C19.912 35.749 18.6732 36.6357 18.3407 37.4376C18.0081 38.2396 17.141 39.0089 15.8892 39.4458L16.4303 39.5631C16.8458 39.658 17.2658 39.732 17.6887 39.7848C18.6559 39.9266 19.6321 39.9985 20.6096 40C20.3938 39.7402 20.1218 39.5329 19.8142 39.3936C20.1541 39.4643 20.4895 39.5558 20.8183 39.6675C21.2463 39.788 21.6819 39.8795 22.1222 39.9413C22.8237 39.8848 23.5206 39.7824 24.2086 39.6349C24.7116 39.5326 25.2063 39.3931 25.6887 39.2176C25.9625 39.1328 25.2714 38.8459 25.141 38.3896C26.4416 38.6637 27.7917 38.5872 29.053 38.1679C29.3855 38.0244 29.705 37.8419 30.0049 37.6724C30.194 37.7702 30.3309 37.8288 30.2005 37.9136C30.0701 37.9984 29.8549 38.2266 29.6659 38.3765C29.9658 38.2135 30.7742 37.8158 31.5306 37.3268C32.1518 36.9285 32.7483 36.493 33.317 36.0228C32.9852 36.2305 32.6362 36.4094 32.2738 36.5574C31.9185 36.7175 31.5498 36.8462 31.172 36.9421C31.4964 36.7417 31.8098 36.5241 32.1108 36.2901C32.4232 36.0671 32.7236 35.8277 33.0106 35.5729L33.0758 35.5012C33.3524 33.9569 33.1874 32.3658 32.5998 30.9111C31.9478 31.3284 30.7742 32.1695 30.4482 31.8109Z"
                        fill="#C8C7C8" />
                    <path opacity="0.9"
                        d="M16.2999 0C17.2257 0.306438 18.3407 0.449878 19.4099 0.756316C20.4164 0.980553 21.3173 1.539 21.9658 2.34067C22.6699 3.6903 22.357 4.85738 21.9658 5.98533C21.5746 7.11329 20.9943 8.2282 20.5249 9.36919C20.1148 8.84961 19.5475 8.47676 18.9079 8.30644C18.0546 8.0935 17.166 8.06241 16.2999 8.21516C15.2998 8.3891 14.3351 8.7261 13.4442 9.21271C12.4886 9.74106 11.6109 10.3993 10.8362 11.1687C10.907 10.4089 11.2228 9.69273 11.7359 9.12796C12.2816 8.49538 12.5924 7.69405 12.6161 6.85901C12.4988 6.65689 12.0033 6.68297 11.6773 6.61125C12.1399 5.8904 12.6944 5.23288 13.3268 4.65526C13.9136 4.06194 14.3896 3.5273 14.207 2.96659C13.9788 2.28199 13.2355 1.70171 12.6487 0.938875C12.8616 0.846925 13.0793 0.766397 13.3007 0.697637C14.0244 0.801956 14.9959 0.247759 16.2999 0Z"
                        fill="#A7A4A7" />
                    <path opacity="0.9"
                        d="M4.56396 5.71127C5.61377 4.42828 6.80832 3.27091 8.12387 2.26221C8.26598 2.43266 8.42549 2.5878 8.59982 2.72512C7.06614 3.82517 5.72269 5.16862 4.62264 6.7023C4.62264 6.36979 4.6096 6.04379 4.56396 5.71127Z"
                        fill="#B0AEB0" />
                    <path opacity="0.9"
                        d="M11.6512 6.60476C11.9772 6.67648 12.4727 6.6504 12.59 6.85252C12.5751 7.68659 12.2735 8.49011 11.7359 9.12799C11.2215 9.6945 10.9056 10.4132 10.8362 11.1753C9.61224 12.3945 8.63779 13.8406 7.96739 15.4328C7.90219 15.0872 7.85003 14.7352 7.79787 14.37C7.41319 15.2633 5.77016 14.859 5.43764 15.9348C5.066 14.1353 5.43764 12.0229 6.08964 10.0669C6.74164 8.11087 7.48491 6.07012 7.82395 4.02937C8.52004 3.38089 9.27284 2.7961 10.0733 2.28202C10.8817 1.77077 11.735 1.3343 12.6226 0.978027C13.2094 1.74086 13.9266 2.32114 14.1809 3.00574C14.3635 3.56645 13.8875 4.10109 13.3007 4.69441C12.6713 5.25793 12.117 5.89997 11.6512 6.60476V6.60476Z"
                        fill="#B0AEB0" />
                    <path opacity="0.9"
                        d="M5.41156 15.9282C5.74408 14.8524 7.36755 15.2762 7.77179 14.3634C7.82395 14.7286 7.87611 15.0806 7.94131 15.4262C7.16126 17.2468 6.82602 19.227 6.96331 21.2029C6.93526 21.3337 6.91998 21.4669 6.91767 21.6006C6.96089 23.0248 7.22936 24.4332 7.71311 25.7734C6.39593 25.2333 5.17922 24.4751 4.11409 23.5305C4.93125 21.2735 5.99848 19.115 7.29583 17.0953C6.87203 17.7799 5.77668 17.3561 5.4572 17.7473C4.57873 18.4568 3.62293 19.0649 2.60797 19.5599C1.59738 20.0293 0.651983 20.2575 0.0651855 19.7033C0.0820525 15.1699 1.52353 10.7565 4.18581 7.08716C4.61612 7.035 5.24856 7.00892 5.41156 6.8394C6.11545 5.8211 6.92398 4.87927 7.82395 4.0293C7.45883 6.07005 6.63079 8.013 6.01792 10.0277C5.40504 12.0423 5.03992 14.1287 5.41156 15.9282Z"
                        fill="#B6B4B6" />
                    <path opacity="0.9"
                        d="M4.11409 23.5306C5.17922 24.4751 6.39594 25.2333 7.71311 25.7734C7.79787 26.1386 7.92175 26.4972 8.01303 26.9014C8.21194 26.8172 8.3819 26.6767 8.50203 26.4972L8.89974 27.1883C8.95842 27.5078 8.50855 28.1989 9.49958 28.0685C9.7007 28.3673 9.91838 28.6546 10.1516 28.9291C10.2008 29.4295 10.1223 29.9343 9.92338 30.3961L10.4319 29.9006C11.0448 29.8223 10.9666 30.4352 11.2665 30.6765C11.3687 30.5533 11.4798 30.4378 11.599 30.3309C12.1328 31.1108 12.8996 31.7019 13.7897 32.0196C14.3736 32.2241 14.9704 32.3897 15.5762 32.5151C15.7814 32.7055 15.9993 32.882 16.2282 33.0432C15.5416 33.8548 14.6727 34.4923 13.6925 34.9037C12.7122 35.315 11.6485 35.4885 10.5884 35.41C10.5884 35.41 10.2233 36.0163 9.8647 36.062C9.29746 36.062 8.73023 36.0033 8.14343 35.9381C7.26355 34.6639 6.2469 33.4899 5.11164 32.4368L3.31865 30.7221C3.08393 30.3505 2.86878 29.9723 2.66666 29.5941C2.12474 28.2247 1.74826 26.7954 1.54522 25.3366C1.31776 23.7467 0.830994 22.2049 0.104309 20.7726V19.7164C0.678066 20.2706 1.6365 20.0424 2.6471 19.573C3.6669 19.0768 4.62713 18.4665 5.50936 17.7539C5.79313 17.436 6.13647 17.1768 6.51996 16.991C6.95027 16.7954 7.32191 16.7628 7.28279 17.0954C6.87204 18.2038 5.89404 19.6121 5.22248 21.0073C4.55093 22.4026 4.09453 23.6088 4.11409 23.5306Z"
                        fill="#BCBBBD" />
                    <path opacity="0.9"
                        d="M22.9437 4.29682C22.1697 4.02697 21.3701 3.8369 20.5574 3.72958C21.4702 3.69046 22.3113 4.0295 22.8655 3.56006C23.2584 3.77187 23.6836 3.91727 24.1239 3.99038C23.739 4.12291 23.3445 4.22537 22.9437 4.29682V4.29682Z"
                        fill="#ECECED" />
                    <path opacity="0.9"
                        d="M25.3627 1.38897C25.643 1.46069 25.9169 1.55849 26.1907 1.64325C26.1405 1.76359 26.0634 1.87084 25.9654 1.95678C25.8673 2.04272 25.7509 2.10507 25.6251 2.13906C25.4992 2.17304 25.3672 2.17776 25.2392 2.15285C25.1112 2.12794 24.9907 2.07405 24.8867 1.99533C24.7628 2.45173 25.4214 2.13877 25.3562 2.37349C25.1671 2.96681 24.8802 2.91465 24.5542 2.75165C24.8085 1.72801 25.5061 0.795658 25.943 0.945617L26.5037 1.12818C26.1255 1.22598 25.5974 1.17382 25.3627 1.38897Z"
                        fill="#ECECED" />
                    <path opacity="0.9"
                        d="M32.7889 6.81346C32.9733 7.16002 33.0906 7.53829 33.1345 7.92838C33.1997 8.30653 33.2193 8.70425 33.2584 9.14761C32.0287 8.98504 30.7784 9.09183 29.5942 9.46057C28.5373 7.76294 27.0912 6.34147 25.3757 5.31387C25.7733 5.31334 26.1701 5.28063 26.5624 5.21607C26.1475 5.06988 25.763 4.8489 25.4279 4.56407C25.5668 4.48992 25.6889 4.38781 25.7865 4.26415V4.26415C26.0669 4.45323 26.3276 4.53799 26.5754 3.96424C26.6667 3.73604 26.0212 3.96424 26.1907 3.55348C26.2826 3.63535 26.3923 3.69478 26.511 3.72709C26.6298 3.75941 26.7544 3.76373 26.8751 3.73972C26.9958 3.7157 27.1093 3.66401 27.2066 3.5887C27.304 3.51339 27.3825 3.41653 27.436 3.30572L26.7319 2.97972C26.9666 2.79716 27.4621 2.8754 27.8403 2.82324C29.9857 3.83798 31.9348 5.22418 33.5974 6.91778C33.3301 6.87214 33.0628 6.83954 32.7889 6.81346Z"
                        fill="#E7E7E7" />
                </g>
            </g>
        </g>
    </symbol>

    <symbol id="linkedin" viewBox="0 0 62 62">
        <path d="M24.9797 26.51H19.8397V41.7H24.9797V26.51Z" fill="#AB2BC0" />
        <path
            d="M22.4097 23.94C23.8291 23.94 24.9797 22.7894 24.9797 21.37C24.9797 19.9506 23.8291 18.8 22.4097 18.8C20.9904 18.8 19.8397 19.9506 19.8397 21.37C19.8397 22.7894 20.9904 23.94 22.4097 23.94Z"
            fill="#AB2BC0" />
        <path
            d="M28.1297 26.51V41.7H32.7097V32.59C32.8036 31.924 33.1427 31.3171 33.6606 30.888C34.1785 30.4589 34.8379 30.2385 35.5097 30.27C35.8115 30.2447 36.1153 30.2831 36.4013 30.3828C36.6873 30.4825 36.9491 30.6413 37.1698 30.8488C37.3905 31.0562 37.565 31.3078 37.6822 31.5871C37.7993 31.8664 37.8564 32.1672 37.8497 32.47V41.7H42.6397L42.5097 31.38C42.448 30.7355 42.2861 30.1046 42.0297 29.51C41.7171 28.6426 41.1478 27.891 40.3975 27.3551C39.6473 26.8192 38.7516 26.5244 37.8297 26.51C34.4397 26.51 33.3897 26.98 32.3397 28.38L32.2197 26.51H28.1297Z"
            fill="#AB2BC0" />
        <g opacity="0.9">
            <path opacity="0.9"
                d="M7.79972 51.83C4.50636 48.1376 2.08352 43.7532 0.709717 39C1.30972 40 1.91972 40.89 2.57972 41.77C3.52442 43.3319 4.32762 44.9751 4.97972 46.68C5.68755 48.514 6.63585 50.2458 7.79972 51.83Z"
                fill="#E5BDEB" />
            <path opacity="0.9"
                d="M18.7897 59.62C17.0262 58.8902 15.3269 58.0138 13.7097 57C12.1233 55.9292 10.6312 54.7248 9.24973 53.4C9.44973 53.57 9.64973 53.73 9.85972 53.88C11.3497 54.88 12.8597 55.79 14.3897 56.71C15.9048 57.6047 17.3734 58.5759 18.7897 59.62Z"
                fill="#E5BDEB" />
            <path opacity="0.9"
                d="M50.7097 31.44C54.5297 33.88 56.9997 38.44 58.1497 43.58C58.005 44.6378 57.7261 45.6727 57.3197 46.66C57.2265 47.0127 57.0816 47.3497 56.8897 47.66C56.4748 48.4196 56.0209 49.1573 55.5297 49.87C54.3712 51.5918 52.9967 53.1579 51.4397 54.53C51.8566 52.1388 51.579 49.6782 50.6397 47.44C49.6397 48.08 47.8897 49.37 47.3897 48.82C45.8897 46.44 45.9997 43.95 45.6197 41.63C46.802 40.6375 47.8418 39.4866 48.7097 38.21C50.0887 36.2279 50.7903 33.8533 50.7097 31.44Z"
                fill="#EED5F2" />
            <path opacity="0.9"
                d="M49.1597 22C48.6797 20.76 48.2197 19.23 47.6897 17.83C47.2534 16.6744 46.7216 15.5572 46.0997 14.49C47.9122 13.9225 49.8263 13.7554 51.7097 14C51.6497 13.32 51.6197 12.71 51.5197 12.13C51.4523 11.5317 51.2725 10.9515 50.9897 10.42C51.4097 10.42 51.8197 10.51 52.2197 10.58C56.722 15.1612 59.7517 20.9839 60.9197 27.3C60.4297 27.13 58.3797 25.3 55.9197 24.03C53.8629 22.8184 51.5437 22.122 49.1597 22Z"
                fill="#F2DFF5" />
            <path opacity="0.9"
                d="M51.3997 29.63C51.2597 29.14 51.0797 28.63 50.9397 28.23C50.7997 27.83 50.5797 27.38 50.4097 26.98C50.101 25.2882 49.6834 23.6181 49.1597 21.98C50.777 21.8906 52.396 22.122 53.9234 22.6609C55.4509 23.1998 56.8566 24.0355 58.0597 25.12C57.9697 24.74 58.8897 24.12 58.7897 23.75C59.0445 24.1542 59.2717 24.5752 59.4697 25.01L59.8997 26.08C60.1797 26.7 60.4197 27.13 60.8997 27.29C61.4473 30.2926 61.5349 33.361 61.1597 36.39C60.7349 39.462 59.8306 42.4484 58.4797 45.24C58.4797 43.75 59.2897 42.72 59.7497 41.47C59.3074 41.6183 58.9187 41.8938 58.6323 42.262C58.3459 42.6303 58.1746 43.0748 58.1397 43.54C56.9897 38.37 54.5197 33.84 50.6997 31.4C50.6997 31.12 50.6997 30.85 50.6997 30.57C51.1797 30.36 51.6197 30.11 51.3997 29.63Z"
                fill="#F0DAF4" />
            <path opacity="0.9"
                d="M16.9797 54.31C18.6057 54.4305 20.2371 54.1644 21.7405 53.5335C23.2439 52.9026 24.5767 51.9248 25.6297 50.68C26.2597 51.1 27.6297 52.01 28.7597 51.46C30.0098 51.6902 31.2786 51.8041 32.5497 51.8C33.8997 51.8 35.0497 51.45 35.2597 50.93C35.4697 50.41 34.7597 51.6 33.4397 53.14C32.0354 54.7172 30.4777 56.151 28.7897 57.42C28.4097 58.8 26.9497 59.83 25.0297 60.5C24.5097 60.3 25.1397 59.5 24.6497 59.28C24.2755 59.6011 23.874 59.8888 23.4497 60.14C23.234 60.1052 23.0203 60.0584 22.8097 60L21.2797 59.5C20.6797 59.29 20.0397 59.02 19.4197 58.78L17.7897 58C17.7059 57.6214 17.5169 57.2741 17.2444 56.9981C16.972 56.7222 16.6272 56.5287 16.2497 56.44C15.773 56.2044 15.2355 56.1206 14.7097 56.2C14.2097 55.9 13.7097 55.52 13.2597 55.2C14.1597 55.3 15.0297 55.37 15.8997 55.39C16.4197 55.24 16.9797 54.31 16.9797 54.31Z"
                fill="#E8C6EE" />
            <path opacity="0.9"
                d="M47.4097 48.79C45.9097 46.41 46.0197 43.92 45.6397 41.6C45.3797 41.82 44.9197 42.21 44.5097 42.54C44.0997 42.87 43.7197 43.14 43.6397 43.18C44.2197 43.47 44.9497 43.63 44.8797 44.18C44.4216 45.2518 43.7397 46.2132 42.8797 47C42.3368 47.2584 41.7497 47.4111 41.1497 47.45L39.3197 47.57C38.9897 47.87 38.6497 48.18 38.3197 48.46C37.9897 48.74 37.6197 49.03 37.2497 49.3C37.1348 49.8118 37.1111 50.3399 37.1797 50.86C36.5619 51.0335 35.9144 51.0744 35.2797 50.98C34.5113 51.9116 33.6502 52.7626 32.7097 53.52C31.2497 54.83 29.3497 56.19 28.8397 57.42C28.3297 58.65 26.9997 59.83 25.0797 60.5L25.9097 60.68C26.547 60.8255 27.1911 60.939 27.8397 61.02C29.3232 61.2375 30.8204 61.3478 32.3197 61.35C31.9887 60.9516 31.5716 60.6336 31.0997 60.42C31.6211 60.5285 32.1354 60.6687 32.6397 60.84C33.2962 61.0248 33.9644 61.1652 34.6397 61.26C35.7155 61.1733 36.7844 61.0163 37.8397 60.79C38.6112 60.6332 39.3699 60.4192 40.1097 60.15C40.5297 60.02 39.4697 59.58 39.2697 58.88C41.2645 59.3005 43.3352 59.1832 45.2697 58.54C45.7797 58.32 46.2697 58.04 46.7297 57.78C47.0197 57.93 47.2297 58.02 47.0297 58.15C46.8297 58.28 46.4997 58.63 46.2097 58.86C46.6697 58.61 47.9097 58 49.0697 57.25C50.0225 56.6391 50.9375 55.9712 51.8097 55.25C51.3008 55.5686 50.7655 55.843 50.2097 56.07C49.6646 56.3155 49.0992 56.513 48.5197 56.66C49.0173 56.3527 49.4979 56.0189 49.9597 55.66C50.4388 55.318 50.8995 54.9508 51.3397 54.56L51.4397 54.45C51.864 52.0814 51.611 49.6412 50.7097 47.41C49.7097 48.05 47.9097 49.34 47.4097 48.79Z"
                fill="#EAC9EF" />
            <path opacity="0.9"
                d="M25.7097 0C27.1297 0.47 28.8397 0.69 30.4797 1.16C32.0234 1.50392 33.4051 2.36044 34.3997 3.59C35.4797 5.66 34.9997 7.45 34.3997 9.18C33.7997 10.91 32.9097 12.62 32.1897 14.37C31.5608 13.5731 30.6907 13.0012 29.7097 12.74C28.4009 12.4134 27.0381 12.3657 25.7097 12.6C24.1758 12.8668 22.6961 13.3837 21.3297 14.13C19.8642 14.9404 18.518 15.95 17.3297 17.13C17.4384 15.9647 17.9227 14.8662 18.7097 14C19.5466 13.0298 20.0234 11.8007 20.0597 10.52C19.8797 10.21 19.1197 10.25 18.6197 10.14C19.3292 9.03441 20.1797 8.02592 21.1497 7.14C22.0497 6.23 22.7797 5.41 22.4997 4.55C22.1497 3.5 21.0097 2.61 20.1097 1.44C20.4362 1.29897 20.77 1.17546 21.1097 1.07C22.2197 1.23 23.7097 0.38 25.7097 0Z"
                fill="#DDA8E5" />
            <path opacity="0.9"
                d="M7.70972 8.76C9.31985 6.79222 11.152 5.01711 13.1697 3.47C13.3877 3.73143 13.6323 3.96939 13.8997 4.18C11.5474 5.86719 9.48691 7.92772 7.79972 10.28C7.79972 9.77 7.77972 9.27 7.70972 8.76Z"
                fill="#E0B1E8" />
            <path opacity="0.9"
                d="M18.5797 10.13C19.0797 10.24 19.8397 10.2 20.0197 10.51C19.9969 11.7893 19.5343 13.0217 18.7097 14C17.9207 14.8689 17.4363 15.9712 17.3297 17.14C15.4525 19.0099 13.958 21.228 12.9297 23.67C12.8297 23.14 12.7497 22.6 12.6697 22.04C12.0797 23.41 9.55972 22.79 9.04972 24.44C8.47972 21.68 9.04972 18.44 10.0497 15.44C11.0497 12.44 12.1897 9.31 12.7097 6.18C13.7773 5.18539 14.932 4.28847 16.1597 3.5C17.3995 2.71587 18.7083 2.04643 20.0697 1.5C20.9697 2.67 22.0697 3.56 22.4597 4.61C22.7397 5.47 22.0097 6.29 21.1097 7.2C20.1444 8.06431 19.2941 9.04903 18.5797 10.13Z"
                fill="#E0B1E8" />
            <path opacity="0.9"
                d="M9.00972 24.43C9.51972 22.78 12.0097 23.43 12.6297 22.03C12.7097 22.59 12.7897 23.13 12.8897 23.66C11.6933 26.4523 11.1791 29.4895 11.3897 32.52C11.3467 32.7206 11.3233 32.9249 11.3197 33.13C11.386 35.3144 11.7978 37.4744 12.5397 39.53C10.5195 38.7016 8.65337 37.5387 7.01972 36.09C8.27305 32.6282 9.90991 29.3176 11.8997 26.22C11.2497 27.27 9.56972 26.62 9.07972 27.22C7.73237 28.3082 6.26641 29.2408 4.70972 30C3.15972 30.72 1.70972 31.07 0.809723 30.22C0.835593 23.2669 3.04646 16.4979 7.12972 10.87C7.78972 10.79 8.75972 10.75 9.00972 10.49C10.0893 8.92817 11.3294 7.48364 12.7097 6.17999C12.1497 9.30999 10.8797 12.29 9.93972 15.38C8.99972 18.47 8.43972 21.67 9.00972 24.43Z"
                fill="#E2B7E9" />
            <path opacity="0.9"
                d="M7.01972 36.09C8.65337 37.5387 10.5195 38.7016 12.5397 39.53C12.6697 40.09 12.8597 40.64 12.9997 41.26C13.3048 41.1308 13.5655 40.9153 13.7497 40.64L14.3597 41.7C14.4497 42.19 13.7597 43.25 15.2797 43.05C15.5882 43.5083 15.922 43.949 16.2797 44.37C16.3552 45.1375 16.2348 45.9117 15.9297 46.62L16.7097 45.86C17.6497 45.74 17.5297 46.68 17.9897 47.05C18.1465 46.8611 18.3169 46.6839 18.4997 46.52C19.3184 47.7162 20.4945 48.6228 21.8597 49.11C22.7552 49.4238 23.6706 49.6777 24.5997 49.87C24.9145 50.1621 25.2486 50.4327 25.5997 50.68C24.5467 51.9248 23.214 52.9026 21.7105 53.5335C20.2071 54.1644 18.5757 54.4305 16.9497 54.31C16.9497 54.31 16.3897 55.24 15.8397 55.31C14.9697 55.31 14.0997 55.22 13.1997 55.12C11.8502 53.1658 10.2909 51.3651 8.54972 49.75L5.79972 47.12C5.43972 46.55 5.10972 45.97 4.79972 45.39C3.96855 43.2895 3.39113 41.0974 3.07972 38.86C2.73086 36.4215 1.98427 34.0568 0.86972 31.86V30.24C1.74972 31.09 3.21972 30.74 4.76972 30.02C6.33385 29.259 7.8066 28.323 9.15972 27.23C9.59496 26.7424 10.1216 26.345 10.7097 26.06C11.3697 25.76 11.9397 25.71 11.8797 26.22C11.2497 27.92 9.74972 30.08 8.71972 32.22C7.68972 34.36 6.98972 36.21 7.01972 36.09Z"
                fill="#E5BDEB" />
            <path opacity="0.9"
                d="M35.8997 6.59001C34.7125 6.17613 33.4862 5.88461 32.2397 5.72001C33.6397 5.66001 34.9297 6.18001 35.7797 5.46001C36.3823 5.78488 37.0344 6.00789 37.7097 6.12001C37.1195 6.32328 36.5143 6.48042 35.8997 6.59001Z"
                fill="#F8EDFA" />
            <path opacity="0.9"
                d="M39.6097 2.13C40.0397 2.24 40.4597 2.39 40.8797 2.52C40.8027 2.70456 40.6845 2.86906 40.5341 3.00087C40.3838 3.13268 40.2052 3.22831 40.0121 3.28044C39.8191 3.33257 39.6166 3.3398 39.4204 3.30159C39.2241 3.26338 39.0391 3.18074 38.8797 3.06C38.6897 3.76 39.6997 3.28 39.5997 3.64C39.3097 4.55 38.8697 4.47 38.3697 4.22C38.7597 2.65 39.8297 1.22 40.4997 1.45L41.3597 1.73C40.7797 1.88 39.9697 1.8 39.6097 2.13Z"
                fill="#F8EDFA" />
            <path opacity="0.9"
                d="M50.9997 10.45C51.2825 10.9815 51.4623 11.5617 51.5297 12.16C51.6297 12.74 51.6597 13.35 51.7197 14.03C49.8337 13.7807 47.9161 13.9444 46.0997 14.51C44.4787 11.9063 42.2609 9.72609 39.6297 8.15C40.2394 8.14918 40.8481 8.09902 41.4497 8C40.8135 7.77579 40.2237 7.43686 39.7097 7C39.9228 6.88627 40.1101 6.72965 40.2597 6.54C40.6897 6.83 41.0897 6.96 41.4697 6.08C41.6097 5.73 40.6197 6.08 40.8797 5.45C41.0206 5.57557 41.1888 5.66672 41.3709 5.71628C41.5531 5.76585 41.7442 5.77248 41.9293 5.73565C42.1145 5.69881 42.2885 5.61953 42.4378 5.50402C42.5871 5.38852 42.7076 5.23995 42.7897 5.07L41.7097 4.57C42.0697 4.29 42.8297 4.41 43.4097 4.33C46.7003 5.88636 49.6896 8.01244 52.2397 10.61C51.8297 10.54 51.4197 10.49 50.9997 10.45Z"
                fill="#F6E8F8" />
        </g>
    </symbol>

    <symbol id="linkedin-black" viewBox="0 0 40 40">
        <g clip-path="url(#clip0_754_21)">
            <path d="M15.824 17.2842H12.4727V27.188H15.824V17.2842Z" fill="#282229" />
            <path
                d="M14.1483 15.6086C15.0738 15.6086 15.824 14.8584 15.824 13.933C15.824 13.0075 15.0738 12.2573 14.1483 12.2573C13.2229 12.2573 12.4727 13.0075 12.4727 13.933C12.4727 14.8584 13.2229 15.6086 14.1483 15.6086Z"
                fill="#282229" />
            <path
                d="M17.8777 17.2842V27.188H20.8639V21.2483C20.9251 20.8141 21.1462 20.4184 21.4839 20.1386C21.8215 19.8588 22.2515 19.7152 22.6895 19.7357C22.8863 19.7192 23.0843 19.7442 23.2708 19.8093C23.4573 19.8743 23.628 19.9778 23.7718 20.113C23.9157 20.2483 24.0295 20.4123 24.1059 20.5944C24.1823 20.7765 24.2195 20.9727 24.2152 21.1701V27.188H27.3382L27.2535 20.4594C27.2132 20.0392 27.1076 19.6278 26.9405 19.2402C26.7367 18.6746 26.3655 18.1846 25.8763 17.8352C25.3871 17.4858 24.8032 17.2936 24.2021 17.2842C21.9918 17.2842 21.3072 17.5906 20.6227 18.5034L20.5444 17.2842H17.8777Z"
                fill="#282229" />
            <g opacity="0.9">
                <g opacity="0.9">
                    <path opacity="0.9"
                        d="M4.62266 33.7929C2.4754 31.3854 0.895712 28.5268 0 25.4277C0.391198 26.0797 0.788916 26.66 1.21923 27.2338C1.83518 28.2521 2.35886 29.3235 2.78403 30.4351C3.24553 31.6308 3.86382 32.7599 4.62266 33.7929V33.7929Z"
                        fill="#BCBBBD" />
                    <path opacity="0.9"
                        d="M11.7881 38.8718C10.6383 38.396 9.53033 37.8246 8.47596 37.1636C7.44159 36.4654 6.46875 35.6802 5.56805 34.8164C5.69845 34.9272 5.82885 35.0316 5.96577 35.1294C6.93725 35.7814 7.92176 36.3747 8.91932 36.9745C9.90717 37.5578 10.8647 38.1911 11.7881 38.8718V38.8718Z"
                        fill="#BCBBBD" />
                    <path opacity="0.9"
                        d="M32.5999 20.499C35.0905 22.0899 36.7009 25.063 37.4507 28.4143C37.3563 29.1039 37.1745 29.7787 36.9096 30.4224C36.8488 30.6524 36.7543 30.8721 36.6292 31.0744C36.3587 31.5697 36.0627 32.0506 35.7425 32.5153C34.9871 33.6379 34.0909 34.659 33.0758 35.5536C33.3476 33.9946 33.1666 32.3903 32.5542 30.931C31.9022 31.3482 30.7612 32.1893 30.4352 31.8307C29.4572 30.279 29.5289 28.6555 29.2812 27.1429C30.0521 26.4957 30.73 25.7454 31.2959 24.913C32.195 23.6207 32.6524 22.0725 32.5999 20.499Z"
                        fill="#D4D3D4" />
                    <path opacity="0.9"
                        d="M31.5892 14.3441C31.2763 13.5356 30.9763 12.538 30.6308 11.6252C30.3463 10.8718 29.9995 10.1434 29.5941 9.44757C30.7759 9.07759 32.0238 8.96859 33.2518 9.12809C33.2127 8.68474 33.1931 8.28702 33.1279 7.90886C33.084 7.51878 32.9668 7.1405 32.7824 6.79395C33.0562 6.79395 33.3235 6.85262 33.5843 6.89826C36.5198 9.88519 38.4952 13.6816 39.2567 17.7997C38.9372 17.6888 37.6006 16.4957 35.9967 15.6676C34.6557 14.8777 33.1436 14.4236 31.5892 14.3441V14.3441Z"
                        fill="#DEDDDE" />
                    <path opacity="0.9"
                        d="M33.0497 19.3188C32.9584 18.9994 32.8411 18.6668 32.7498 18.406C32.6585 18.1452 32.5151 17.8518 32.4042 17.591C32.2029 16.488 31.9307 15.3991 31.5892 14.3311C32.6437 14.2728 33.6993 14.4236 34.6951 14.775C35.691 15.1263 36.6076 15.6713 37.392 16.3783C37.3333 16.1306 37.9332 15.7263 37.868 15.4851C38.0341 15.7486 38.1822 16.0231 38.3113 16.3066L38.5917 17.0042C38.7742 17.4085 38.9307 17.6888 39.2437 17.7932C39.6007 19.7509 39.6578 21.7515 39.4132 23.7263C39.1362 25.7293 38.5466 27.6764 37.6658 29.4965C37.6658 28.525 38.194 27.8535 38.4939 27.0385C38.2055 27.1352 37.9521 27.3148 37.7653 27.5549C37.5786 27.795 37.4669 28.0848 37.4442 28.3881C36.6944 25.0173 35.0839 22.0637 32.5933 20.4729C32.5933 20.2903 32.5933 20.1143 32.5933 19.9317C32.9063 19.7948 33.1931 19.6318 33.0497 19.3188Z"
                        fill="#D9D8D9" />
                    <path opacity="0.9"
                        d="M10.608 35.4097C11.6681 35.4883 12.7318 35.3148 13.712 34.9034C14.6922 34.4921 15.5612 33.8546 16.2478 33.043C16.6585 33.3168 17.5517 33.9101 18.2885 33.5515C19.1036 33.7016 19.9308 33.7759 20.7596 33.7732C21.6398 33.7732 22.3896 33.545 22.5265 33.206C22.6634 32.8669 22.2005 33.6428 21.3398 34.6469C20.4242 35.6752 19.4086 36.61 18.3081 37.4374C18.0603 38.3372 17.1084 39.0087 15.8566 39.4456C15.5175 39.3152 15.9283 38.7936 15.6088 38.6501C15.3648 38.8595 15.103 39.0471 14.8264 39.2109C14.6857 39.1882 14.5464 39.1577 14.4091 39.1196L13.4116 38.7936C13.0204 38.6567 12.6031 38.4806 12.1989 38.3241L11.1361 37.8156C11.0814 37.5687 10.9582 37.3423 10.7806 37.1624C10.603 36.9825 10.3782 36.8563 10.132 36.7985C9.82121 36.6449 9.47077 36.5902 9.12795 36.642C8.80195 36.4464 8.47595 36.1986 8.18256 35.99C8.76935 36.0552 9.33659 36.1008 9.90383 36.1139C10.2429 36.0161 10.608 35.4097 10.608 35.4097Z"
                        fill="#C5C3C5" />
                    <path opacity="0.9"
                        d="M30.4482 31.8109C29.4703 30.2592 29.542 28.6357 29.2942 27.123C29.1247 27.2665 28.8248 27.5208 28.5575 27.7359C28.2901 27.9511 28.0424 28.1271 27.9902 28.1532C28.3684 28.3423 28.8443 28.4466 28.7987 28.8052C28.5 29.504 28.0554 30.1309 27.4947 30.6438C27.1407 30.8123 26.7579 30.9119 26.3667 30.9372L25.1736 31.0155C24.9584 31.2111 24.7368 31.4132 24.5216 31.5957C24.3064 31.7783 24.0652 31.9674 23.824 32.1434C23.7491 32.4771 23.7336 32.8215 23.7783 33.1605C23.3755 33.2737 22.9534 33.3003 22.5395 33.2388C22.0385 33.8461 21.4771 34.401 20.8639 34.8948C19.912 35.749 18.6732 36.6357 18.3407 37.4376C18.0081 38.2396 17.141 39.0089 15.8892 39.4458L16.4303 39.5631C16.8458 39.658 17.2658 39.732 17.6887 39.7848C18.6559 39.9266 19.6321 39.9985 20.6096 40C20.3938 39.7402 20.1218 39.5329 19.8142 39.3936C20.1541 39.4643 20.4895 39.5558 20.8183 39.6675C21.2463 39.788 21.6819 39.8795 22.1222 39.9413C22.8237 39.8848 23.5206 39.7824 24.2086 39.6349C24.7116 39.5326 25.2063 39.3931 25.6887 39.2176C25.9625 39.1328 25.2714 38.8459 25.141 38.3896C26.4416 38.6637 27.7917 38.5872 29.053 38.1679C29.3855 38.0244 29.705 37.8419 30.0049 37.6724C30.194 37.7702 30.3309 37.8288 30.2005 37.9136C30.0701 37.9984 29.8549 38.2266 29.6659 38.3765C29.9658 38.2135 30.7742 37.8158 31.5306 37.3268C32.1518 36.9285 32.7483 36.493 33.317 36.0228C32.9852 36.2305 32.6362 36.4094 32.2738 36.5574C31.9185 36.7175 31.5498 36.8462 31.172 36.9421C31.4964 36.7417 31.8098 36.5241 32.1108 36.2901C32.4232 36.0671 32.7236 35.8277 33.0106 35.5729L33.0758 35.5012C33.3524 33.9569 33.1874 32.3658 32.5998 30.9111C31.9478 31.3284 30.7742 32.1695 30.4482 31.8109Z"
                        fill="#C8C7C8" />
                    <path opacity="0.9"
                        d="M16.2999 0C17.2257 0.306438 18.3407 0.449878 19.4099 0.756316C20.4164 0.980553 21.3173 1.539 21.9658 2.34067C22.6699 3.6903 22.357 4.85738 21.9658 5.98533C21.5746 7.11329 20.9943 8.2282 20.5249 9.36919C20.1148 8.84961 19.5475 8.47676 18.9079 8.30644C18.0546 8.0935 17.166 8.06241 16.2999 8.21516C15.2998 8.3891 14.3351 8.7261 13.4442 9.21271C12.4886 9.74106 11.6109 10.3993 10.8362 11.1687C10.907 10.4089 11.2228 9.69273 11.7359 9.12796C12.2816 8.49538 12.5924 7.69405 12.6161 6.85901C12.4988 6.65689 12.0033 6.68297 11.6773 6.61125C12.1399 5.8904 12.6944 5.23288 13.3268 4.65526C13.9136 4.06194 14.3896 3.5273 14.207 2.96659C13.9788 2.28199 13.2355 1.70171 12.6487 0.938875C12.8616 0.846925 13.0793 0.766397 13.3007 0.697637C14.0244 0.801956 14.9959 0.247759 16.2999 0Z"
                        fill="#A7A4A7" />
                    <path opacity="0.9"
                        d="M4.56396 5.71127C5.61377 4.42828 6.80832 3.27091 8.12387 2.26221C8.26598 2.43266 8.42549 2.5878 8.59982 2.72512C7.06614 3.82517 5.72269 5.16862 4.62264 6.7023C4.62264 6.36979 4.6096 6.04379 4.56396 5.71127Z"
                        fill="#B0AEB0" />
                    <path opacity="0.9"
                        d="M11.6512 6.60476C11.9772 6.67648 12.4727 6.6504 12.59 6.85252C12.5751 7.68659 12.2735 8.49011 11.7359 9.12799C11.2215 9.6945 10.9056 10.4132 10.8362 11.1753C9.61224 12.3945 8.63779 13.8406 7.96739 15.4328C7.90219 15.0872 7.85003 14.7352 7.79787 14.37C7.41319 15.2633 5.77016 14.859 5.43764 15.9348C5.066 14.1353 5.43764 12.0229 6.08964 10.0669C6.74164 8.11087 7.48491 6.07012 7.82395 4.02937C8.52004 3.38089 9.27284 2.7961 10.0733 2.28202C10.8817 1.77077 11.735 1.3343 12.6226 0.978027C13.2094 1.74086 13.9266 2.32114 14.1809 3.00574C14.3635 3.56645 13.8875 4.10109 13.3007 4.69441C12.6713 5.25793 12.117 5.89997 11.6512 6.60476V6.60476Z"
                        fill="#B0AEB0" />
                    <path opacity="0.9"
                        d="M5.41156 15.9282C5.74408 14.8524 7.36755 15.2762 7.77179 14.3634C7.82395 14.7286 7.87611 15.0806 7.94131 15.4262C7.16126 17.2468 6.82602 19.227 6.96331 21.2029C6.93526 21.3337 6.91998 21.4669 6.91767 21.6006C6.96089 23.0248 7.22936 24.4332 7.71311 25.7734C6.39593 25.2333 5.17922 24.4751 4.11409 23.5305C4.93125 21.2735 5.99848 19.115 7.29583 17.0953C6.87203 17.7799 5.77668 17.3561 5.4572 17.7473C4.57873 18.4568 3.62293 19.0649 2.60797 19.5599C1.59738 20.0293 0.651983 20.2575 0.0651855 19.7033C0.0820525 15.1699 1.52353 10.7565 4.18581 7.08716C4.61612 7.035 5.24856 7.00892 5.41156 6.8394C6.11545 5.8211 6.92398 4.87927 7.82395 4.0293C7.45883 6.07005 6.63079 8.013 6.01792 10.0277C5.40504 12.0423 5.03992 14.1287 5.41156 15.9282Z"
                        fill="#B6B4B6" />
                    <path opacity="0.9"
                        d="M4.11409 23.5306C5.17922 24.4751 6.39594 25.2333 7.71311 25.7734C7.79787 26.1386 7.92175 26.4972 8.01303 26.9014C8.21194 26.8172 8.3819 26.6767 8.50203 26.4972L8.89974 27.1883C8.95842 27.5078 8.50855 28.1989 9.49958 28.0685C9.7007 28.3673 9.91838 28.6546 10.1516 28.9291C10.2008 29.4295 10.1223 29.9343 9.92338 30.3961L10.4319 29.9006C11.0448 29.8223 10.9666 30.4352 11.2665 30.6765C11.3687 30.5533 11.4798 30.4378 11.599 30.3309C12.1328 31.1108 12.8996 31.7019 13.7897 32.0196C14.3736 32.2241 14.9704 32.3897 15.5762 32.5151C15.7814 32.7055 15.9993 32.882 16.2282 33.0432C15.5416 33.8548 14.6727 34.4923 13.6925 34.9037C12.7122 35.315 11.6485 35.4885 10.5884 35.41C10.5884 35.41 10.2233 36.0163 9.8647 36.062C9.29746 36.062 8.73023 36.0033 8.14343 35.9381C7.26355 34.6639 6.2469 33.4899 5.11164 32.4368L3.31865 30.7221C3.08393 30.3505 2.86878 29.9723 2.66666 29.5941C2.12474 28.2247 1.74826 26.7954 1.54522 25.3366C1.31776 23.7467 0.830994 22.2049 0.104309 20.7726V19.7164C0.678066 20.2706 1.6365 20.0424 2.6471 19.573C3.6669 19.0768 4.62713 18.4665 5.50936 17.7539C5.79313 17.436 6.13647 17.1768 6.51996 16.991C6.95027 16.7954 7.32191 16.7628 7.28279 17.0954C6.87204 18.2038 5.89404 19.6121 5.22248 21.0073C4.55093 22.4026 4.09453 23.6088 4.11409 23.5306Z"
                        fill="#BCBBBD" />
                    <path opacity="0.9"
                        d="M22.9437 4.29682C22.1697 4.02697 21.3701 3.8369 20.5574 3.72958C21.4702 3.69046 22.3113 4.0295 22.8655 3.56006C23.2584 3.77187 23.6836 3.91727 24.1239 3.99038C23.739 4.12291 23.3445 4.22537 22.9437 4.29682V4.29682Z"
                        fill="#ECECED" />
                    <path opacity="0.9"
                        d="M25.3627 1.38897C25.643 1.46069 25.9169 1.55849 26.1907 1.64325C26.1405 1.76359 26.0634 1.87084 25.9654 1.95678C25.8673 2.04272 25.7509 2.10507 25.6251 2.13906C25.4992 2.17304 25.3672 2.17776 25.2392 2.15285C25.1112 2.12794 24.9907 2.07405 24.8867 1.99533C24.7628 2.45173 25.4214 2.13877 25.3562 2.37349C25.1671 2.96681 24.8802 2.91465 24.5542 2.75165C24.8085 1.72801 25.5061 0.795658 25.943 0.945617L26.5037 1.12818C26.1255 1.22598 25.5974 1.17382 25.3627 1.38897Z"
                        fill="#ECECED" />
                    <path opacity="0.9"
                        d="M32.7889 6.81346C32.9733 7.16002 33.0906 7.53829 33.1345 7.92838C33.1997 8.30653 33.2193 8.70425 33.2584 9.14761C32.0287 8.98504 30.7784 9.09183 29.5942 9.46057C28.5373 7.76294 27.0912 6.34147 25.3757 5.31387C25.7733 5.31334 26.1701 5.28063 26.5624 5.21607C26.1475 5.06988 25.763 4.8489 25.4279 4.56407C25.5668 4.48992 25.6889 4.38781 25.7865 4.26415V4.26415C26.0669 4.45323 26.3276 4.53799 26.5754 3.96424C26.6667 3.73604 26.0212 3.96424 26.1907 3.55348C26.2826 3.63535 26.3923 3.69478 26.511 3.72709C26.6298 3.75941 26.7544 3.76373 26.8751 3.73972C26.9958 3.7157 27.1093 3.66401 27.2066 3.5887C27.304 3.51339 27.3825 3.41653 27.436 3.30572L26.7319 2.97972C26.9666 2.79716 27.4621 2.8754 27.8403 2.82324C29.9857 3.83798 31.9348 5.22418 33.5974 6.91778C33.3301 6.87214 33.0628 6.83954 32.7889 6.81346Z"
                        fill="#E7E7E7" />
                </g>
            </g>
        </g>
    </symbol>

    <symbol id="design-icon" viewBox="0 0 219 224">

        <g clip-path="url(#clip0_754_174)">
            <path
                d="M208.332 1.65283H10.7115C5.70582 1.65283 1.64792 5.72278 1.64792 10.7433V213.3C1.64792 218.321 5.70582 222.391 10.7115 222.391H208.332C213.338 222.391 217.395 218.321 217.395 213.3V10.7433C217.395 5.72278 213.338 1.65283 208.332 1.65283Z"
                fill="#F7F5F7" />
            <path d="M217 89H2.99994V195H217V89Z" fill="#B3B3B3" />
            <path
                d="M208.158 3.26209C210.122 3.2735 212.001 4.06078 213.389 5.45314C214.778 6.84551 215.563 8.73068 215.574 10.6998V213.126C215.591 214.116 215.412 215.099 215.048 216.019C214.684 216.939 214.141 217.777 213.451 218.485C212.761 219.193 211.938 219.757 211.03 220.144C210.121 220.53 209.145 220.732 208.158 220.738H10.6681C9.6812 220.732 8.70521 220.53 7.79668 220.144C6.88816 219.757 6.06517 219.193 5.37542 218.485C4.68566 217.777 4.14285 216.939 3.77844 216.019C3.41402 215.099 3.23525 214.116 3.25248 213.126V10.6998C3.26386 8.73068 4.04881 6.84551 5.43705 5.45314C6.82529 4.06078 8.70488 3.2735 10.6681 3.26209H208.158ZM208.158 -5.01668e-05H10.6681C7.83876 -5.01668e-05 5.12529 1.12725 3.12463 3.13385C1.12397 5.14045 6.67872e-06 7.86199 6.67872e-06 10.6998V213.126C-0.0230124 214.546 0.235927 215.956 0.761735 217.274C1.28754 218.593 2.0697 219.793 3.06263 220.805C4.05556 221.817 5.23939 222.621 6.54514 223.169C7.8509 223.718 9.25245 224 10.6681 224H208.158C209.589 224.023 211.009 223.758 212.335 223.22C213.661 222.682 214.865 221.882 215.877 220.867C216.888 219.853 217.686 218.645 218.222 217.315C218.759 215.985 219.023 214.561 219 213.126V10.6998C219 9.27988 218.719 7.87416 218.172 6.56453C217.625 5.2549 216.823 4.06755 215.814 3.07167C214.805 2.07579 213.609 1.29131 212.294 0.76394C210.98 0.236571 209.574 -0.0231376 208.158 -5.01668e-05V-5.01668e-05Z"
                fill="black" />
            <path
                d="M53.7437 23.0928H24.7317C20.5164 23.0928 17.0992 26.5201 17.0992 30.7479V56.8885C17.0992 61.1163 20.5164 64.5437 24.7317 64.5437H53.7437C57.959 64.5437 61.3762 61.1163 61.3762 56.8885V30.7479C61.3762 26.5201 57.959 23.0928 53.7437 23.0928Z"
                fill="#B3B3B3" />
            <path d="M193.207 26.0505H89.9088V29.0082H193.207V26.0505Z" fill="#B3B3B3" />
            <path d="M193.207 43.8398H89.9088V46.7975H193.207V43.8398Z" fill="#B3B3B3" />
            <path d="M193.207 64.5437H89.9088V67.5014H193.207V64.5437Z" fill="#B3B3B3" />
            <path
                d="M64.055 116H25.0687C21.1647 116 17.9999 119.174 17.9999 123.09V156.276C17.9999 160.192 21.1647 163.366 25.0687 163.366H64.055C67.9589 163.366 71.1237 160.192 71.1237 156.276V123.09C71.1237 119.174 67.9589 116 64.055 116Z"
                fill="#F7F5F7" />
            <path
                d="M129.018 116H90.0314C86.1275 116 82.9627 119.174 82.9627 123.09V156.276C82.9627 160.192 86.1275 163.366 90.0314 163.366H129.018C132.922 163.366 136.086 160.192 136.086 156.276V123.09C136.086 119.174 132.922 116 129.018 116Z"
                fill="#F7F5F7" />
            <path
                d="M193.937 116H154.951C151.047 116 147.882 119.174 147.882 123.09V156.276C147.882 160.192 151.047 163.366 154.951 163.366H193.937C197.841 163.366 201.006 160.192 201.006 156.276V123.09C201.006 119.174 197.841 116 193.937 116Z"
                fill="#F7F5F7" />
        </g>

    </symbol>

    <symbol id="dvlpmt-icon" viewBox="0 0 253 222">
        <path
            d="M249.239 0H3.76081C1.68377 0 0 1.68203 0 3.75692V184.089C0 186.164 1.68377 187.846 3.76081 187.846H249.239C251.316 187.846 253 186.164 253 184.089V3.75692C253 1.68203 251.316 0 249.239 0Z"
            fill="#1E1B1E" />
        <path d="M147.014 215.169H109.405L116.243 187.846H140.176L147.014 215.169Z" fill="#1E1B1E" />
        <path
            d="M188.793 211.754H67.6262C66.1534 211.754 64.9595 212.947 64.9595 214.418V219.336C64.9595 220.807 66.1534 222 67.6262 222H188.793C190.266 222 191.459 220.807 191.459 219.336V214.418C191.459 212.947 190.266 211.754 188.793 211.754Z"
            fill="#1E1B1E" />
        <path
            d="M245.957 3.41528H7.04297C5.04146 3.41528 3.41891 5.03615 3.41891 7.03559V167.149C3.41891 169.148 5.04146 170.769 7.04297 170.769H245.957C247.959 170.769 249.581 169.148 249.581 167.149V7.03559C249.581 5.03615 247.959 3.41528 245.957 3.41528Z"
            fill="#F5F5F7" />
        <path opacity="0.21"
            d="M64.9595 218.926H191.459V219.37C191.459 220.068 191.182 220.736 190.688 221.23C190.195 221.723 189.525 222 188.827 222H67.6262C67.276 222 66.9292 221.931 66.6057 221.797C66.2822 221.663 65.9882 221.467 65.7405 221.22C65.4929 220.972 65.2965 220.679 65.1625 220.355C65.0284 220.032 64.9595 219.686 64.9595 219.336V218.926Z"
            fill="#F2F2F4" />
        <path
            d="M128.209 182.723C129.154 182.723 129.919 181.958 129.919 181.015C129.919 180.072 129.154 179.308 128.209 179.308C127.265 179.308 126.5 180.072 126.5 181.015C126.5 181.958 127.265 182.723 128.209 182.723Z"
            fill="#FCF7FC" />
    </symbol>

    <symbol id="illu-icon" viewBox="0 0 138 217">
        <g clip-path="url(#clip0_754_128)">
            <path
                d="M15.7714 216.607C14.8997 216.556 14.0833 216.164 13.4999 215.516C12.9166 214.868 12.6135 214.017 12.6566 213.147V177.767C12.6245 177.33 12.6799 176.891 12.8197 176.476C12.9594 176.06 13.1807 175.677 13.4706 175.347C13.7605 175.018 14.1132 174.75 14.5083 174.558C14.9033 174.366 15.3327 174.254 15.7714 174.229H120.573C121.444 174.28 122.261 174.672 122.844 175.32C123.427 175.967 123.73 176.819 123.687 177.688V213.069C123.73 213.938 123.427 214.79 122.844 215.438C122.261 216.086 121.444 216.478 120.573 216.528L15.7714 216.607Z"
                fill="#3A353A" />
            <path
                d="M120.573 174.622C121.34 174.673 122.056 175.023 122.565 175.597C123.075 176.172 123.336 176.923 123.293 177.688V213.069C123.336 213.834 123.075 214.586 122.565 215.16C122.056 215.734 121.34 216.085 120.573 216.135H15.7714C15.0042 216.085 14.288 215.734 13.7786 215.16C13.2691 214.586 13.0076 213.834 13.0508 213.069V177.688C13.0076 176.923 13.2691 176.172 13.7786 175.597C14.288 175.023 15.0042 174.673 15.7714 174.622H120.573ZM120.573 173.836H15.7714C15.2809 173.861 14.8003 173.983 14.3576 174.195C13.9148 174.406 13.5186 174.704 13.1921 175.07C12.8656 175.435 12.6153 175.862 12.4556 176.325C12.296 176.788 12.2303 177.278 12.2623 177.767V213.148C12.2303 213.636 12.296 214.126 12.4556 214.589C12.6153 215.052 12.8656 215.479 13.1921 215.845C13.5186 216.211 13.9148 216.508 14.3576 216.72C14.8003 216.932 15.2809 217.054 15.7714 217.079H120.573C121.063 217.054 121.544 216.932 121.986 216.72C122.429 216.508 122.825 216.211 123.152 215.845C123.478 215.479 123.729 215.052 123.888 214.589C124.048 214.126 124.114 213.636 124.082 213.148V177.767C124.114 177.278 124.048 176.788 123.888 176.325C123.729 175.862 123.478 175.435 123.152 175.07C122.825 174.704 122.429 174.406 121.986 174.195C121.544 173.983 121.063 173.861 120.573 173.836Z"
                fill="#3A353A" />
            <path
                d="M8.08281 177.295C6.38738 177.295 4.6131 176.706 4.6131 175.566V160.234C4.6131 159.094 6.38738 158.504 8.08281 158.504H125.817C127.512 158.504 129.286 159.094 129.286 160.234V175.566C129.286 176.706 127.512 177.295 125.817 177.295H8.08281Z"
                fill="#443F44" />
            <path
                d="M125.856 158.898C127.512 158.898 128.892 159.487 128.892 160.234V175.566C128.892 176.313 127.512 176.902 125.856 176.902H8.08281C6.38738 176.902 5.00738 176.313 5.00738 175.566V160.234C5.00738 159.487 6.38738 158.898 8.08281 158.898H125.856ZM125.856 158.111H8.08281C5.79595 158.111 4.13995 158.976 4.13995 160.234V175.566C4.13995 176.824 5.7171 177.688 8.08281 177.688H125.856C128.103 177.688 129.799 176.824 129.799 175.566V160.234C129.799 158.976 128.222 158.111 125.856 158.111Z"
                fill="#443F44" />
            <path
                d="M14.7463 159.448L2.91771 117.62C0.150754 107.814 1.19258 97.3288 5.83543 88.2546L50.3897 1.4939H63.5589V95.8417H72.6274V1.4939H84.456L135.122 97.8466C136.622 100.748 136.934 104.117 135.989 107.242L120.218 159.448H14.7463Z"
                fill="#D8D6D8" />
            <path
                d="M83.5491 2.94837L133.781 98.5148C135.12 101.071 135.403 104.048 134.57 106.81L119.035 157.915H15.7714L4.41597 117.227C1.7423 107.774 2.75654 97.6614 7.25483 88.9228L51.2571 2.94837H62.0605V97.2962H73.8891V2.94837H83.352H83.5491ZM85.3628 0H70.9714V94.3478H65.0571V0H49.4828L4.61311 87.5862C-0.186242 96.9631 -1.27009 107.797 1.57711 117.935L13.6028 160.942H121.243L137.409 107.674C138.473 104.182 138.119 100.413 136.423 97.1783L85.3628 0Z"
                fill="black" />
        </g>
    </symbol>

    <symbol id="slider-arrow-icon" viewBox="0 0 31 44">
        <path
            d="M28.6279 22.1697L9.25669 2.04495L2.2151 8.49987L15.1282 22.0831L2.04174 35.4993L8.99986 42.0441L28.6279 22.1697Z"
            stroke="currentColor" stroke-width="3" stroke-linejoin="round" />
    </symbol>

</svg>